<?xml version="1.0" standalone="no"?>
<!DOCTYPE svg PUBLIC "-//W3C//DTD SVG 1.1//EN" "http://www.w3.org/Graphics/SVG/1.1/DTD/svg11.dtd" >
<svg xmlns="http://www.w3.org/2000/svg" xmlns:xlink="http://www.w3.org/1999/xlink" version="1.1">
<metadata>
Created by FontForge 20170731 at Tue Jun  6 14:18:56 2017
 By Aleksey,,,
Copyright (c) 2012 - 2017 Monotype GmbH. All rights reserved.
</metadata>
<defs>
<font id="AvenirNextLTPro-Light" horiz-adv-x="364" >
  <font-face 
    font-family="AvenirNext LT Pro Light"
    font-weight="300"
    font-stretch="normal"
    units-per-em="1000"
    panose-1="2 11 4 3 2 2 2 2 2 4"
    ascent="758"
    descent="-242"
    x-height="466"
    cap-height="708"
    bbox="-202 -250 972 945"
    underline-thickness="50"
    underline-position="-200"
    unicode-range="U+000D-FB04"
  />
<missing-glyph horiz-adv-x="512" 
d="M278 117h-56v67h56v-67zM271 234h-46l-2 17q0 54 11 78.5t48 61.5q32 32 41 47.5t9 35.5q0 36 -22.5 60.5t-53.5 24.5q-71 0 -82 -95l-50 8q6 69 42 103t93 34q55 0 89.5 -36t34.5 -95q0 -34 -13 -60t-50 -60q-37 -32 -43 -49.5t-6 -74.5zM50 50h412v617h-412v-617z
M0 718h512v-718h-512v718z" />
    <glyph glyph-name="fi" unicode="fi" horiz-adv-x="529" 
d="M282 466v-46h-114v-420h-55v420h-97v46h97v139q0 80 38.5 121.5t108.5 41.5q32 0 53 -7l-9 -45q-20 5 -45 5q-91 0 -91 -122v-133h114zM435 466v-466h-55v466h55zM448 651q0 -17 -12.5 -29t-28.5 -12t-28 12t-12 29t12 29t28 12t28.5 -12t12.5 -29z" />
    <glyph glyph-name="fl" unicode="fl" horiz-adv-x="529" 
d="M282 466v-46h-114v-420h-55v420h-97v46h97v139q0 80 38.5 121.5t108.5 41.5q32 0 53 -7l-9 -45q-20 5 -45 5q-91 0 -91 -122v-133h114zM434 756v-756h-54v756h54z" />
    <glyph glyph-name=".notdef" horiz-adv-x="512" 
d="M278 117h-56v67h56v-67zM271 234h-46l-2 17q0 54 11 78.5t48 61.5q32 32 41 47.5t9 35.5q0 36 -22.5 60.5t-53.5 24.5q-71 0 -82 -95l-50 8q6 69 42 103t93 34q55 0 89.5 -36t34.5 -95q0 -34 -13 -60t-50 -60q-37 -32 -43 -49.5t-6 -74.5zM50 50h412v617h-412v-617z
M0 718h512v-718h-512v718z" />
    <glyph glyph-name=".null" horiz-adv-x="0" 
 />
    <glyph glyph-name="nonmarkingreturn" horiz-adv-x="333" 
 />
    <glyph glyph-name="NULL" horiz-adv-x="0" 
 />
    <glyph glyph-name="NULL" horiz-adv-x="0" 
 />
    <glyph glyph-name="CR" unicode="&#xd;" horiz-adv-x="250" 
 />
    <glyph glyph-name="space" unicode=" " horiz-adv-x="250" 
 />
    <glyph glyph-name="exclam" unicode="!" horiz-adv-x="312" 
d="M185 708v-515h-57v515h57zM201 39q0 -18 -12.5 -31.5t-32.5 -13.5t-32.5 13.5t-12.5 31.5q0 19 12.5 32.5t32.5 13.5t32.5 -13.5t12.5 -32.5z" />
    <glyph glyph-name="quotedbl" unicode="&#x22;" horiz-adv-x="405" 
d="M106 475v233h48v-233h-48zM250 475v233h49v-233h-49z" />
    <glyph glyph-name="numbersign" unicode="#" horiz-adv-x="554" 
d="M108 0l30 222h-105v47h111l24 172h-109v47h116l29 220h48l-29 -220h144l30 220h48l-29 -220h96v-47h-103l-23 -172h100v-47h-107l-30 -222h-48l30 222h-145l-30 -222h-48zM216 441l-23 -172h144l23 172h-144z" />
    <glyph glyph-name="dollar" unicode="$" horiz-adv-x="574" 
d="M261 396v279q-59 -4 -98 -41t-39 -97q0 -104 137 -141zM301 328v-294q60 3 103 39.5t43 106.5q0 99 -146 148zM261 34v304q-88 27 -140 70.5t-52 124.5q0 82 54 131.5t138 55.5v72h40v-72q117 -2 183 -80l-36 -34q-58 69 -147 69v-293q49 -18 77.5 -31.5t61.5 -37.5
t48.5 -57.5t15.5 -79.5q0 -82 -57.5 -134t-145.5 -54v-72h-40v72q-127 4 -203 102l40 31q34 -43 78 -65t85 -22z" />
    <glyph glyph-name="percent" unicode="%" horiz-adv-x="829" 
d="M383 548q0 -72 -49 -121t-121 -49t-121.5 49t-49.5 121t49.5 121.5t121.5 49.5t121 -49.5t49 -121.5zM334 548q0 52 -35.5 87.5t-85.5 35.5q-51 0 -86.5 -35.5t-35.5 -87.5t35.5 -87t86.5 -35t86 35t35 87zM787 159q0 -72 -49.5 -121t-121.5 -49t-121 49t-49 121t49 121
t121 49t121.5 -49t49.5 -121zM738 159q0 52 -35.5 87.5t-86.5 35.5q-50 0 -85.5 -35.5t-35.5 -87.5t35 -87t86 -35t86.5 35t35.5 87zM657 716l-447 -746l-41 22l448 746z" />
    <glyph glyph-name="ampersand" unicode="&#x26;" horiz-adv-x="704" 
d="M652 379l-128 -221l151 -158h-78l-105 111q-45 -64 -97.5 -94.5t-123.5 -30.5q-92 0 -152.5 52.5t-60.5 144.5q0 74 43 124t122 87q-43 47 -65.5 86t-22.5 83q0 75 48 119t122 44q70 0 117 -42t47 -111q0 -64 -43.5 -108t-120.5 -82l180 -188l103 184h64zM413 571
q0 47 -31 77.5t-77 30.5q-50 0 -82 -32t-32 -84q0 -72 81 -146q66 32 103.5 67t37.5 87zM454 148l-198 209q-141 -65 -141 -175q0 -65 46 -106.5t113 -41.5q107 0 180 114z" />
    <glyph glyph-name="quotesingle" unicode="'" horiz-adv-x="260" 
d="M106 475v233h48v-233h-48z" />
    <glyph glyph-name="parenleft" unicode="(" horiz-adv-x="300" 
d="M97 288q0 -112 35 -221.5t96 -198.5l-43 -26q-140 202 -140 446q0 123 38 241t102 205l43 -26q-59 -84 -95 -196.5t-36 -223.5z" />
    <glyph glyph-name="parenright" unicode=")" horiz-adv-x="300" 
d="M202 288q0 111 -36 223.5t-95 196.5l43 26q64 -86 102.5 -205t38.5 -241t-38.5 -241t-102.5 -205l-43 26q59 82 95 195.5t36 224.5z" />
    <glyph glyph-name="asterisk" unicode="*" horiz-adv-x="444" 
d="M246 708v-151l147 47l16 -45l-148 -46l94 -127l-38 -29l-95 130l-95 -130l-38 29l94 127l-148 46l16 45l147 -47v151h48z" />
    <glyph glyph-name="plus" unicode="+" horiz-adv-x="666" 
d="M358 554v-227h223v-47h-223v-227h-49v227h-224v47h224v227h49z" />
    <glyph glyph-name="comma" unicode="," horiz-adv-x="254" 
d="M174 94l-76 -233h-45l64 233h57z" />
    <glyph glyph-name="hyphen" unicode="-" horiz-adv-x="314" 
d="M262 269v-46h-210v46h210z" />
    <glyph glyph-name="period" unicode="." horiz-adv-x="254" 
d="M172 40q0 -19 -12.5 -32.5t-32.5 -13.5t-32.5 13.5t-12.5 32.5q0 18 12.5 31.5t32.5 13.5t32.5 -13.5t12.5 -31.5z" />
    <glyph glyph-name="slash" unicode="/" horiz-adv-x="370" 
d="M360 711l-303 -728l-47 15l305 729z" />
    <glyph glyph-name="zero" unicode="0" horiz-adv-x="574" 
d="M287 724q64 0 110.5 -32t71 -87.5t35.5 -117.5t11 -134q0 -71 -11 -132.5t-35.5 -117t-71 -87.5t-110.5 -32t-110.5 32t-71 87.5t-35.5 117t-11 132.5q0 72 11 134t35.5 117.5t71 87.5t110.5 32zM287 675q-50 0 -86 -31t-53.5 -82t-24.5 -102t-7 -107t7 -106.5
t24.5 -101.5t53.5 -81.5t86 -30.5t85.5 30.5t53 81.5t25 101.5t7.5 106.5t-7.5 107t-25 102t-53 82t-85.5 31z" />
    <glyph glyph-name="one" unicode="1" horiz-adv-x="574" 
d="M344 708v-708h-57v638l-130 -111l-34 40l170 141h51z" />
    <glyph glyph-name="two" unicode="2" horiz-adv-x="574" 
d="M491 51v-51h-436v60l277 292q96 101 96 181q0 64 -42 103.5t-104 39.5q-57 0 -97.5 -34t-54.5 -91l-56 12q16 72 73 116.5t135 44.5q87 0 145.5 -50.5t58.5 -137.5q0 -62 -30 -111.5t-92 -114.5l-248 -259h375z" />
    <glyph glyph-name="three" unicode="3" horiz-adv-x="574" 
d="M215 347v49h29q73 0 120.5 34.5t47.5 105.5q0 62 -41.5 101t-102.5 39q-86 0 -139 -80l-43 28q63 100 184 100q84 0 141 -50t57 -135q0 -62 -35 -106.5t-95 -58.5v-2q70 -14 111 -62t41 -117q0 -93 -61.5 -151t-158.5 -58q-148 0 -213 132l47 24q53 -107 166 -107
q70 0 116.5 44.5t46.5 115.5q0 78 -56 116t-133 38h-29z" />
    <glyph glyph-name="four" unicode="4" horiz-adv-x="574" 
d="M424 708v-483h108v-50h-108v-175h-56v175h-326v57l306 476h76zM368 225v419h-2l-265 -419h267z" />
    <glyph glyph-name="five" unicode="5" horiz-adv-x="574" 
d="M466 708v-51h-296l-6 -236q41 19 105 19q100 0 163 -62t63 -160q0 -104 -65 -169t-164 -65q-139 0 -202 116l47 27q54 -94 152 -94q73 0 123.5 50.5t50.5 129.5q0 81 -51 130.5t-133 49.5q-72 0 -143 -38l7 353h349z" />
    <glyph glyph-name="six" unicode="6" horiz-adv-x="574" 
d="M383 708l-203 -324l2 -2q41 39 117 39q91 0 151.5 -61t60.5 -156q0 -98 -62.5 -159t-161.5 -61t-161 61t-62 159q0 88 62 190l191 314h66zM120 204q0 -75 47 -123.5t120 -48.5t120 48.5t47 123.5q0 74 -46 122.5t-119 48.5q-74 0 -121.5 -49t-47.5 -122z" />
    <glyph glyph-name="seven" unicode="7" horiz-adv-x="574" 
d="M486 708v-54l-288 -654h-64l295 657h-352v51h409z" />
    <glyph glyph-name="eight" unicode="8" horiz-adv-x="574" 
d="M370 378v-2q65 -19 102 -69.5t37 -119.5q0 -91 -64.5 -147t-157.5 -56t-157.5 56t-64.5 147q0 69 37.5 120t101.5 69v2q-50 18 -81 63t-31 99q0 82 56.5 133t138.5 51t138.5 -51t56.5 -133q0 -54 -31 -99t-81 -63zM148 537q0 -58 40 -97t99 -39t99 39t40 97
q0 60 -40 99.5t-99 39.5t-99 -39.5t-40 -99.5zM122 192q0 -70 45.5 -115t119.5 -45t119.5 45t45.5 115q0 69 -46.5 114t-118.5 45t-118.5 -45t-46.5 -114z" />
    <glyph glyph-name="nine" unicode="9" horiz-adv-x="574" 
d="M192 0l204 326l-2 2q-41 -39 -118 -39q-92 0 -152 60t-60 156t63.5 157.5t161.5 61.5t160 -61t62 -158q0 -90 -61 -189l-192 -316h-66zM455 505q0 74 -47 122.5t-120 48.5t-120 -48.5t-47 -122.5t46 -122t120 -48t121 48.5t47 121.5z" />
    <glyph glyph-name="colon" unicode=":" horiz-adv-x="294" 
d="M192 424q0 -19 -12.5 -32t-32.5 -13t-32.5 13t-12.5 32t12.5 32.5t32.5 13.5t32.5 -13.5t12.5 -32.5zM192 40q0 -19 -12.5 -32.5t-32.5 -13.5t-32.5 13.5t-12.5 32.5q0 18 12.5 31.5t32.5 13.5t32.5 -13.5t12.5 -31.5z" />
    <glyph glyph-name="semicolon" unicode=";" horiz-adv-x="294" 
d="M192 424q0 -19 -12.5 -32t-32.5 -13t-32.5 13t-12.5 32t12.5 32.5t32.5 13.5t32.5 -13.5t12.5 -32.5zM188 94l-76 -233h-47l64 233h59z" />
    <glyph glyph-name="less" unicode="&#x3c;" horiz-adv-x="666" 
d="M581 557v-49l-436 -205l436 -205v-49l-496 234v40z" />
    <glyph glyph-name="equal" unicode="=" horiz-adv-x="666" 
d="M85 405h496v-47h-496v47zM85 249h496v-48h-496v48z" />
    <glyph glyph-name="greater" unicode="&#x3e;" horiz-adv-x="666" 
d="M85 508v49l496 -234v-40l-496 -234v49l436 205z" />
    <glyph glyph-name="question" unicode="?" horiz-adv-x="479" 
d="M267 240v-46h-56v58q0 47 19 81t58 67l30 26q30 27 45.5 53.5t15.5 65.5q0 59 -38.5 93t-96.5 34q-57 0 -94.5 -34.5t-46.5 -90.5l-54 10q15 77 68 121t129 44q82 0 136 -46.5t54 -127.5q0 -58 -22.5 -93t-68.5 -71q-48 -40 -63 -66.5t-15 -77.5zM289 39
q0 -18 -12.5 -31.5t-31.5 -13.5q-20 0 -32.5 13.5t-12.5 31.5q0 19 12.5 32.5t32.5 13.5q19 0 31.5 -13.5t12.5 -32.5z" />
    <glyph glyph-name="at" unicode="@" horiz-adv-x="800" 
d="M418 502q-62 0 -100.5 -60t-38.5 -131q0 -41 20.5 -72.5t64.5 -31.5q45 0 78.5 35t47 77.5t13.5 80.5q0 44 -20 73t-65 29zM697 143l30 -36q-115 -126 -309 -126q-169 0 -274 105.5t-105 267.5q0 158 109.5 265.5t268.5 107.5q147 0 249 -86t102 -233q0 -114 -55.5 -181
t-139.5 -67q-43 0 -64 21t-21 57h-3q-15 -29 -49 -53.5t-79 -24.5q-63 0 -99.5 43.5t-36.5 110.5q0 91 56 163.5t143 72.5q40 0 67.5 -19t36.5 -50h4l13 53h50l-49 -201q-10 -34 -10 -74q0 -52 53 -52q60 0 94.5 56t34.5 140q0 127 -83 200.5t-215 73.5q-140 0 -229 -94
t-89 -232q0 -143 90 -232.5t235 -89.5q162 0 274 114z" />
    <glyph glyph-name="A" unicode="A" horiz-adv-x="690" 
d="M155 191l-80 -191h-63l307 708h57l301 -708h-63l-80 191h-379zM346 648l-170 -405h337z" />
    <glyph glyph-name="B" unicode="B" horiz-adv-x="629" 
d="M98 0v708h205q44 0 81.5 -8.5t71.5 -27.5t53.5 -55t19.5 -86q0 -60 -36.5 -101.5t-94.5 -54.5v-2q69 -6 117 -53.5t48 -125.5q0 -93 -70.5 -143.5t-182.5 -50.5h-212zM155 659v-265h152q66 0 115 32.5t49 100.5t-50 100t-129 32h-137zM155 346v-297h149q88 0 144.5 36.5
t56.5 110.5q0 75 -52 112.5t-137 37.5h-161z" />
    <glyph glyph-name="C" unicode="C" horiz-adv-x="721" 
d="M645 136l39 -31q-96 -124 -258 -124q-159 0 -262 105.5t-103 267.5t104 267.5t262 105.5q79 0 142.5 -26.5t101.5 -76.5l-41 -38q-32 40 -85.5 65t-116.5 25q-138 0 -222.5 -93t-84.5 -229q0 -134 84.5 -228t222.5 -94q133 0 217 104z" />
    <glyph glyph-name="D" unicode="D" horiz-adv-x="761" 
d="M98 0v708h224q73 0 139.5 -22t120.5 -64.5t86 -111.5t32 -156t-32 -156t-86 -111.5t-120.5 -64.5t-139.5 -22h-224zM155 657v-606h152q155 0 244 85t89 218t-89 218t-244 85h-152z" />
    <glyph glyph-name="E" unicode="E" horiz-adv-x="591" 
d="M154 343v-292h388v-51h-444v708h431v-51h-375v-264h351v-50h-351z" />
    <glyph glyph-name="F" unicode="F" horiz-adv-x="561" 
d="M155 342v-342h-57v708h420v-51h-363v-265h337v-50h-337z" />
    <glyph glyph-name="G" unicode="G" horiz-adv-x="784" 
d="M677 635l-36 -39q-80 80 -211 80q-139 0 -224 -93t-85 -228t85 -229t226 -94q122 0 203 48v234h-170v50h227v-316q-111 -67 -261 -67q-162 0 -266 106t-104 268q0 161 104.5 266.5t264.5 105.5q155 0 247 -92z" />
    <glyph glyph-name="H" unicode="H" horiz-adv-x="722" 
d="M98 0v708h57v-314h413v314h57v-708h-57v341h-413v-341h-57z" />
    <glyph glyph-name="I" unicode="I" horiz-adv-x="252" 
d="M155 708v-708h-57v708h57z" />
    <glyph glyph-name="J" unicode="J" horiz-adv-x="488" 
d="M26 116l53 15q12 -44 45 -71.5t80 -27.5q135 0 135 173v503h57v-507q0 -42 -9 -78.5t-29.5 -69.5t-58 -52t-89.5 -19q-71 0 -120 37.5t-64 96.5z" />
    <glyph glyph-name="K" unicode="K" horiz-adv-x="609" 
d="M155 708v-320l343 320h82l-358 -322l377 -386h-83l-361 378v-378h-57v708h57z" />
    <glyph glyph-name="L" unicode="L" horiz-adv-x="506" 
d="M155 708v-657h336v-51h-393v708h57z" />
    <glyph glyph-name="M" unicode="M" horiz-adv-x="892" 
d="M98 0v708h88l261 -613l259 613h88v-708h-57v635h-2l-273 -635h-32l-273 635h-2v-635h-57z" />
    <glyph glyph-name="N" unicode="N" horiz-adv-x="768" 
d="M170 708l441 -626h2v626h57v-708h-72l-441 630h-2v-630h-57v708h72z" />
    <glyph glyph-name="O" unicode="O" horiz-adv-x="857" 
d="M796 354q0 -162 -104.5 -267.5t-263.5 -105.5q-158 0 -262.5 105.5t-104.5 267.5t104.5 267.5t262.5 105.5q159 0 263.5 -105.5t104.5 -267.5zM736 354q0 136 -85 229t-223 93t-222.5 -93t-84.5 -229q0 -134 85 -228t222 -94q138 0 223 94t85 228z" />
    <glyph glyph-name="P" unicode="P" horiz-adv-x="578" 
d="M98 0v708h197q105 0 169 -45.5t64 -139.5q0 -90 -63 -139t-167 -49h-143v-335h-57zM155 659v-276h140q81 0 128.5 35.5t47.5 104.5q0 68 -48.5 102t-128.5 34h-139z" />
    <glyph glyph-name="Q" unicode="Q" horiz-adv-x="855" 
d="M121 362q0 -130 83 -221t217 -91q133 0 216.5 92.5t83.5 219.5q0 130 -84 222t-216 92q-134 0 -217 -91t-83 -223zM825 51v-51h-405q-154 0 -256.5 102t-102.5 260t102 261.5t258 103.5q153 0 256 -104t103 -261q0 -101 -51.5 -185.5t-139.5 -123.5v-2h236z" />
    <glyph glyph-name="R" unicode="R" horiz-adv-x="598" 
d="M155 339v-339h-57v708h204q236 0 236 -185q0 -80 -54 -127t-134 -53l209 -343h-69l-202 339h-133zM155 659v-271h139q91 0 139 34.5t48 100.5q0 136 -188 136h-138z" />
    <glyph glyph-name="S" unicode="S" horiz-adv-x="566" 
d="M491 643l-41 -37q-60 72 -156 72q-64 0 -114 -37.5t-50 -105.5q0 -42 20.5 -71t53.5 -45t72.5 -29t79 -28t72.5 -35.5t53.5 -57.5t20.5 -88q0 -96 -67 -148t-159 -52q-134 0 -214 102l40 35q74 -87 174 -87q67 0 117.5 39.5t50.5 107.5q0 48 -27.5 81t-68.5 48t-89.5 33
t-89.5 36.5t-68.5 59t-27.5 99.5q0 92 67 142t157 50q130 0 194 -84z" />
    <glyph glyph-name="T" unicode="T" horiz-adv-x="561" 
d="M309 657v-657h-57v657h-238v51h533v-51h-238z" />
    <glyph glyph-name="U" unicode="U" horiz-adv-x="717" 
d="M358 -19q-74 0 -128.5 25.5t-83 68.5t-41.5 90t-13 100v443h57v-436q0 -36 5.5 -68.5t20.5 -64.5t38 -55t60 -37.5t85 -14.5q58 0 101 21t65.5 56.5t33 76t10.5 86.5v436h57v-443q0 -53 -13 -100t-42 -90t-83.5 -68.5t-128.5 -25.5z" />
    <glyph glyph-name="V" unicode="V" horiz-adv-x="618" 
d="M69 708l239 -637h2l239 637h61l-270 -708h-64l-269 708h62z" />
    <glyph glyph-name="W" unicode="W" horiz-adv-x="967" 
d="M78 708l184 -633h2l184 633h71l185 -633h3l182 633h60l-210 -708h-69l-186 632h-2l-185 -632h-69l-210 708h60z" />
    <glyph glyph-name="X" unicode="X" horiz-adv-x="631" 
d="M95 0h-71l257 372l-234 336h71l198 -292l196 292h67l-231 -335l259 -373h-71l-221 327z" />
    <glyph glyph-name="Y" unicode="Y" horiz-adv-x="583" 
d="M320 306v-306h-57v306l-259 402h71l218 -353l219 353h66z" />
    <glyph glyph-name="Z" unicode="Z" horiz-adv-x="579" 
d="M536 708v-51l-428 -606h436v-51h-506v50l429 607h-418v51h487z" />
    <glyph glyph-name="bracketleft" unicode="[" horiz-adv-x="300" 
d="M220 732v-44h-103v-800h103v-44h-155v888h155z" />
    <glyph glyph-name="backslash" unicode="\" horiz-adv-x="370" 
d="M314 -17l-304 728l46 16l304 -729z" />
    <glyph glyph-name="bracketright" unicode="]" horiz-adv-x="300" 
d="M80 -156v44h103v800h-103v44h155v-888h-155z" />
    <glyph glyph-name="asciicircum" unicode="^" horiz-adv-x="666" 
d="M85 265l228 443h40l228 -443h-50l-198 389l-198 -389h-50z" />
    <glyph glyph-name="underscore" unicode="_" horiz-adv-x="500" 
d="M0 -122v41h500v-41h-500z" />
    <glyph glyph-name="grave" unicode="`" horiz-adv-x="240" 
d="M125 564l-126 144h72l101 -144h-47z" />
    <glyph glyph-name="a" unicode="a" horiz-adv-x="527" 
d="M218 -13q-62 0 -111 35t-49 104q0 48 23.5 80.5t66.5 48t88.5 21.5t104.5 6h47v21q0 130 -132 130q-81 0 -139 -55l-30 36q64 64 174 64q81 0 130 -43t49 -126v-204q0 -62 8 -105h-49q-8 48 -8 86h-2q-57 -99 -171 -99zM231 32q76 0 116.5 49.5t40.5 119.5v38h-35
q-239 0 -239 -110q0 -50 34.5 -73.5t82.5 -23.5z" />
    <glyph glyph-name="b" unicode="b" horiz-adv-x="634" 
d="M152 92h-3v-92h-54v756h54v-385h3q29 52 79 79.5t107 27.5q106 0 172 -69.5t66 -175.5t-66.5 -176t-171.5 -70q-56 0 -106.5 27.5t-79.5 77.5zM519 233q0 85 -50.5 142.5t-135.5 57.5q-82 0 -136 -57.5t-54 -142.5t54 -142t136 -57q85 0 135.5 57t50.5 142z" />
    <glyph glyph-name="c" unicode="c" horiz-adv-x="494" 
d="M466 405l-36 -33q-21 27 -56 43t-73 16q-83 0 -134.5 -56.5t-51.5 -141.5t50.5 -141t133.5 -56q80 0 136 56l34 -31q-63 -74 -170 -74q-108 0 -174 69.5t-66 176.5t67.5 176t173.5 69q108 0 166 -73z" />
    <glyph glyph-name="d" unicode="d" horiz-adv-x="634" 
d="M484 92h-2q-29 -50 -79.5 -77.5t-106.5 -27.5q-105 0 -171.5 70t-66.5 176q0 105 66.5 175t171.5 70q57 0 107 -27.5t79 -79.5h2v385h55v-756h-55v92zM115 233q0 -85 50.5 -142t135.5 -57q82 0 135.5 57t53.5 142t-53.5 142.5t-135.5 57.5q-85 0 -135.5 -57.5
t-50.5 -142.5z" />
    <glyph glyph-name="e" unicode="e" horiz-adv-x="567" 
d="M115 265h340q-4 76 -48 122t-119 46q-74 0 -122.5 -52.5t-50.5 -115.5zM294 -13q-103 0 -169.5 70t-66.5 177q0 105 66.5 174.5t164.5 69.5q105 0 162.5 -65.5t57.5 -162.5v-28h-395q2 -78 52 -133t130 -55q93 0 160 79l36 -29q-74 -97 -198 -97z" />
    <glyph glyph-name="f" unicode="f" horiz-adv-x="291" 
d="M282 466v-46h-114v-420h-55v420h-97v46h97v139q0 80 38.5 121.5t108.5 41.5q32 0 53 -7l-9 -45q-20 5 -45 5q-91 0 -91 -122v-133h114z" />
    <glyph glyph-name="g" unicode="g" horiz-adv-x="630" 
d="M74 -151l35 37q75 -81 186 -81q99 0 144 57.5t45 148.5v91h-2q-27 -50 -77.5 -78t-108.5 -28q-106 0 -172 67.5t-66 171.5q0 103 66.5 173t171.5 70q58 0 108 -27.5t78 -79.5h2v95h55v-455q0 -48 -11.5 -89.5t-37.5 -80.5t-76.5 -61.5t-120.5 -22.5q-133 0 -219 92z
M115 237q0 -82 50.5 -138.5t135.5 -56.5q82 0 135.5 55.5t53.5 139.5q0 80 -54 138t-135 58q-85 0 -135.5 -57t-50.5 -139z" />
    <glyph glyph-name="h" unicode="h" horiz-adv-x="579" 
d="M149 375h2q23 50 67 76.5t97 26.5q88 0 131.5 -53.5t43.5 -140.5v-284h-54v264q0 168 -133 168q-64 0 -109 -51t-45 -144v-237h-54v756h54v-381z" />
    <glyph glyph-name="i" unicode="i" horiz-adv-x="243" 
d="M149 466v-466h-55v466h55zM162 651q0 -17 -12.5 -29t-28.5 -12t-28 12t-12 29t12 29t28 12t28.5 -12t12.5 -29z" />
    <glyph glyph-name="j" unicode="j" horiz-adv-x="244" 
d="M-24 -234l8 45q22 -5 38 -5q44 0 58.5 27.5t14.5 79.5v553h54v-560q0 -68 -28 -107t-98 -39q-29 0 -47 6zM163 651q0 -17 -12.5 -29t-28.5 -12t-28 12t-12 29t12 29t28 12t28.5 -12t12.5 -29z" />
    <glyph glyph-name="k" unicode="k" horiz-adv-x="491" 
d="M149 756v-502h3l222 212h78l-238 -214l263 -252h-80l-245 245h-3v-245h-54v756h54z" />
    <glyph glyph-name="l" unicode="l" horiz-adv-x="244" 
d="M149 756v-756h-54v756h54z" />
    <glyph glyph-name="m" unicode="m" horiz-adv-x="885" 
d="M94 0v359q0 64 -4 107h52q4 -36 4 -93h2q20 48 63.5 76.5t93.5 28.5q111 0 149 -111h2q48 111 167 111q86 0 129.5 -53.5t43.5 -140.5v-284h-54v264q0 76 -30.5 122.5t-96.5 46.5q-70 0 -107.5 -54t-37.5 -136v-243h-55v274q0 159 -119 159q-60 0 -103.5 -52t-43.5 -144
v-237h-55z" />
    <glyph glyph-name="n" unicode="n" horiz-adv-x="578" 
d="M90 466h52q4 -36 4 -93h2q20 47 67 76t100 29q88 0 131 -53.5t43 -140.5v-284h-54v264q0 168 -132 168q-65 0 -109.5 -51t-44.5 -144v-237h-55v359q0 64 -4 107z" />
    <glyph glyph-name="o" unicode="o" horiz-adv-x="609" 
d="M550 233q0 -106 -69 -176t-177 -70q-107 0 -176 70t-69 176t69 175.5t176 69.5q108 0 177 -69.5t69 -175.5zM494 233q0 85 -52 141.5t-138 56.5q-85 0 -137 -56.5t-52 -141.5q0 -86 51.5 -141.5t137.5 -55.5t138 55.5t52 141.5z" />
    <glyph glyph-name="p" unicode="p" horiz-adv-x="632" 
d="M148 90v-330h-54v706h54v-93h3q29 52 78.5 78.5t106.5 26.5q107 0 173 -69.5t66 -175.5t-65.5 -176t-171.5 -70q-58 0 -108.5 26t-78.5 77h-3zM517 233q0 85 -50.5 142.5t-135.5 57.5q-81 0 -134.5 -57.5t-53.5 -142.5t53.5 -142t134.5 -57q85 0 135.5 57t50.5 142z" />
    <glyph glyph-name="q" unicode="q" horiz-adv-x="632" 
d="M484 92h-3q-27 -50 -77.5 -77.5t-107.5 -27.5q-105 0 -171.5 70t-66.5 176t66 175.5t172 69.5q57 0 107 -27.5t78 -79.5h3v95h55v-706h-55v332zM115 233q0 -85 50.5 -142t135.5 -57q81 0 134.5 57t53.5 142t-53.5 142.5t-134.5 57.5q-85 0 -135.5 -57.5t-50.5 -142.5z
" />
    <glyph glyph-name="r" unicode="r" horiz-adv-x="347" 
d="M94 0v359q0 64 -4 107h52q4 -36 4 -93h2q20 50 60.5 77.5t92.5 27.5q25 0 37 -4l-6 -50q-9 4 -38 4q-65 0 -105 -50.5t-40 -138.5v-239h-55z" />
    <glyph glyph-name="s" unicode="s" horiz-adv-x="435" 
d="M379 399l-42 -30q-38 64 -117 64q-42 0 -73.5 -20.5t-31.5 -60.5q0 -37 28 -56.5t89 -32.5q79 -18 117.5 -48.5t38.5 -85.5q0 -70 -49.5 -105.5t-119.5 -35.5q-119 0 -177 87l43 31q21 -33 56.5 -52.5t77.5 -19.5q48 0 81.5 22.5t33.5 68.5q0 34 -28 54t-67.5 30
t-79.5 21.5t-68 40.5t-28 77q0 64 46 97t113 33q109 0 157 -79z" />
    <glyph glyph-name="t" unicode="t" horiz-adv-x="313" 
d="M294 466v-46h-133v-295q0 -47 19 -66.5t55 -19.5q30 0 57 13l3 -47q-37 -13 -74 -13q-48 0 -81 28.5t-33 91.5v308h-98v46h97v133h55v-133h133z" />
    <glyph glyph-name="u" unicode="u" horiz-adv-x="578" 
d="M488 0h-53q-4 33 -4 92h-2q-20 -48 -66 -76.5t-100 -28.5q-88 0 -131.5 53.5t-43.5 140.5v285h55v-264q0 -169 132 -169q64 0 109 51.5t45 144.5v237h54v-359q0 -55 5 -107z" />
    <glyph glyph-name="v" unicode="v" horiz-adv-x="472" 
d="M453 466l-185 -466h-62l-188 466h61l158 -409h2l156 409h58z" />
    <glyph glyph-name="w" unicode="w" horiz-adv-x="732" 
d="M28 466h58l117 -398h2l133 398h55l135 -398h2l116 398h57l-144 -466h-61l-132 396h-2l-131 -396h-61z" />
    <glyph glyph-name="x" unicode="x" horiz-adv-x="474" 
d="M20 0l183 242l-169 224h70l133 -186l133 186h66l-167 -222l186 -244h-71l-148 205l-151 -205h-65z" />
    <glyph glyph-name="y" unicode="y" horiz-adv-x="470" 
d="M84 -241q-25 0 -55 7l7 49q22 -8 46 -8q34 0 54.5 21.5t36.5 63.5l40 105l-195 469h61l162 -411l2 2l150 409h59l-232 -596q-22 -55 -53 -83t-83 -28z" />
    <glyph glyph-name="z" unicode="z" horiz-adv-x="441" 
d="M393 466v-41l-286 -378h297v-47h-368v40l287 380h-272v46h342z" />
    <glyph glyph-name="braceleft" unicode="{" horiz-adv-x="300" 
d="M0 264v48q78 0 78 112v183q0 65 30 95t78 30h58v-44h-48q-65 0 -65 -89v-184q0 -62 -26.5 -92.5t-55.5 -33.5v-2q13 -3 25 -9.5t26 -20t22.5 -38.5t8.5 -58v-184q0 -89 65 -89h48v-44h-58q-48 0 -78 30t-30 95v183q0 112 -78 112z" />
    <glyph glyph-name="bar" unicode="|" horiz-adv-x="222" 
d="M87 750h48v-1000h-48v1000z" />
    <glyph glyph-name="braceright" unicode="}" horiz-adv-x="300" 
d="M300 312v-48q-78 0 -78 -112v-183q0 -65 -30 -95t-78 -30h-58v44h48q65 0 65 89v184q0 62 26 91.5t56 34.5v2q-28 3 -55 34t-27 92v184q0 89 -65 89h-48v44h58q48 0 78 -30t30 -95v-183q0 -112 78 -112z" />
    <glyph glyph-name="asciitilde" unicode="~" horiz-adv-x="666" 
d="M542 365l34 -33q-59 -92 -134 -92q-54 0 -108 35q-37 25 -59 34t-48 9q-61 0 -102 -76l-35 32q64 93 135 93q56 0 107 -35q64 -44 108 -44q54 0 102 77z" />
    <glyph glyph-name="uni00A0" unicode="&#xa0;" horiz-adv-x="250" 
 />
    <glyph glyph-name="exclamdown" unicode="&#xa1;" horiz-adv-x="312" 
d="M185 288v-515h-57v515h57zM201 442q0 -19 -12.5 -32.5t-32.5 -13.5t-32.5 13.5t-12.5 32.5t12.5 32t32.5 13t32.5 -13t12.5 -32z" />
    <glyph glyph-name="cent" unicode="&#xa2;" horiz-adv-x="574" 
d="M340 -72h-44v61q-95 10 -151.5 77t-56.5 167q0 98 57.5 165.5t150.5 77.5v64h44v-62q101 -5 155 -73l-36 -33q-44 54 -119 59v-395q74 4 124 56l34 -31q-62 -70 -158 -74v-59zM144 233q0 -76 41.5 -129.5t110.5 -65.5v390q-70 -12 -111 -66t-41 -129z" />
    <glyph glyph-name="sterling" unicode="&#xa3;" horiz-adv-x="574" 
d="M405 390v-48h-169v-294h261v-48h-422v48h104v294h-96v48h96v106q0 99 49.5 164.5t153.5 65.5q87 0 142 -55l-35 -40q-44 46 -109 46q-55 0 -89 -31t-44.5 -69.5t-10.5 -85.5v-101h169z" />
    <glyph glyph-name="currency" unicode="&#xa4;" horiz-adv-x="842" 
d="M711 560l-90 -90q53 -69 53 -161q0 -97 -57 -165l94 -94l-35 -35q-83 84 -95 94q-69 -53 -159 -53q-93 0 -160 55l-97 -96l-34 35l96 96q-55 64 -55 163q0 95 51 159l-92 92l35 35l92 -92q69 58 164 58q94 0 162 -57l91 91zM422 507q-86 0 -139.5 -57t-53.5 -141
t53.5 -142t139.5 -58t139.5 58t53.5 142t-53.5 141t-139.5 57z" />
    <glyph glyph-name="yen" unicode="&#xa5;" horiz-adv-x="574" 
d="M87 223h173v113h-173v43h156l-228 329h70l204 -309l202 309h68l-226 -329h154v-43h-173v-113h173v-44h-173v-179h-54v179h-173v44z" />
    <glyph glyph-name="brokenbar" unicode="&#xa6;" horiz-adv-x="222" 
d="M88 675h47v-344h-47v344zM88 170h47v-344h-47v344z" />
    <glyph glyph-name="section" unicode="&#xa7;" horiz-adv-x="574" 
d="M465 642l-46 -26q-31 63 -116 63q-52 0 -86 -27.5t-34 -74.5q0 -24 8 -42.5t26.5 -32t32 -20.5t41.5 -19l70 -33q56 -26 86 -59t30 -85t-29 -86t-74 -47q82 -44 82 -127q0 -77 -53 -118t-131 -41q-136 0 -188 101l51 27q39 -80 138 -80q50 0 88 26t38 80q0 69 -93 107
l-100 48q-52 21 -79.5 53t-27.5 85q0 50 32 85.5t80 48.5q-39 20 -62 47.5t-23 76.5q0 74 52 114.5t127 40.5q59 0 100.5 -23.5t59.5 -61.5zM313 394l-55 23q-40 -5 -71.5 -30t-31.5 -71q0 -42 27 -64.5t87 -46.5l59 -26q39 7 66 32t27 68q0 44 -27.5 68.5t-80.5 46.5z" />
    <glyph glyph-name="dieresis" unicode="&#xa8;" horiz-adv-x="240" 
d="M-13 651q0 18 12.5 30.5t30.5 12.5t30 -12.5t12 -30.5t-12 -31t-30 -13t-30.5 13t-12.5 31zM168 651q0 18 12 30.5t30 12.5t30.5 -12.5t12.5 -30.5t-12.5 -31t-30.5 -13t-30 13t-12 31z" />
    <glyph glyph-name="copyright" unicode="&#xa9;" horiz-adv-x="800" 
d="M532 239l41 -28q-56 -80 -161 -80q-96 0 -159.5 64t-63.5 162q0 97 63.5 161t159.5 64q46 0 88 -19.5t67 -53.5l-42 -32q-18 25 -48 41t-64 16q-75 0 -122 -52.5t-47 -124.5q0 -74 46 -126t122 -52q75 0 120 60zM20 353q0 157 111.5 267t269.5 110q157 0 268 -110
t111 -267q0 -156 -111 -265.5t-268 -109.5q-158 0 -269.5 109t-111.5 266zM69 353q0 -136 97 -232.5t235 -96.5q136 0 233 96.5t97 232.5q0 137 -97 234t-233 97q-138 0 -235 -97t-97 -234z" />
    <glyph glyph-name="ordfeminine" unicode="&#xaa;" horiz-adv-x="357" 
d="M251 605v9q0 69 -78 69q-54 0 -88 -34l-26 30q44 41 117 41q58 0 88.5 -29t30.5 -79v-123q0 -38 4 -58h-42q-5 25 -5 48h-2q-34 -55 -104 -55q-41 0 -72 21t-31 65q0 30 17 50.5t49.5 29.5t64.5 12t77 3zM251 572h-15q-146 0 -146 -61q0 -50 67 -50q44 0 69 26t25 66v19z
" />
    <glyph glyph-name="guillemotleft" unicode="&#xab;" horiz-adv-x="482" 
d="M233 418l-114 -179l115 -179l-38 -26l-135 205l135 205zM411 418l-115 -179l115 -179l-38 -26l-135 205l135 205z" />
    <glyph glyph-name="logicalnot" unicode="&#xac;" horiz-adv-x="666" 
d="M584 405v-274h-49v227h-452v47h501z" />
    <glyph glyph-name="uni00AD" unicode="&#xad;" horiz-adv-x="314" 
d="M262 269v-46h-210v46h210z" />
    <glyph glyph-name="registered" unicode="&#xae;" horiz-adv-x="600" 
d="M72 493q0 94 67 160.5t161 66.5t161 -66.5t67 -160.5q0 -93 -67 -159t-161 -66t-161 66t-67 159zM104 493q0 -80 57.5 -138t138.5 -58t138.5 58t57.5 138q0 81 -57.5 138.5t-138.5 57.5t-138.5 -57.5t-57.5 -138.5zM215 367v255h88q40 0 65.5 -18t25.5 -56q0 -56 -61 -68
l71 -113h-47l-64 108h-40v-108h-38zM253 506h41q62 0 62 43q0 40 -54 40h-49v-83z" />
    <glyph glyph-name="macron" unicode="&#xaf;" horiz-adv-x="240" 
d="M249 650v-44h-258v44h258z" />
    <glyph glyph-name="degree" unicode="&#xb0;" horiz-adv-x="400" 
d="M348 571q0 -63 -42.5 -105.5t-105.5 -42.5t-105.5 42.5t-42.5 105.5t42.5 105.5t105.5 42.5t105.5 -42.5t42.5 -105.5zM308 571q0 45 -31.5 76.5t-76.5 31.5t-76.5 -31.5t-31.5 -76.5t31.5 -76.5t76.5 -31.5t76.5 31.5t31.5 76.5z" />
    <glyph glyph-name="plusminus" unicode="&#xb1;" horiz-adv-x="666" 
d="M83 346v48h225v168h48v-168h228v-48h-227v-164h-49v164h-225zM84 48v48h498v-48h-498z" />
    <glyph glyph-name="twosuperior" unicode="&#xb2;" 
d="M313 496v-44h-268v46l163 169q51 51 52 100q0 33 -21 52t-54 19q-66 0 -83 -71l-47 8q10 49 45.5 78t84.5 29q56 0 91 -30t35 -83q0 -39 -18 -68t-57 -69l-132 -136h209z" />
    <glyph glyph-name="threesuperior" unicode="&#xb3;" 
d="M174 444q-98 0 -135 88l45 16q12 -29 36 -45t54 -16q38 0 62.5 22t24.5 61q0 41 -30 61t-73 20h-24v41h24q42 0 66.5 20t24.5 58q0 31 -22 50.5t-54 19.5q-52 0 -78 -48l-39 21q41 69 119 69q55 0 88 -29.5t33 -82.5q0 -69 -64 -94l-3 -2q80 -24 80 -105q0 -59 -39 -92
t-96 -33z" />
    <glyph glyph-name="acute" unicode="&#xb4;" horiz-adv-x="240" 
d="M241 708l-126 -144h-47l101 144h72z" />
    <glyph glyph-name="mu" unicode="&#xb5;" horiz-adv-x="556" 
d="M79 -228v694h52v-264q0 -83 30.5 -125t102.5 -42q66 0 110 52t44 142v237h53v-359q0 -64 4 -107h-57v89h-2q-22 -45 -67.5 -73.5t-96.5 -28.5q-77 0 -121 46v-261h-52z" />
    <glyph glyph-name="paragraph" unicode="&#xb6;" horiz-adv-x="600" 
d="M506 708v-834h-53v791h-133v-791h-53v449q-92 0 -151.5 53.5t-59.5 130.5q0 96 60 148.5t167 52.5h223z" />
    <glyph glyph-name="periodcentered" unicode="&#xb7;" horiz-adv-x="254" 
d="M172 296q0 -19 -12.5 -32t-32.5 -13t-32.5 13t-12.5 32t12.5 32.5t32.5 13.5t32.5 -13.5t12.5 -32.5z" />
    <glyph glyph-name="cedilla" unicode="&#xb8;" horiz-adv-x="240" 
d="M150 0l-50 -78q15 5 40 5q33 0 58.5 -18.5t25.5 -52.5q0 -31 -19 -51.5t-43.5 -27t-53.5 -6.5q-50 0 -93 20l13 31q33 -16 76 -16q26 0 49 12t23 37q0 43 -60 43q-30 0 -51 -10l-15 13l64 99h36z" />
    <glyph glyph-name="onesuperior" unicode="&#xb9;" 
d="M220 873v-421h-50v361l-73 -59l-30 34l111 85h42z" />
    <glyph glyph-name="ordmasculine" unicode="&#xba;" horiz-adv-x="357" 
d="M328 572q0 -64 -42 -106t-107 -42q-66 0 -108 41.5t-42 106.5t42 106.5t108 41.5q65 0 107 -41.5t42 -106.5zM281 572q0 47 -27 79t-75 32q-49 0 -76 -32t-27 -79t27 -79t76 -32q48 0 75 32t27 79z" />
    <glyph glyph-name="guillemotright" unicode="&#xbb;" horiz-adv-x="482" 
d="M248 60l115 179l-115 179l38 27l135 -206l-135 -205zM71 60l115 179l-115 179l38 27l135 -206l-135 -205z" />
    <glyph glyph-name="onequarter" unicode="&#xbc;" horiz-adv-x="828" 
d="M707 423v-279h63v-43h-63v-101h-44v101h-190v43l178 279h56zM663 359h-3l-137 -215h140v215zM220 708v-421h-50v361l-73 -59l-30 34l111 85h42zM651 716l-447 -746l-42 22l448 746z" />
    <glyph glyph-name="onehalf" unicode="&#xbd;" horiz-adv-x="828" 
d="M220 708v-421h-50v361l-73 -59l-30 34l111 85h42zM651 716l-447 -746l-42 22l448 746zM768 44v-44h-268v46l163 169q51 51 52 100q0 33 -21 52t-54 19q-66 0 -83 -71l-47 8q10 49 45.5 78t84.5 29q56 0 91 -30t35 -83q0 -39 -18 -68t-57 -69l-132 -136h209z" />
    <glyph glyph-name="threequarters" unicode="&#xbe;" horiz-adv-x="828" 
d="M663 0v101h-190v43l178 279h56v-279h63v-43h-63v-101h-44zM174 282q-98 0 -135 88l45 16q12 -29 36 -45t54 -16q38 0 62.5 22t24.5 61q0 41 -30 61t-73 20h-24v41h24q42 0 66.5 20t24.5 58q0 31 -22 50.5t-54 19.5q-52 0 -78 -48l-39 21q41 69 119 69q55 0 88 -29.5
t33 -82.5q0 -71 -67 -96l1 -1q37 -10 58 -37.5t21 -66.5q0 -59 -39 -92t-96 -33zM523 144h140v215h-3zM651 716l-447 -746l-42 22l448 746z" />
    <glyph glyph-name="questiondown" unicode="&#xbf;" horiz-adv-x="479" 
d="M216 241v46h56v-58q0 -47 -19.5 -81t-57.5 -67l-30 -26q-30 -27 -45.5 -53.5t-15.5 -65.5q0 -59 38.5 -93t96.5 -34q57 0 94.5 34.5t45.5 90.5l54 -9q-14 -77 -67 -121.5t-129 -44.5q-82 0 -136 46.5t-54 127.5q0 41 14 72.5t29.5 48t47.5 43.5q47 41 62.5 67.5
t15.5 76.5zM194 442q0 19 12 32t32 13t32.5 -13t12.5 -32t-12.5 -32.5t-32.5 -13.5q-19 0 -31.5 13.5t-12.5 32.5z" />
    <glyph glyph-name="Agrave" unicode="&#xc0;" horiz-adv-x="690" 
d="M155 191l-80 -191h-63l307 708h57l301 -708h-63l-80 191h-379zM346 648l-170 -405h337zM327 764l-126 144h72l101 -144h-47z" />
    <glyph glyph-name="Aacute" unicode="&#xc1;" horiz-adv-x="690" 
d="M155 191l-80 -191h-63l307 708h57l301 -708h-63l-80 191h-379zM346 648l-170 -405h337zM494 908l-126 -144h-47l101 144h72z" />
    <glyph glyph-name="Acircumflex" unicode="&#xc2;" horiz-adv-x="690" 
d="M155 191l-80 -191h-63l307 708h57l301 -708h-63l-80 191h-379zM346 648l-170 -405h337zM377 908l107 -144h-53l-86 115l-86 -115h-53l107 144h64z" />
    <glyph glyph-name="Atilde" unicode="&#xc3;" horiz-adv-x="690" 
d="M155 191l-80 -191h-63l307 708h57l301 -708h-63l-80 191h-379zM346 648l-170 -405h337zM233 781h-35q15 94 82 94q23 0 71.5 -23.5t63.5 -23.5q33 0 46 49h35q-15 -93 -81 -93q-23 0 -71 23.5t-64 23.5q-34 0 -47 -50z" />
    <glyph glyph-name="Adieresis" unicode="&#xc4;" horiz-adv-x="690" 
d="M155 191l-80 -191h-63l307 708h57l301 -708h-63l-80 191h-379zM346 648l-170 -405h337zM214 851q0 18 12.5 30.5t30.5 12.5t30 -12.5t12 -30.5t-12 -31t-30 -13t-30.5 13t-12.5 31zM395 851q0 18 12 30.5t30 12.5t30.5 -12.5t12.5 -30.5t-12.5 -31t-30.5 -13t-30 13
t-12 31z" />
    <glyph glyph-name="Aring" unicode="&#xc5;" horiz-adv-x="690" 
d="M155 191l-80 -191h-63l307 708h57l301 -708h-63l-80 191h-379zM346 648l-170 -405h337zM442 850q0 -40 -28.5 -67.5t-67.5 -27.5t-67.5 27.5t-28.5 67.5q0 39 28.5 67t67.5 28t67.5 -28t28.5 -67zM411 850q0 27 -19 46t-46 19t-46 -19t-19 -46t19 -46t46 -19t46 19t19 46
z" />
    <glyph glyph-name="AE" unicode="&#xc6;" horiz-adv-x="983" 
d="M568 343v-292h361v-51h-418v200h-298l-130 -200h-65l460 708h437v-51h-347v-264h323v-50h-323zM243 251h268v406h-6z" />
    <glyph glyph-name="Ccedilla" unicode="&#xc7;" horiz-adv-x="721" 
d="M645 136l39 -31q-95 -123 -255 -124l-38 -59q15 5 40 5q33 0 58.5 -18.5t25.5 -52.5q0 -31 -19 -51.5t-43.5 -27t-53.5 -6.5q-50 0 -93 20l13 31q33 -16 76 -16q26 0 49 12t23 37q0 43 -60 43q-30 0 -51 -10l-15 13l52 81q-147 12 -239.5 115t-92.5 257q0 162 104 267.5
t262 105.5q79 0 142.5 -26.5t101.5 -76.5l-41 -38q-32 40 -85.5 65t-116.5 25q-138 0 -222.5 -93t-84.5 -229q0 -134 84.5 -228t222.5 -94q133 0 217 104z" />
    <glyph glyph-name="Egrave" unicode="&#xc8;" horiz-adv-x="591" 
d="M154 343v-292h388v-51h-444v708h431v-51h-375v-264h351v-50h-351zM317 764l-126 144h72l101 -144h-47z" />
    <glyph glyph-name="Eacute" unicode="&#xc9;" horiz-adv-x="591" 
d="M154 343v-292h388v-51h-444v708h431v-51h-375v-264h351v-50h-351zM445 908l-126 -144h-47l101 144h72z" />
    <glyph glyph-name="Ecircumflex" unicode="&#xca;" horiz-adv-x="591" 
d="M154 343v-292h388v-51h-444v708h431v-51h-375v-264h351v-50h-351zM347 908l107 -144h-53l-86 115l-86 -115h-53l107 144h64z" />
    <glyph glyph-name="Edieresis" unicode="&#xcb;" horiz-adv-x="591" 
d="M154 343v-292h388v-51h-444v708h431v-51h-375v-264h351v-50h-351zM183 851q0 18 12.5 30.5t30.5 12.5t30 -12.5t12 -30.5t-12 -31t-30 -13t-30.5 13t-12.5 31zM364 851q0 18 12 30.5t30 12.5t30.5 -12.5t12.5 -30.5t-12.5 -31t-30.5 -13t-30 13t-12 31z" />
    <glyph glyph-name="Igrave" unicode="&#xcc;" horiz-adv-x="252" 
d="M155 708v-708h-57v708h57zM107 764l-126 144h72l101 -144h-47z" />
    <glyph glyph-name="Iacute" unicode="&#xcd;" horiz-adv-x="252" 
d="M155 708v-708h-57v708h57zM270 908l-126 -144h-47l101 144h72z" />
    <glyph glyph-name="Icircumflex" unicode="&#xce;" horiz-adv-x="252" 
d="M155 708v-708h-57v708h57zM157 908l107 -144h-53l-86 115l-86 -115h-53l107 144h64z" />
    <glyph glyph-name="Idieresis" unicode="&#xcf;" horiz-adv-x="252" 
d="M155 708v-708h-57v708h57zM-7 851q0 18 12.5 30.5t30.5 12.5t30 -12.5t12 -30.5t-12 -31t-30 -13t-30.5 13t-12.5 31zM174 851q0 18 12 30.5t30 12.5t30.5 -12.5t12.5 -30.5t-12.5 -31t-30.5 -13t-30 13t-12 31z" />
    <glyph glyph-name="Eth" unicode="&#xd0;" horiz-adv-x="761" 
d="M92 0v350h-75v44h75v314h225q73 0 139.5 -22t120 -64.5t85.5 -111.5t32 -156t-32 -156t-85.5 -111.5t-120 -64.5t-139.5 -22h-225zM149 350v-298h150q156 0 245 84.5t89 217.5t-89 217.5t-245 84.5h-150v-262h261v-44h-261z" />
    <glyph glyph-name="Ntilde" unicode="&#xd1;" horiz-adv-x="768" 
d="M170 708l441 -626h2v626h57v-708h-72l-441 630h-2v-630h-57v708h72zM274 781h-35q15 94 82 94q23 0 71.5 -23.5t63.5 -23.5q33 0 46 49h35q-15 -93 -81 -93q-23 0 -71 23.5t-64 23.5q-34 0 -47 -50z" />
    <glyph glyph-name="Ograve" unicode="&#xd2;" horiz-adv-x="857" 
d="M796 354q0 -162 -104.5 -267.5t-263.5 -105.5q-158 0 -262.5 105.5t-104.5 267.5t104.5 267.5t262.5 105.5q159 0 263.5 -105.5t104.5 -267.5zM736 354q0 136 -85 229t-223 93t-222.5 -93t-84.5 -229q0 -134 85 -228t222 -94q138 0 223 94t85 228zM443 764l-126 144h72
l101 -144h-47z" />
    <glyph glyph-name="Oacute" unicode="&#xd3;" horiz-adv-x="857" 
d="M796 354q0 -162 -104.5 -267.5t-263.5 -105.5q-158 0 -262.5 105.5t-104.5 267.5t104.5 267.5t262.5 105.5q159 0 263.5 -105.5t104.5 -267.5zM736 354q0 136 -85 229t-223 93t-222.5 -93t-84.5 -229q0 -134 85 -228t222 -94q138 0 223 94t85 228zM553 908l-126 -144h-47
l101 144h72z" />
    <glyph glyph-name="Ocircumflex" unicode="&#xd4;" horiz-adv-x="857" 
d="M796 354q0 -162 -104.5 -267.5t-263.5 -105.5q-158 0 -262.5 105.5t-104.5 267.5t104.5 267.5t262.5 105.5q159 0 263.5 -105.5t104.5 -267.5zM736 354q0 136 -85 229t-223 93t-222.5 -93t-84.5 -229q0 -134 85 -228t222 -94q138 0 223 94t85 228zM460 908l107 -144h-53
l-86 115l-86 -115h-53l107 144h64z" />
    <glyph glyph-name="Otilde" unicode="&#xd5;" horiz-adv-x="857" 
d="M796 354q0 -162 -104.5 -267.5t-263.5 -105.5q-158 0 -262.5 105.5t-104.5 267.5t104.5 267.5t262.5 105.5q159 0 263.5 -105.5t104.5 -267.5zM736 354q0 136 -85 229t-223 93t-222.5 -93t-84.5 -229q0 -134 85 -228t222 -94q138 0 223 94t85 228zM315 781h-35
q15 94 82 94q23 0 71.5 -23.5t63.5 -23.5q33 0 46 49h35q-15 -93 -81 -93q-23 0 -71 23.5t-64 23.5q-34 0 -47 -50z" />
    <glyph glyph-name="Odieresis" unicode="&#xd6;" horiz-adv-x="857" 
d="M796 354q0 -162 -104.5 -267.5t-263.5 -105.5q-158 0 -262.5 105.5t-104.5 267.5t104.5 267.5t262.5 105.5q159 0 263.5 -105.5t104.5 -267.5zM736 354q0 136 -85 229t-223 93t-222.5 -93t-84.5 -229q0 -134 85 -228t222 -94q138 0 223 94t85 228zM296 851
q0 18 12.5 30.5t30.5 12.5t30 -12.5t12 -30.5t-12 -31t-30 -13t-30.5 13t-12.5 31zM477 851q0 18 12 30.5t30 12.5t30.5 -12.5t12.5 -30.5t-12.5 -31t-30.5 -13t-30 13t-12 31z" />
    <glyph glyph-name="multiply" unicode="&#xd7;" horiz-adv-x="666" 
d="M168 504l165 -165l165 165l34 -34l-165 -166l165 -165l-34 -34l-165 165l-165 -165l-33 34l165 165l-165 166z" />
    <glyph glyph-name="Oslash" unicode="&#xd8;" horiz-adv-x="857" 
d="M763 699l-73 -81q102 -107 102 -264q0 -162 -104.5 -267.5t-263.5 -105.5q-136 0 -237 83l-74 -80l-30 28l73 81q-99 102 -99 261q0 162 104.5 267.5t262.5 105.5q135 0 235 -81l74 80zM652 576l-428 -472q82 -72 200 -72q139 0 223.5 93.5t84.5 228.5q0 134 -80 222z
M195 134l428 472q-81 70 -199 70q-138 0 -222.5 -93t-84.5 -229q0 -133 78 -220z" />
    <glyph glyph-name="Ugrave" unicode="&#xd9;" horiz-adv-x="717" 
d="M358 -19q-74 0 -128.5 25.5t-83 68.5t-41.5 90t-13 100v443h57v-436q0 -36 5.5 -68.5t20.5 -64.5t38 -55t60 -37.5t85 -14.5q58 0 101 21t65.5 56.5t33 76t10.5 86.5v436h57v-443q0 -53 -13 -100t-42 -90t-83.5 -68.5t-128.5 -25.5zM364 764l-126 144h72l101 -144h-47z
" />
    <glyph glyph-name="Uacute" unicode="&#xda;" horiz-adv-x="717" 
d="M358 -19q-74 0 -128.5 25.5t-83 68.5t-41.5 90t-13 100v443h57v-436q0 -36 5.5 -68.5t20.5 -64.5t38 -55t60 -37.5t85 -14.5q58 0 101 21t65.5 56.5t33 76t10.5 86.5v436h57v-443q0 -53 -13 -100t-42 -90t-83.5 -68.5t-128.5 -25.5zM484 908l-126 -144h-47l101 144h72z
" />
    <glyph glyph-name="Ucircumflex" unicode="&#xdb;" horiz-adv-x="717" 
d="M358 -19q-74 0 -128.5 25.5t-83 68.5t-41.5 90t-13 100v443h57v-436q0 -36 5.5 -68.5t20.5 -64.5t38 -55t60 -37.5t85 -14.5q58 0 101 21t65.5 56.5t33 76t10.5 86.5v436h57v-443q0 -53 -13 -100t-42 -90t-83.5 -68.5t-128.5 -25.5zM390 908l107 -144h-53l-86 115
l-86 -115h-53l107 144h64z" />
    <glyph glyph-name="Udieresis" unicode="&#xdc;" horiz-adv-x="717" 
d="M358 -19q-74 0 -128.5 25.5t-83 68.5t-41.5 90t-13 100v443h57v-436q0 -36 5.5 -68.5t20.5 -64.5t38 -55t60 -37.5t85 -14.5q58 0 101 21t65.5 56.5t33 76t10.5 86.5v436h57v-443q0 -53 -13 -100t-42 -90t-83.5 -68.5t-128.5 -25.5zM226 851q0 18 12.5 30.5t30.5 12.5
t30 -12.5t12 -30.5t-12 -31t-30 -13t-30.5 13t-12.5 31zM407 851q0 18 12 30.5t30 12.5t30.5 -12.5t12.5 -30.5t-12.5 -31t-30.5 -13t-30 13t-12 31z" />
    <glyph glyph-name="Yacute" unicode="&#xdd;" horiz-adv-x="583" 
d="M320 306v-306h-57v306l-259 402h71l218 -353l219 353h66zM441 908l-126 -144h-47l101 144h72z" />
    <glyph glyph-name="Thorn" unicode="&#xde;" horiz-adv-x="578" 
d="M98 0v708h57v-156h140q105 0 169 -45.5t64 -139.5q0 -90 -63 -139t-167 -49h-143v-179h-57zM155 502v-273h136q82 0 129 34.5t47 103.5t-48 102t-130 33h-134z" />
    <glyph glyph-name="germandbls" unicode="&#xdf;" horiz-adv-x="595" 
d="M146 540v-540h-54v542q0 45 11 83.5t34 71.5t64.5 52t97.5 19q79 0 134 -48t55 -128q0 -123 -122 -161v-2q78 -10 126 -65t48 -145q0 -104 -64 -167t-171 -63q-32 0 -53 4v46q20 -4 48 -4q84 0 133.5 49.5t49.5 135.5q0 90 -54 137t-144 47h-11v48h11q66 0 107 35t41 101
q0 62 -38.5 97t-97.5 35q-44 0 -75 -16t-46.5 -44t-22.5 -57t-7 -63z" />
    <glyph glyph-name="agrave" unicode="&#xe0;" horiz-adv-x="527" 
d="M218 -13q-62 0 -111 35t-49 104q0 48 23.5 80.5t66.5 48t88.5 21.5t104.5 6h47v21q0 130 -132 130q-81 0 -139 -55l-30 36q64 64 174 64q81 0 130 -43t49 -126v-204q0 -62 8 -105h-49q-8 48 -8 86h-2q-57 -99 -171 -99zM231 32q76 0 116.5 49.5t40.5 119.5v38h-35
q-239 0 -239 -110q0 -50 34.5 -73.5t82.5 -23.5zM276 564l-126 144h72l101 -144h-47z" />
    <glyph glyph-name="aacute" unicode="&#xe1;" horiz-adv-x="527" 
d="M218 -13q-62 0 -111 35t-49 104q0 48 23.5 80.5t66.5 48t88.5 21.5t104.5 6h47v21q0 130 -132 130q-81 0 -139 -55l-30 36q64 64 174 64q81 0 130 -43t49 -126v-204q0 -62 8 -105h-49q-8 48 -8 86h-2q-57 -99 -171 -99zM231 32q76 0 116.5 49.5t40.5 119.5v38h-35
q-239 0 -239 -110q0 -50 34.5 -73.5t82.5 -23.5zM393 708l-126 -144h-47l101 144h72z" />
    <glyph glyph-name="acircumflex" unicode="&#xe2;" horiz-adv-x="527" 
d="M218 -13q-62 0 -111 35t-49 104q0 48 23.5 80.5t66.5 48t88.5 21.5t104.5 6h47v21q0 130 -132 130q-81 0 -139 -55l-30 36q64 64 174 64q81 0 130 -43t49 -126v-204q0 -62 8 -105h-49q-8 48 -8 86h-2q-57 -99 -171 -99zM231 32q76 0 116.5 49.5t40.5 119.5v38h-35
q-239 0 -239 -110q0 -50 34.5 -73.5t82.5 -23.5zM294 708l107 -144h-53l-86 115l-86 -115h-53l107 144h64z" />
    <glyph glyph-name="atilde" unicode="&#xe3;" horiz-adv-x="527" 
d="M218 -13q-62 0 -111 35t-49 104q0 48 23.5 80.5t66.5 48t88.5 21.5t104.5 6h47v21q0 130 -132 130q-81 0 -139 -55l-30 36q64 64 174 64q81 0 130 -43t49 -126v-204q0 -62 8 -105h-49q-8 48 -8 86h-2q-57 -99 -171 -99zM231 32q76 0 116.5 49.5t40.5 119.5v38h-35
q-239 0 -239 -110q0 -50 34.5 -73.5t82.5 -23.5zM147 581h-35q15 94 82 94q23 0 71.5 -23.5t63.5 -23.5q33 0 46 49h35q-15 -93 -81 -93q-23 0 -71 23.5t-64 23.5q-34 0 -47 -50z" />
    <glyph glyph-name="adieresis" unicode="&#xe4;" horiz-adv-x="527" 
d="M218 -13q-62 0 -111 35t-49 104q0 48 23.5 80.5t66.5 48t88.5 21.5t104.5 6h47v21q0 130 -132 130q-81 0 -139 -55l-30 36q64 64 174 64q81 0 130 -43t49 -126v-204q0 -62 8 -105h-49q-8 48 -8 86h-2q-57 -99 -171 -99zM231 32q76 0 116.5 49.5t40.5 119.5v38h-35
q-239 0 -239 -110q0 -50 34.5 -73.5t82.5 -23.5zM129 651q0 18 12.5 30.5t30.5 12.5t30 -12.5t12 -30.5t-12 -31t-30 -13t-30.5 13t-12.5 31zM310 651q0 18 12 30.5t30 12.5t30.5 -12.5t12.5 -30.5t-12.5 -31t-30.5 -13t-30 13t-12 31z" />
    <glyph glyph-name="aring" unicode="&#xe5;" horiz-adv-x="527" 
d="M218 -13q-62 0 -111 35t-49 104q0 48 23.5 80.5t66.5 48t88.5 21.5t104.5 6h47v21q0 130 -132 130q-81 0 -139 -55l-30 36q64 64 174 64q81 0 130 -43t49 -126v-204q0 -62 8 -105h-49q-8 48 -8 86h-2q-57 -99 -171 -99zM231 32q76 0 116.5 49.5t40.5 119.5v38h-35
q-239 0 -239 -110q0 -50 34.5 -73.5t82.5 -23.5zM357 650q0 -40 -28.5 -67.5t-67.5 -27.5t-67.5 27.5t-28.5 67.5q0 39 28.5 67t67.5 28t67.5 -28t28.5 -67zM326 650q0 27 -19 46t-46 19t-46 -19t-19 -46t19 -46t46 -19t46 19t19 46z" />
    <glyph glyph-name="ae" unicode="&#xe6;" horiz-adv-x="873" 
d="M225 -13q-68 0 -117 33.5t-49 100.5q0 44 23 73.5t65.5 44t85.5 20.5t101 7h54v24q0 67 -33 105t-97 38q-82 0 -144 -55l-31 35q31 30 80 47.5t102 17.5q63 0 104 -29t56 -80q27 50 75 79.5t105 29.5q100 0 155 -65.5t55 -162.5q0 -21 -1 -28h-375q0 -77 48 -132.5
t124 -55.5q49 0 87.5 22.5t61.5 58.5l39 -31q-73 -96 -188 -96q-68 0 -117.5 32.5t-73.5 90.5q-41 -124 -195 -124zM233 32q78 0 116.5 42.5t38.5 110.5v37h-36q-52 0 -89 -3.5t-73.5 -13t-55.5 -30.5t-19 -53q0 -90 118 -90zM441 266h319q0 74 -42.5 120.5t-112.5 46.5
q-69 0 -115.5 -53t-48.5 -114z" />
    <glyph glyph-name="ccedilla" unicode="&#xe7;" horiz-adv-x="494" 
d="M466 405l-36 -33q-21 27 -56 44t-73 17q-83 0 -134.5 -57t-51.5 -143q0 -85 51 -142t133 -57q78 0 136 58l34 -31q-62 -70 -159 -74l-41 -65q15 5 40 5q33 0 58.5 -18.5t25.5 -52.5q0 -31 -19 -51.5t-43.5 -27t-53.5 -6.5q-50 0 -93 20l13 31q33 -16 76 -16q26 0 49 12
t23 37q0 43 -60 43q-30 0 -51 -10l-15 13l56 87q-99 8 -158 76t-59 169q0 107 67.5 176t174.5 69q108 0 166 -73z" />
    <glyph glyph-name="egrave" unicode="&#xe8;" horiz-adv-x="567" 
d="M115 265h340q-4 76 -48 122t-119 46q-74 0 -122.5 -52.5t-50.5 -115.5zM294 -13q-103 0 -169.5 70t-66.5 177q0 105 66.5 174.5t164.5 69.5q105 0 162.5 -65.5t57.5 -162.5v-28h-395q2 -78 52 -133t130 -55q93 0 160 79l36 -29q-74 -97 -198 -97zM286 564l-126 144h72
l101 -144h-47z" />
    <glyph glyph-name="eacute" unicode="&#xe9;" horiz-adv-x="567" 
d="M115 265h340q-4 76 -48 122t-119 46q-74 0 -122.5 -52.5t-50.5 -115.5zM294 -13q-103 0 -169.5 70t-66.5 177q0 105 66.5 174.5t164.5 69.5q105 0 162.5 -65.5t57.5 -162.5v-28h-395q2 -78 52 -133t130 -55q93 0 160 79l36 -29q-74 -97 -198 -97zM426 708l-126 -144h-47
l101 144h72z" />
    <glyph glyph-name="ecircumflex" unicode="&#xea;" horiz-adv-x="567" 
d="M115 265h340q-4 76 -48 122t-119 46q-74 0 -122.5 -52.5t-50.5 -115.5zM294 -13q-103 0 -169.5 70t-66.5 177q0 105 66.5 174.5t164.5 69.5q105 0 162.5 -65.5t57.5 -162.5v-28h-395q2 -78 52 -133t130 -55q93 0 160 79l36 -29q-74 -97 -198 -97zM327 708l107 -144h-53
l-86 115l-86 -115h-53l107 144h64z" />
    <glyph glyph-name="edieresis" unicode="&#xeb;" horiz-adv-x="567" 
d="M115 265h340q-4 76 -48 122t-119 46q-74 0 -122.5 -52.5t-50.5 -115.5zM294 -13q-103 0 -169.5 70t-66.5 177q0 105 66.5 174.5t164.5 69.5q105 0 162.5 -65.5t57.5 -162.5v-28h-395q2 -78 52 -133t130 -55q93 0 160 79l36 -29q-74 -97 -198 -97zM161 651q0 18 12.5 30.5
t30.5 12.5t30 -12.5t12 -30.5t-12 -31t-30 -13t-30.5 13t-12.5 31zM342 651q0 18 12 30.5t30 12.5t30.5 -12.5t12.5 -30.5t-12.5 -31t-30.5 -13t-30 13t-12 31z" />
    <glyph glyph-name="igrave" unicode="&#xec;" horiz-adv-x="243" 
d="M149 466v-466h-55v466h55zM101 564l-126 144h72l101 -144h-47z" />
    <glyph glyph-name="iacute" unicode="&#xed;" horiz-adv-x="243" 
d="M149 466v-466h-55v466h55zM267 708l-126 -144h-47l101 144h72z" />
    <glyph glyph-name="icircumflex" unicode="&#xee;" horiz-adv-x="243" 
d="M149 466v-466h-55v466h55zM155 708l107 -144h-53l-86 115l-86 -115h-53l107 144h64z" />
    <glyph glyph-name="idieresis" unicode="&#xef;" horiz-adv-x="243" 
d="M149 466v-466h-55v466h55zM-11 651q0 18 12.5 30.5t30.5 12.5t30 -12.5t12 -30.5t-12 -31t-30 -13t-30.5 13t-12.5 31zM170 651q0 18 12 30.5t30 12.5t30.5 -12.5t12.5 -30.5t-12.5 -31t-30.5 -13t-30 13t-12 31z" />
    <glyph glyph-name="eth" unicode="&#xf0;" horiz-adv-x="609" 
d="M109 233q0 -85 52 -141.5t137 -56.5q86 0 137.5 56.5t51.5 141.5q0 86 -51.5 141.5t-137.5 55.5t-137.5 -55.5t-51.5 -141.5zM451 718l-103 -56q79 -75 137.5 -187t58.5 -228q0 -106 -63 -183t-183 -77q-107 0 -176.5 70t-69.5 176t69 175.5t177 69.5q88 0 159 -63l3 2
q-56 125 -161 220l-112 -58l-28 29l110 58q-41 39 -99 78l46 30q48 -34 99 -82l103 54z" />
    <glyph glyph-name="ntilde" unicode="&#xf1;" horiz-adv-x="578" 
d="M90 466h52q4 -36 4 -93h2q20 47 67 76t100 29q88 0 131 -53.5t43 -140.5v-284h-54v264q0 168 -132 168q-65 0 -109.5 -51t-44.5 -144v-237h-55v359q0 64 -4 107zM179 581h-35q15 94 82 94q23 0 71.5 -23.5t63.5 -23.5q33 0 46 49h35q-15 -93 -81 -93q-23 0 -71 23.5
t-64 23.5q-34 0 -47 -50z" />
    <glyph glyph-name="ograve" unicode="&#xf2;" horiz-adv-x="609" 
d="M550 233q0 -106 -69 -176t-177 -70q-107 0 -176 70t-69 176t69 175.5t176 69.5q108 0 177 -69.5t69 -175.5zM494 233q0 85 -52 141.5t-138 56.5q-85 0 -137 -56.5t-52 -141.5q0 -86 51.5 -141.5t137.5 -55.5t138 55.5t52 141.5zM297 564l-126 144h72l101 -144h-47z" />
    <glyph glyph-name="oacute" unicode="&#xf3;" horiz-adv-x="609" 
d="M550 233q0 -106 -69 -176t-177 -70q-107 0 -176 70t-69 176t69 175.5t176 69.5q108 0 177 -69.5t69 -175.5zM494 233q0 85 -52 141.5t-138 56.5q-85 0 -137 -56.5t-52 -141.5q0 -86 51.5 -141.5t137.5 -55.5t138 55.5t52 141.5zM438 708l-126 -144h-47l101 144h72z" />
    <glyph glyph-name="ocircumflex" unicode="&#xf4;" horiz-adv-x="609" 
d="M550 233q0 -106 -69 -176t-177 -70q-107 0 -176 70t-69 176t69 175.5t176 69.5q108 0 177 -69.5t69 -175.5zM494 233q0 85 -52 141.5t-138 56.5q-85 0 -137 -56.5t-52 -141.5q0 -86 51.5 -141.5t137.5 -55.5t138 55.5t52 141.5zM336 708l107 -144h-53l-86 115l-86 -115
h-53l107 144h64z" />
    <glyph glyph-name="otilde" unicode="&#xf5;" horiz-adv-x="609" 
d="M550 233q0 -106 -69 -176t-177 -70q-107 0 -176 70t-69 176t69 175.5t176 69.5q108 0 177 -69.5t69 -175.5zM494 233q0 85 -52 141.5t-138 56.5q-85 0 -137 -56.5t-52 -141.5q0 -86 51.5 -141.5t137.5 -55.5t138 55.5t52 141.5zM191 581h-35q15 94 82 94q23 0 71.5 -23.5
t63.5 -23.5q33 0 46 49h35q-15 -93 -81 -93q-23 0 -71 23.5t-64 23.5q-34 0 -47 -50z" />
    <glyph glyph-name="odieresis" unicode="&#xf6;" horiz-adv-x="609" 
d="M550 233q0 -106 -69 -176t-177 -70q-107 0 -176 70t-69 176t69 175.5t176 69.5q108 0 177 -69.5t69 -175.5zM494 233q0 85 -52 141.5t-138 56.5q-85 0 -137 -56.5t-52 -141.5q0 -86 51.5 -141.5t137.5 -55.5t138 55.5t52 141.5zM172 651q0 18 12.5 30.5t30.5 12.5
t30 -12.5t12 -30.5t-12 -31t-30 -13t-30.5 13t-12.5 31zM353 651q0 18 12 30.5t30 12.5t30.5 -12.5t12.5 -30.5t-12.5 -31t-30.5 -13t-30 13t-12 31z" />
    <glyph glyph-name="divide" unicode="&#xf7;" horiz-adv-x="666" 
d="M584 327v-48h-501v48h501zM382 466q0 -19 -14.5 -34t-34.5 -15t-34 15t-14 34q0 21 13.5 35.5t34.5 14.5t35 -14.5t14 -35.5zM382 140q0 -21 -14 -35.5t-35 -14.5t-34.5 14.5t-13.5 35.5t13.5 35t34.5 14q20 0 34.5 -15t14.5 -34z" />
    <glyph glyph-name="oslash" unicode="&#xf8;" horiz-adv-x="609" 
d="M76 -23l-27 25l66 68q-57 68 -57 163q0 106 69 175.5t176 69.5q95 0 161 -54l64 66l26 -26l-64 -66q61 -68 61 -165q0 -106 -70 -176t-178 -70q-94 0 -161 57zM151 106l279 284q-46 44 -126 44q-86 0 -138.5 -57.5t-52.5 -143.5q0 -78 38 -127zM303 32q87 0 140 57.5
t53 143.5q0 80 -42 129l-279 -284q51 -46 128 -46z" />
    <glyph glyph-name="ugrave" unicode="&#xf9;" horiz-adv-x="578" 
d="M488 0h-53q-4 33 -4 92h-2q-20 -48 -66 -76.5t-100 -28.5q-88 0 -131.5 53.5t-43.5 140.5v285h55v-264q0 -169 132 -169q64 0 109 51.5t45 144.5v237h54v-359q0 -55 5 -107zM280 564l-126 144h72l101 -144h-47z" />
    <glyph glyph-name="uacute" unicode="&#xfa;" horiz-adv-x="578" 
d="M488 0h-53q-4 33 -4 92h-2q-20 -48 -66 -76.5t-100 -28.5q-88 0 -131.5 53.5t-43.5 140.5v285h55v-264q0 -169 132 -169q64 0 109 51.5t45 144.5v237h54v-359q0 -55 5 -107zM415 708l-126 -144h-47l101 144h72z" />
    <glyph glyph-name="ucircumflex" unicode="&#xfb;" horiz-adv-x="578" 
d="M488 0h-53q-4 33 -4 92h-2q-20 -48 -66 -76.5t-100 -28.5q-88 0 -131.5 53.5t-43.5 140.5v285h55v-264q0 -169 132 -169q64 0 109 51.5t45 144.5v237h54v-359q0 -55 5 -107zM317 708l107 -144h-53l-86 115l-86 -115h-53l107 144h64z" />
    <glyph glyph-name="udieresis" unicode="&#xfc;" horiz-adv-x="578" 
d="M488 0h-53q-4 33 -4 92h-2q-20 -48 -66 -76.5t-100 -28.5q-88 0 -131.5 53.5t-43.5 140.5v285h55v-264q0 -169 132 -169q64 0 109 51.5t45 144.5v237h54v-359q0 -55 5 -107zM153 651q0 18 12.5 30.5t30.5 12.5t30 -12.5t12 -30.5t-12 -31t-30 -13t-30.5 13t-12.5 31z
M334 651q0 18 12 30.5t30 12.5t30.5 -12.5t12.5 -30.5t-12.5 -31t-30.5 -13t-30 13t-12 31z" />
    <glyph glyph-name="yacute" unicode="&#xfd;" horiz-adv-x="470" 
d="M84 -241q-25 0 -55 7l7 49q22 -8 46 -8q34 0 54.5 21.5t36.5 63.5l40 105l-195 469h61l162 -411l2 2l150 409h59l-232 -596q-22 -55 -53 -83t-83 -28zM377 708l-126 -144h-47l101 144h72z" />
    <glyph glyph-name="thorn" unicode="&#xfe;" horiz-adv-x="631" 
d="M334 -13q-58 0 -106.5 27t-77.5 78h-2v-332h-53v996h53v-385h2q29 52 78.5 79.5t105.5 27.5q103 0 171 -69.5t68 -175.5t-68 -176t-171 -70zM516 233q0 84 -51 140.5t-135 56.5q-83 0 -135 -57t-52 -140t52.5 -140.5t134.5 -57.5q84 0 135 57t51 141z" />
    <glyph glyph-name="ydieresis" unicode="&#xff;" horiz-adv-x="470" 
d="M84 -241q-25 0 -55 7l7 49q22 -8 46 -8q34 0 54.5 21.5t36.5 63.5l40 105l-195 469h61l162 -411l2 2l150 409h59l-232 -596q-22 -55 -53 -83t-83 -28zM109 651q0 18 12.5 30.5t30.5 12.5t30 -12.5t12 -30.5t-12 -31t-30 -13t-30.5 13t-12.5 31zM290 651q0 18 12 30.5
t30 12.5t30.5 -12.5t12.5 -30.5t-12.5 -31t-30.5 -13t-30 13t-12 31z" />
    <glyph glyph-name="Amacron" unicode="&#x100;" horiz-adv-x="690" 
d="M155 191l-80 -191h-63l307 708h57l301 -708h-63l-80 191h-379zM346 648l-170 -405h337zM476 850v-44h-258v44h258z" />
    <glyph glyph-name="amacron" unicode="&#x101;" horiz-adv-x="527" 
d="M218 -13q-62 0 -111 35t-49 104q0 48 23.5 80.5t66.5 48t88.5 21.5t104.5 6h47v21q0 130 -132 130q-81 0 -139 -55l-30 36q64 64 174 64q81 0 130 -43t49 -126v-204q0 -62 8 -105h-49q-8 48 -8 86h-2q-57 -99 -171 -99zM231 32q76 0 116.5 49.5t40.5 119.5v38h-35
q-239 0 -239 -110q0 -50 34.5 -73.5t82.5 -23.5zM396 650v-44h-258v44h258z" />
    <glyph glyph-name="Abreve" unicode="&#x102;" horiz-adv-x="690" 
d="M155 191l-80 -191h-63l307 708h57l301 -708h-63l-80 191h-379zM346 648l-170 -405h337zM452 905h36q-5 -62 -43 -96t-98 -34q-59 0 -97 34.5t-43 95.5h37q8 -42 36 -64t67 -22q89 0 105 86z" />
    <glyph glyph-name="abreve" unicode="&#x103;" horiz-adv-x="527" 
d="M218 -13q-62 0 -111 35t-49 104q0 48 23.5 80.5t66.5 48t88.5 21.5t104.5 6h47v21q0 130 -132 130q-81 0 -139 -55l-30 36q64 64 174 64q81 0 130 -43t49 -126v-204q0 -62 8 -105h-49q-8 48 -8 86h-2q-57 -99 -171 -99zM231 32q76 0 116.5 49.5t40.5 119.5v38h-35
q-239 0 -239 -110q0 -50 34.5 -73.5t82.5 -23.5zM374 705h36q-5 -62 -43 -96t-98 -34q-59 0 -97 34.5t-43 95.5h37q8 -42 36 -64t67 -22q89 0 105 86z" />
    <glyph glyph-name="Aogonek" unicode="&#x104;" horiz-adv-x="690" 
d="M12 0l307 708h57l301 -708q-5 -5 -23 -12.5t-20 -10.5q-32 -34 -46.5 -56.5t-14.5 -47.5q0 -24 15.5 -38.5t39.5 -14.5q32 0 56 24l16 -32q-35 -35 -87 -35q-36 0 -62 23.5t-26 60.5q0 62 89 139l-80 191h-379l-80 -191h-63zM346 648l-170 -405h337z" />
    <glyph glyph-name="aogonek" unicode="&#x105;" horiz-adv-x="527" 
d="M218 -13q-62 0 -111 35t-49 104q0 47 23 79.5t65 48t87 22t103 6.5h52v21q0 130 -132 130q-81 0 -139 -55l-30 36q64 64 174 64q81 0 130 -43t49 -126v-204q0 -62 8 -105h-8q-44 -45 -62.5 -72t-18.5 -55q0 -24 15 -38.5t39 -14.5q35 0 56 24l17 -32q-35 -35 -88 -35
q-36 0 -62 23.5t-26 60.5q0 62 90 139h-1q-8 48 -8 86h-2q-57 -99 -171 -99zM231 32q76 0 116.5 49.5t40.5 119.5v38h-35q-239 0 -239 -110q0 -50 34.5 -73.5t82.5 -23.5z" />
    <glyph glyph-name="Cacute" unicode="&#x106;" horiz-adv-x="721" 
d="M645 136l39 -31q-96 -124 -258 -124q-159 0 -262 105.5t-103 267.5t104 267.5t262 105.5q79 0 142.5 -26.5t101.5 -76.5l-41 -38q-32 40 -85.5 65t-116.5 25q-138 0 -222.5 -93t-84.5 -229q0 -134 84.5 -228t222.5 -94q133 0 217 104zM549 908l-126 -144h-47l101 144h72z
" />
    <glyph glyph-name="cacute" unicode="&#x107;" horiz-adv-x="494" 
d="M466 405l-36 -33q-21 27 -56 43t-73 16q-83 0 -134.5 -56.5t-51.5 -141.5t50.5 -141t133.5 -56q80 0 136 56l34 -31q-63 -74 -170 -74q-108 0 -174 69.5t-66 176.5t67.5 176t173.5 69q108 0 166 -73zM428 708l-126 -144h-47l101 144h72z" />
    <glyph glyph-name="Ccircumflex" unicode="&#x108;" horiz-adv-x="721" 
d="M645 136l39 -31q-96 -124 -258 -124q-159 0 -262 105.5t-103 267.5t104 267.5t262 105.5q79 0 142.5 -26.5t101.5 -76.5l-41 -38q-32 40 -85.5 65t-116.5 25q-138 0 -222.5 -93t-84.5 -229q0 -134 84.5 -228t222.5 -94q133 0 217 104zM458 908l107 -144h-53l-86 115
l-86 -115h-53l107 144h64z" />
    <glyph glyph-name="ccircumflex" unicode="&#x109;" horiz-adv-x="494" 
d="M466 405l-36 -33q-21 27 -56 43t-73 16q-83 0 -134.5 -56.5t-51.5 -141.5t50.5 -141t133.5 -56q80 0 136 56l34 -31q-63 -74 -170 -74q-108 0 -174 69.5t-66 176.5t67.5 176t173.5 69q108 0 166 -73zM332 708l107 -144h-53l-86 115l-86 -115h-53l107 144h64z" />
    <glyph glyph-name="Cdotaccent" unicode="&#x10a;" horiz-adv-x="721" 
d="M645 136l39 -31q-96 -124 -258 -124q-159 0 -262 105.5t-103 267.5t104 267.5t262 105.5q79 0 142.5 -26.5t101.5 -76.5l-41 -38q-32 40 -85.5 65t-116.5 25q-138 0 -222.5 -93t-84.5 -229q0 -134 84.5 -228t222.5 -94q133 0 217 104zM462 851q0 -17 -12.5 -29t-28.5 -12
t-28.5 12t-12.5 29t12.5 29t28.5 12t28.5 -12t12.5 -29z" />
    <glyph glyph-name="cdotaccent" unicode="&#x10b;" horiz-adv-x="494" 
d="M466 405l-36 -33q-21 27 -56 43t-73 16q-83 0 -134.5 -56.5t-51.5 -141.5t50.5 -141t133.5 -56q80 0 136 56l34 -31q-63 -74 -170 -74q-108 0 -174 69.5t-66 176.5t67.5 176t173.5 69q108 0 166 -73zM336 651q0 -17 -12.5 -29t-28.5 -12t-28.5 12t-12.5 29t12.5 29
t28.5 12t28.5 -12t12.5 -29z" />
    <glyph glyph-name="Ccaron" unicode="&#x10c;" horiz-adv-x="721" 
d="M645 136l39 -31q-96 -124 -258 -124q-159 0 -262 105.5t-103 267.5t104 267.5t262 105.5q79 0 142.5 -26.5t101.5 -76.5l-41 -38q-32 40 -85.5 65t-116.5 25q-138 0 -222.5 -93t-84.5 -229q0 -134 84.5 -228t222.5 -94q133 0 217 104zM565 908l-107 -144h-64l-107 144h53
l86 -115l86 115h53z" />
    <glyph glyph-name="ccaron" unicode="&#x10d;" horiz-adv-x="494" 
d="M466 405l-36 -33q-21 27 -56 43t-73 16q-83 0 -134.5 -56.5t-51.5 -141.5t50.5 -141t133.5 -56q80 0 136 56l34 -31q-63 -74 -170 -74q-108 0 -174 69.5t-66 176.5t67.5 176t173.5 69q108 0 166 -73zM439 708l-107 -144h-64l-107 144h53l86 -115l86 115h53z" />
    <glyph glyph-name="Dcaron" unicode="&#x10e;" horiz-adv-x="761" 
d="M98 0v708h224q73 0 139.5 -22t120.5 -64.5t86 -111.5t32 -156t-32 -156t-86 -111.5t-120.5 -64.5t-139.5 -22h-224zM155 657v-606h152q155 0 244 85t89 218t-89 218t-244 85h-152zM488 908l-107 -144h-64l-107 144h53l86 -115l86 115h53z" />
    <glyph glyph-name="dcaron" unicode="&#x10f;" horiz-adv-x="668" 
d="M484 92h-2q-29 -50 -79.5 -77.5t-106.5 -27.5q-105 0 -171.5 70t-66.5 176q0 105 66.5 175t171.5 70q57 0 107 -27.5t79 -79.5h2v385h55v-756h-55v92zM115 233q0 -85 50.5 -142t135.5 -57q82 0 135.5 57t53.5 142t-53.5 142.5t-135.5 57.5q-85 0 -135.5 -57.5
t-50.5 -142.5zM713 708l-71 -185h-45l59 185h57z" />
    <glyph glyph-name="Dcroat" unicode="&#x110;" horiz-adv-x="761" 
d="M92 0v350h-75v44h75v314h225q73 0 139.5 -22t120 -64.5t85.5 -111.5t32 -156t-32 -156t-85.5 -111.5t-120 -64.5t-139.5 -22h-225zM149 350v-298h150q156 0 245 84.5t89 217.5t-89 217.5t-245 84.5h-150v-262h261v-44h-261z" />
    <glyph glyph-name="dcroat" unicode="&#x111;" horiz-adv-x="634" 
d="M311 610h173v146h55v-146h60v-40h-60v-570h-55v92h-2q-29 -50 -79.5 -77.5t-106.5 -27.5q-105 0 -171.5 70t-66.5 176q0 105 66.5 175t171.5 70q57 0 107 -27.5t79 -79.5h2v199h-173v40zM115 233q0 -85 50.5 -142t135.5 -57q82 0 135.5 57t53.5 142t-53.5 142.5
t-135.5 57.5q-85 0 -135.5 -57.5t-50.5 -142.5z" />
    <glyph glyph-name="Emacron" unicode="&#x112;" horiz-adv-x="591" 
d="M154 343v-292h388v-51h-444v708h431v-51h-375v-264h351v-50h-351zM445 850v-44h-258v44h258z" />
    <glyph glyph-name="emacron" unicode="&#x113;" horiz-adv-x="567" 
d="M115 265h340q-4 76 -48 122t-119 46q-74 0 -122.5 -52.5t-50.5 -115.5zM294 -13q-103 0 -169.5 70t-66.5 177q0 105 66.5 174.5t164.5 69.5q105 0 162.5 -65.5t57.5 -162.5v-28h-395q2 -78 52 -133t130 -55q93 0 160 79l36 -29q-74 -97 -198 -97zM422 650v-44h-258v44
h258z" />
    <glyph glyph-name="Ebreve" unicode="&#x114;" horiz-adv-x="591" 
d="M154 343v-292h388v-51h-444v708h431v-51h-375v-264h351v-50h-351zM420 905h36q-5 -62 -43 -96t-98 -34q-59 0 -97 34.5t-43 95.5h37q8 -42 36 -64t67 -22q89 0 105 86z" />
    <glyph glyph-name="ebreve" unicode="&#x115;" horiz-adv-x="567" 
d="M115 265h340q-4 76 -48 122t-119 46q-74 0 -122.5 -52.5t-50.5 -115.5zM294 -13q-103 0 -169.5 70t-66.5 177q0 105 66.5 174.5t164.5 69.5q105 0 162.5 -65.5t57.5 -162.5v-28h-395q2 -78 52 -133t130 -55q93 0 160 79l36 -29q-74 -97 -198 -97zM397 705h36
q-5 -62 -43 -96t-98 -34q-59 0 -97 34.5t-43 95.5h37q8 -42 36 -64t67 -22q89 0 105 86z" />
    <glyph glyph-name="Edotaccent" unicode="&#x116;" horiz-adv-x="591" 
d="M154 343v-292h388v-51h-444v708h431v-51h-375v-264h351v-50h-351zM361 851q0 -17 -12.5 -29t-28.5 -12t-28.5 12t-12.5 29t12.5 29t28.5 12t28.5 -12t12.5 -29z" />
    <glyph glyph-name="edotaccent" unicode="&#x117;" horiz-adv-x="567" 
d="M115 265h340q-4 76 -48 122t-119 46q-74 0 -122.5 -52.5t-50.5 -115.5zM294 -13q-103 0 -169.5 70t-66.5 177q0 105 66.5 174.5t164.5 69.5q105 0 162.5 -65.5t57.5 -162.5v-28h-395q2 -78 52 -133t130 -55q93 0 160 79l36 -29q-74 -97 -198 -97zM333 651
q0 -17 -12.5 -29t-28.5 -12t-28.5 12t-12.5 29t12.5 29t28.5 12t28.5 -12t12.5 -29z" />
    <glyph glyph-name="Eogonek" unicode="&#x118;" horiz-adv-x="591" 
d="M555 -156l17 -32q-35 -35 -88 -35q-36 0 -62 23.5t-26 60.5q0 62 90 139h-388v708h431v-51h-375v-264h351v-50h-351v-292h388v-51h-16q-44 -45 -62.5 -72t-18.5 -55q0 -24 15 -38.5t39 -14.5q33 0 56 24z" />
    <glyph glyph-name="eogonek" unicode="&#x119;" horiz-adv-x="567" 
d="M312 -223q-36 0 -62 23.5t-26 60.5q0 60 75 127h-22q-96 6 -157.5 75.5t-61.5 170.5q0 105 66.5 174.5t164.5 69.5q105 0 162.5 -65.5t57.5 -162.5v-28h-395q2 -78 52 -133t130 -55q102 0 156 82l40 -32q-58 -75 -146 -92q-39 -40 -56 -66t-17 -53q0 -24 15 -38.5
t39 -14.5q33 0 57 24l16 -32q-35 -35 -88 -35zM115 265h340q-4 76 -48 122t-119 46q-74 0 -122.5 -52.5t-50.5 -115.5z" />
    <glyph glyph-name="Ecaron" unicode="&#x11a;" horiz-adv-x="591" 
d="M154 343v-292h388v-51h-444v708h431v-51h-375v-264h351v-50h-351zM455 908l-107 -144h-64l-107 144h53l86 -115l86 115h53z" />
    <glyph glyph-name="ecaron" unicode="&#x11b;" horiz-adv-x="567" 
d="M115 265h340q-4 76 -48 122t-119 46q-74 0 -122.5 -52.5t-50.5 -115.5zM294 -13q-103 0 -169.5 70t-66.5 177q0 105 66.5 174.5t164.5 69.5q105 0 162.5 -65.5t57.5 -162.5v-28h-395q2 -78 52 -133t130 -55q93 0 160 79l36 -29q-74 -97 -198 -97zM430 708l-107 -144h-64
l-107 144h53l86 -115l86 115h53z" />
    <glyph glyph-name="Gcircumflex" unicode="&#x11c;" horiz-adv-x="784" 
d="M677 635l-36 -39q-80 80 -211 80q-139 0 -224 -93t-85 -228t85 -229t226 -94q122 0 203 48v234h-170v50h227v-316q-111 -67 -261 -67q-162 0 -266 106t-104 268q0 161 104.5 266.5t264.5 105.5q155 0 247 -92zM463 908l107 -144h-53l-86 115l-86 -115h-53l107 144h64z
" />
    <glyph glyph-name="gcircumflex" unicode="&#x11d;" horiz-adv-x="630" 
d="M74 -151l35 37q75 -81 186 -81q99 0 144 57.5t45 148.5v91h-2q-27 -50 -77.5 -78t-108.5 -28q-106 0 -172 67.5t-66 171.5q0 103 66.5 173t171.5 70q58 0 108 -27.5t78 -79.5h2v95h55v-455q0 -48 -11.5 -89.5t-37.5 -80.5t-76.5 -61.5t-120.5 -22.5q-133 0 -219 92z
M115 237q0 -82 50.5 -138.5t135.5 -56.5q82 0 135.5 55.5t53.5 139.5q0 80 -54 138t-135 58q-85 0 -135.5 -57t-50.5 -139zM339 708l107 -144h-53l-86 115l-86 -115h-53l107 144h64z" />
    <glyph glyph-name="Gbreve" unicode="&#x11e;" horiz-adv-x="784" 
d="M677 635l-36 -39q-80 80 -211 80q-139 0 -224 -93t-85 -228t85 -229t226 -94q122 0 203 48v234h-170v50h227v-316q-111 -67 -261 -67q-162 0 -266 106t-104 268q0 161 104.5 266.5t264.5 105.5q155 0 247 -92zM534 905h36q-5 -62 -43 -96t-98 -34q-59 0 -97 34.5
t-43 95.5h37q8 -42 36 -64t67 -22q89 0 105 86z" />
    <glyph glyph-name="gbreve" unicode="&#x11f;" horiz-adv-x="630" 
d="M74 -151l35 37q75 -81 186 -81q99 0 144 57.5t45 148.5v91h-2q-27 -50 -77.5 -78t-108.5 -28q-106 0 -172 67.5t-66 171.5q0 103 66.5 173t171.5 70q58 0 108 -27.5t78 -79.5h2v95h55v-455q0 -48 -11.5 -89.5t-37.5 -80.5t-76.5 -61.5t-120.5 -22.5q-133 0 -219 92z
M115 237q0 -82 50.5 -138.5t135.5 -56.5q82 0 135.5 55.5t53.5 139.5q0 80 -54 138t-135 58q-85 0 -135.5 -57t-50.5 -139zM413 705h36q-5 -62 -43 -96t-98 -34q-59 0 -97 34.5t-43 95.5h37q8 -42 36 -64t67 -22q89 0 105 86z" />
    <glyph glyph-name="Gdotaccent" unicode="&#x120;" horiz-adv-x="784" 
d="M677 635l-36 -39q-80 80 -211 80q-139 0 -224 -93t-85 -228t85 -229t226 -94q122 0 203 48v234h-170v50h227v-316q-111 -67 -261 -67q-162 0 -266 106t-104 268q0 161 104.5 266.5t264.5 105.5q155 0 247 -92zM469 851q0 -17 -12.5 -29t-28.5 -12t-28.5 12t-12.5 29
t12.5 29t28.5 12t28.5 -12t12.5 -29z" />
    <glyph glyph-name="gdotaccent" unicode="&#x121;" horiz-adv-x="630" 
d="M74 -151l35 37q75 -81 186 -81q99 0 144 57.5t45 148.5v91h-2q-27 -50 -77.5 -78t-108.5 -28q-106 0 -172 67.5t-66 171.5q0 103 66.5 173t171.5 70q58 0 108 -27.5t78 -79.5h2v95h55v-455q0 -48 -11.5 -89.5t-37.5 -80.5t-76.5 -61.5t-120.5 -22.5q-133 0 -219 92z
M115 237q0 -82 50.5 -138.5t135.5 -56.5q82 0 135.5 55.5t53.5 139.5q0 80 -54 138t-135 58q-85 0 -135.5 -57t-50.5 -139zM348 651q0 -17 -12.5 -29t-28.5 -12t-28.5 12t-12.5 29t12.5 29t28.5 12t28.5 -12t12.5 -29z" />
    <glyph glyph-name="Gcommaaccent" unicode="&#x122;" horiz-adv-x="787" 
d="M677 635l-36 -39q-80 80 -211 80q-139 0 -224 -93t-85 -228t85 -229t226 -94q122 0 203 48v234h-170v50h227v-316q-111 -67 -261 -67q-162 0 -266 106t-104 268q0 161 104.5 266.5t264.5 105.5q155 0 247 -92zM472 -45l-71 -185h-45l59 185h57z" />
    <glyph glyph-name="gcommaaccent" unicode="&#x123;" horiz-adv-x="630" 
d="M74 -151l35 37q75 -81 186 -81q99 0 144 57.5t45 148.5v91h-2q-27 -50 -77.5 -78t-108.5 -28q-106 0 -172 67.5t-66 171.5q0 103 66.5 173t171.5 70q58 0 108 -27.5t78 -79.5h2v95h55v-455q0 -48 -11.5 -89.5t-37.5 -80.5t-76.5 -61.5t-120.5 -22.5q-133 0 -219 92z
M115 237q0 -82 50.5 -138.5t135.5 -56.5q82 0 135.5 55.5t53.5 139.5q0 80 -54 138t-135 58q-85 0 -135.5 -57t-50.5 -139zM280 564l71 185h45l-59 -185h-57z" />
    <glyph glyph-name="Hcircumflex" unicode="&#x124;" horiz-adv-x="722" 
d="M98 0v708h57v-314h413v314h57v-708h-57v341h-413v-341h-57zM392 908l107 -144h-53l-86 115l-86 -115h-53l107 144h64z" />
    <glyph glyph-name="hcircumflex" unicode="&#x125;" horiz-adv-x="579" 
d="M149 375h2q23 50 67 76.5t97 26.5q88 0 131.5 -53.5t43.5 -140.5v-284h-54v264q0 168 -133 168q-64 0 -109 -51t-45 -144v-237h-54v756h54v-381zM318 940l107 -144h-53l-86 115l-86 -115h-53l107 144h64z" />
    <glyph glyph-name="Hbar" unicode="&#x126;" horiz-adv-x="722" 
d="M98 0v708h57v-168h413v168h57v-708h-57v341h-413v-341h-57zM155 394h413v106h-413v-106z" />
    <glyph glyph-name="hbar" unicode="&#x127;" horiz-adv-x="579" 
d="M36 610h59v146h54v-146h174v-40h-174v-195h2q20 47 65.5 75t98.5 28q88 0 131.5 -53.5t43.5 -140.5v-284h-54v264q0 169 -133 169q-64 0 -109 -51.5t-45 -144.5v-237h-54v570h-59v40z" />
    <glyph glyph-name="Itilde" unicode="&#x128;" horiz-adv-x="252" 
d="M155 708v-708h-57v708h57zM14 781h-35q15 94 82 94q23 0 71.5 -23.5t63.5 -23.5q33 0 46 49h35q-15 -93 -81 -93q-23 0 -71 23.5t-64 23.5q-34 0 -47 -50z" />
    <glyph glyph-name="itilde" unicode="&#x129;" horiz-adv-x="243" 
d="M149 466v-466h-55v466h55zM10 581h-35q15 94 82 94q23 0 71.5 -23.5t63.5 -23.5q33 0 46 49h35q-15 -93 -81 -93q-23 0 -71 23.5t-64 23.5q-34 0 -47 -50z" />
    <glyph glyph-name="Imacron" unicode="&#x12a;" horiz-adv-x="252" 
d="M155 708v-708h-57v708h57zM256 850v-44h-258v44h258z" />
    <glyph glyph-name="imacron" unicode="&#x12b;" horiz-adv-x="243" 
d="M149 466v-466h-55v466h55zM251 650v-44h-258v44h258z" />
    <glyph glyph-name="Ibreve" unicode="&#x12c;" horiz-adv-x="252" 
d="M155 708v-708h-57v708h57zM231 905h36q-5 -62 -43 -96t-98 -34q-59 0 -97 34.5t-43 95.5h37q8 -42 36 -64t67 -22q89 0 105 86z" />
    <glyph glyph-name="ibreve" unicode="&#x12d;" horiz-adv-x="243" 
d="M149 466v-466h-55v466h55zM226 705h36q-5 -62 -43 -96t-98 -34q-59 0 -97 34.5t-43 95.5h37q8 -42 36 -64t67 -22q89 0 105 86z" />
    <glyph glyph-name="Iogonek" unicode="&#x12e;" horiz-adv-x="252" 
d="M108 -223q-36 0 -62 23.5t-26 60.5q0 62 90 139h-12v708h57v-708q-34 -34 -48.5 -50t-26 -36.5t-11.5 -40.5q0 -24 15 -38.5t39 -14.5q33 0 57 24l16 -32q-35 -35 -88 -35z" />
    <glyph glyph-name="iogonek" unicode="&#x12f;" horiz-adv-x="243" 
d="M104 -223q-36 0 -62 23.5t-26 60.5q0 61 89 138h-2q-1 0 -2 0.5t-2 0.5h-5v466h55v-466h-3q-45 -45 -63.5 -71.5t-18.5 -55.5q0 -24 15.5 -38.5t39.5 -14.5q32 0 56 24l16 -32q-35 -35 -87 -35zM121 610q-16 0 -28 12t-12 29t12 29t28 12t28.5 -12t12.5 -29t-12.5 -29
t-28.5 -12z" />
    <glyph glyph-name="Idotaccent" unicode="&#x130;" horiz-adv-x="252" 
d="M155 708v-708h-57v708h57zM168 851q0 -17 -12.5 -29t-28.5 -12t-28.5 12t-12.5 29t12.5 29t28.5 12t28.5 -12t12.5 -29z" />
    <glyph glyph-name="dotlessi" unicode="&#x131;" horiz-adv-x="243" 
d="M149 466v-466h-55v466h55z" />
    <glyph glyph-name="IJ" unicode="&#x132;" horiz-adv-x="726" 
d="M155 708v-708h-57v708h57zM264 116l53 15q12 -44 45 -71.5t80 -27.5q135 0 135 173v503h57v-507q0 -42 -9 -78.5t-29.5 -69.5t-58 -52t-89.5 -19q-71 0 -120 37.5t-64 96.5z" />
    <glyph glyph-name="ij" unicode="&#x133;" horiz-adv-x="485" 
d="M218 -234l8 45q20 -5 37 -5q45 0 59.5 27.5t14.5 79.5v553h54v-560q0 -68 -28 -107t-99 -39q-29 0 -46 6zM94 0v466h55v-466h-55zM121 610q-16 0 -28 12t-12 29t12 29t28 12t28.5 -12t12.5 -29t-12.5 -29t-28.5 -12zM364 610q-16 0 -28.5 12t-12.5 29t12.5 29t28.5 12
t28 -12t12 -29t-12 -29t-28 -12z" />
    <glyph glyph-name="Jcircumflex" unicode="&#x134;" horiz-adv-x="488" 
d="M26 116l53 15q12 -44 45 -71.5t80 -27.5q135 0 135 173v503h57v-507q0 -42 -9 -78.5t-29.5 -69.5t-58 -52t-89.5 -19q-71 0 -120 37.5t-64 96.5zM398 908l107 -144h-53l-86 115l-86 -115h-53l107 144h64z" />
    <glyph glyph-name="jcircumflex" unicode="&#x135;" horiz-adv-x="244" 
d="M-24 -234l8 45q22 -5 38 -5q44 0 58.5 27.5t14.5 79.5v553h54v-560q0 -68 -28 -107t-98 -39q-29 0 -47 6zM153 708l107 -144h-53l-86 115l-86 -115h-53l107 144h64z" />
    <glyph glyph-name="Kcommaaccent" unicode="&#x136;" horiz-adv-x="609" 
d="M155 708v-320l343 320h82l-358 -322l377 -386h-83l-361 378v-378h-57v708h57zM369 -45l-71 -185h-45l59 185h57z" />
    <glyph glyph-name="kcommaaccent" unicode="&#x137;" horiz-adv-x="491" 
d="M149 756v-502h3l222 212h78l-238 -214l263 -252h-80l-245 245h-3v-245h-54v756h54zM310 -44l-71 -185h-45l59 185h57z" />
    <glyph glyph-name="kgreenlandic" unicode="&#x138;" horiz-adv-x="491" 
d="M149 466v-212h3l222 212h78l-238 -214l263 -252h-80l-245 245h-3v-245h-54v466h54z" />
    <glyph glyph-name="Lacute" unicode="&#x139;" horiz-adv-x="506" 
d="M155 708v-657h336v-51h-393v708h57zM275 908l-126 -144h-47l101 144h72z" />
    <glyph glyph-name="lacute" unicode="&#x13a;" horiz-adv-x="244" 
d="M149 756v-756h-54v756h54zM269 936l-126 -144h-47l101 144h72z" />
    <glyph glyph-name="Lcommaaccent" unicode="&#x13b;" horiz-adv-x="506" 
d="M155 708v-657h336v-51h-393v708h57zM336 -45l-71 -185h-45l59 185h57z" />
    <glyph glyph-name="lcommaaccent" unicode="&#x13c;" horiz-adv-x="244" 
d="M149 756v-756h-54v756h54zM167 -44l-71 -185h-45l59 185h57z" />
    <glyph glyph-name="Lcaron" unicode="&#x13d;" horiz-adv-x="506" 
d="M155 708v-657h336v-51h-393v708h57zM349 708l-71 -185h-45l59 185h57z" />
    <glyph glyph-name="lcaron" unicode="&#x13e;" horiz-adv-x="278" 
d="M149 756v-756h-54v756h54zM321 708l-70 -185h-45l58 185h57z" />
    <glyph glyph-name="Ldot" unicode="&#x13f;" horiz-adv-x="506" 
d="M155 708v-657h336v-51h-393v708h57zM356 431q0 -17 -12.5 -29t-28.5 -12t-28.5 12t-12.5 29t12.5 29t28.5 12t28.5 -12t12.5 -29z" />
    <glyph glyph-name="ldot" unicode="&#x140;" horiz-adv-x="291" 
d="M149 756v-756h-54v756h54zM289 461q0 -17 -12.5 -29t-28.5 -12t-28.5 12t-12.5 29t12.5 29t28.5 12t28.5 -12t12.5 -29z" />
    <glyph glyph-name="Lslash" unicode="&#x141;" horiz-adv-x="506" 
d="M155 708v-364l213 186v-56l-213 -187v-236h336v-51h-393v247l-77 -67v57l77 67v404h57z" />
    <glyph glyph-name="lslash" unicode="&#x142;" horiz-adv-x="244" 
d="M149 756v-314l79 78v-58l-79 -78v-384h-53v340l-76 -76v59l76 76v357h53z" />
    <glyph glyph-name="Nacute" unicode="&#x143;" horiz-adv-x="768" 
d="M170 708l441 -626h2v626h57v-708h-72l-441 630h-2v-630h-57v708h72zM524 908l-126 -144h-47l101 144h72z" />
    <glyph glyph-name="nacute" unicode="&#x144;" horiz-adv-x="578" 
d="M90 466h52q4 -36 4 -93h2q20 47 67 76t100 29q88 0 131 -53.5t43 -140.5v-284h-54v264q0 168 -132 168q-65 0 -109.5 -51t-44.5 -144v-237h-55v359q0 64 -4 107zM426 708l-126 -144h-47l101 144h72z" />
    <glyph glyph-name="Ncommaaccent" unicode="&#x145;" horiz-adv-x="768" 
d="M170 708l441 -626h2v626h57v-708h-72l-441 630h-2v-630h-57v708h72zM418 -45l-71 -185h-45l59 185h57z" />
    <glyph glyph-name="ncommaaccent" unicode="&#x146;" horiz-adv-x="578" 
d="M90 466h52q4 -36 4 -93h2q20 47 67 76t100 29q88 0 131 -53.5t43 -140.5v-284h-54v264q0 168 -132 168q-65 0 -109.5 -51t-44.5 -144v-237h-55v359q0 64 -4 107zM334 -45l-71 -185h-45l59 185h57z" />
    <glyph glyph-name="Ncaron" unicode="&#x147;" horiz-adv-x="768" 
d="M170 708l441 -626h2v626h57v-708h-72l-441 630h-2v-630h-57v708h72zM523 908l-107 -144h-64l-107 144h53l86 -115l86 115h53z" />
    <glyph glyph-name="ncaron" unicode="&#x148;" horiz-adv-x="578" 
d="M90 466h52q4 -36 4 -93h2q20 47 67 76t100 29q88 0 131 -53.5t43 -140.5v-284h-54v264q0 168 -132 168q-65 0 -109.5 -51t-44.5 -144v-237h-55v359q0 64 -4 107zM432 708l-107 -144h-64l-107 144h53l86 -115l86 115h53z" />
    <glyph glyph-name="napostrophe" unicode="&#x149;" horiz-adv-x="578" 
d="M90 466h52q4 -36 4 -93h2q20 47 67 76t100 29q88 0 131 -53.5t43 -140.5v-284h-54v264q0 168 -132 168q-65 0 -109.5 -51t-44.5 -144v-237h-55v359q0 64 -4 107zM113 742l-70 -185h-45l58 185h57z" />
    <glyph glyph-name="Eng" unicode="&#x14a;" horiz-adv-x="768" 
d="M98 0v708h72l441 -612h2v612h57v-802q0 -68 -28 -107t-98 -39q-29 0 -47 6l8 45q22 -5 38 -5q44 0 58.5 27.5t14.5 79.5v77l-459 640h-2v-630h-57z" />
    <glyph glyph-name="eng" unicode="&#x14b;" horiz-adv-x="578" 
d="M316 -234l8 45q22 -5 38 -5q44 0 58.5 27.5t14.5 79.5v351q0 169 -132 169q-65 0 -109.5 -51.5t-44.5 -144.5v-237h-55v359q0 64 -4 107h52q4 -36 4 -93h2q20 47 67 76t100 29q88 0 131 -53.5t43 -140.5v-378q0 -68 -28 -107t-98 -39q-29 0 -47 6z" />
    <glyph glyph-name="Omacron" unicode="&#x14c;" horiz-adv-x="857" 
d="M796 354q0 -162 -104.5 -267.5t-263.5 -105.5q-158 0 -262.5 105.5t-104.5 267.5t104.5 267.5t262.5 105.5q159 0 263.5 -105.5t104.5 -267.5zM736 354q0 136 -85 229t-223 93t-222.5 -93t-84.5 -229q0 -134 85 -228t222 -94q138 0 223 94t85 228zM560 850v-44h-258v44
h258z" />
    <glyph glyph-name="omacron" unicode="&#x14d;" horiz-adv-x="609" 
d="M550 233q0 -106 -69 -176t-177 -70q-107 0 -176 70t-69 176t69 175.5t176 69.5q108 0 177 -69.5t69 -175.5zM494 233q0 85 -52 141.5t-138 56.5q-85 0 -137 -56.5t-52 -141.5q0 -86 51.5 -141.5t137.5 -55.5t138 55.5t52 141.5zM434 650v-44h-258v44h258z" />
    <glyph glyph-name="Obreve" unicode="&#x14e;" horiz-adv-x="857" 
d="M796 354q0 -162 -104.5 -267.5t-263.5 -105.5q-158 0 -262.5 105.5t-104.5 267.5t104.5 267.5t262.5 105.5q159 0 263.5 -105.5t104.5 -267.5zM736 354q0 136 -85 229t-223 93t-222.5 -93t-84.5 -229q0 -134 85 -228t222 -94q138 0 223 94t85 228zM535 905h36
q-5 -62 -43 -96t-98 -34q-59 0 -97 34.5t-43 95.5h37q8 -42 36 -64t67 -22q89 0 105 86z" />
    <glyph glyph-name="obreve" unicode="&#x14f;" horiz-adv-x="609" 
d="M550 233q0 -106 -69 -176t-177 -70q-107 0 -176 70t-69 176t69 175.5t176 69.5q108 0 177 -69.5t69 -175.5zM494 233q0 85 -52 141.5t-138 56.5q-85 0 -137 -56.5t-52 -141.5q0 -86 51.5 -141.5t137.5 -55.5t138 55.5t52 141.5zM410 705h36q-5 -62 -43 -96t-98 -34
q-59 0 -97 34.5t-43 95.5h37q8 -42 36 -64t67 -22q89 0 105 86z" />
    <glyph glyph-name="Ohungarumlaut" unicode="&#x150;" horiz-adv-x="857" 
d="M796 354q0 -162 -104.5 -267.5t-263.5 -105.5q-158 0 -262.5 105.5t-104.5 267.5t104.5 267.5t262.5 105.5q159 0 263.5 -105.5t104.5 -267.5zM736 354q0 136 -85 229t-223 93t-222.5 -93t-84.5 -229q0 -134 85 -228t222 -94q138 0 223 94t85 228zM326 764l101 144h72
l-126 -144h-47zM480 764l101 144h72l-126 -144h-47z" />
    <glyph glyph-name="ohungarumlaut" unicode="&#x151;" horiz-adv-x="609" 
d="M550 233q0 -106 -69 -176t-177 -70q-107 0 -176 70t-69 176t69 175.5t176 69.5q108 0 177 -69.5t69 -175.5zM494 233q0 85 -52 141.5t-138 56.5q-85 0 -137 -56.5t-52 -141.5q0 -86 51.5 -141.5t137.5 -55.5t138 55.5t52 141.5zM206 564l101 144h72l-126 -144h-47z
M360 564l101 144h72l-126 -144h-47z" />
    <glyph glyph-name="OE" unicode="&#x152;" horiz-adv-x="988" 
d="M449 708h476v-51h-339v-264h316v-50h-316v-292h352v-51h-489q-73 0 -139.5 22t-120.5 64.5t-86 111.5t-32 156t32 156t86 111.5t120.5 64.5t139.5 22zM529 657h-65q-154 0 -243.5 -85t-89.5 -218t89 -218t244 -85h65v606z" />
    <glyph glyph-name="oe" unicode="&#x153;" horiz-adv-x="999" 
d="M303 -13q-107 0 -176 70t-69 176t69 175.5t176 69.5q74 0 130 -33.5t86 -93.5q28 60 80.5 93.5t120.5 33.5q105 0 163.5 -65.5t58.5 -162.5q0 -20 -1 -28h-396q2 -77 52.5 -132.5t130.5 -55.5q102 0 156 82l40 -32q-74 -97 -197 -97q-71 0 -125 34t-82 95
q-30 -61 -86 -95t-131 -34zM494 233q0 86 -52.5 143t-138.5 57q-85 0 -137.5 -57t-52.5 -143q0 -85 52.5 -142t137.5 -57q86 0 138.5 57t52.5 142zM548 265h339q-4 76 -47.5 122t-118.5 46t-123 -52.5t-50 -115.5z" />
    <glyph glyph-name="Racute" unicode="&#x154;" horiz-adv-x="598" 
d="M155 339v-339h-57v708h204q236 0 236 -185q0 -80 -54 -127t-134 -53l209 -343h-69l-202 339h-133zM155 659v-271h139q91 0 139 34.5t48 100.5q0 136 -188 136h-138zM406 908l-126 -144h-47l101 144h72z" />
    <glyph glyph-name="racute" unicode="&#x155;" horiz-adv-x="347" 
d="M94 0v359q0 64 -4 107h52q4 -36 4 -93h2q20 50 60.5 77.5t92.5 27.5q25 0 37 -4l-6 -50q-9 4 -38 4q-65 0 -105 -50.5t-40 -138.5v-239h-55zM292 708l-126 -144h-47l101 144h72z" />
    <glyph glyph-name="Rcommaaccent" unicode="&#x156;" horiz-adv-x="598" 
d="M155 339v-339h-57v708h204q236 0 236 -185q0 -80 -54 -127t-134 -53l209 -343h-69l-202 339h-133zM155 659v-271h139q91 0 139 34.5t48 100.5q0 136 -188 136h-138zM353 -45l-71 -185h-45l59 185h57z" />
    <glyph glyph-name="rcommaaccent" unicode="&#x157;" horiz-adv-x="347" 
d="M94 0v359q0 64 -4 107h52q4 -36 4 -93h2q20 50 60.5 77.5t92.5 27.5q25 0 37 -4l-6 -50q-9 4 -38 4q-65 0 -105 -50.5t-40 -138.5v-239h-55zM166 -45l-71 -185h-45l59 185h57z" />
    <glyph glyph-name="Rcaron" unicode="&#x158;" horiz-adv-x="598" 
d="M155 339v-339h-57v708h204q236 0 236 -185q0 -80 -54 -127t-134 -53l209 -343h-69l-202 339h-133zM155 659v-271h139q91 0 139 34.5t48 100.5q0 136 -188 136h-138zM421 908l-107 -144h-64l-107 144h53l86 -115l86 115h53z" />
    <glyph glyph-name="rcaron" unicode="&#x159;" horiz-adv-x="347" 
d="M94 0v359q0 64 -4 107h52q4 -36 4 -93h2q20 50 60.5 77.5t92.5 27.5q25 0 37 -4l-6 -50q-9 4 -38 4q-65 0 -105 -50.5t-40 -138.5v-239h-55zM347 708l-107 -144h-64l-107 144h53l86 -115l86 115h53z" />
    <glyph glyph-name="Sacute" unicode="&#x15a;" horiz-adv-x="566" 
d="M491 643l-41 -37q-60 72 -156 72q-64 0 -114 -37.5t-50 -105.5q0 -42 20.5 -71t53.5 -45t72.5 -29t79 -28t72.5 -35.5t53.5 -57.5t20.5 -88q0 -96 -67 -148t-159 -52q-134 0 -214 102l40 35q74 -87 174 -87q67 0 117.5 39.5t50.5 107.5q0 48 -27.5 81t-68.5 48t-89.5 33
t-89.5 36.5t-68.5 59t-27.5 99.5q0 92 67 142t157 50q130 0 194 -84zM422 908l-126 -144h-47l101 144h72z" />
    <glyph glyph-name="sacute" unicode="&#x15b;" horiz-adv-x="435" 
d="M379 399l-42 -30q-38 64 -117 64q-42 0 -73.5 -20.5t-31.5 -60.5q0 -37 28 -56.5t89 -32.5q79 -18 117.5 -48.5t38.5 -85.5q0 -70 -49.5 -105.5t-119.5 -35.5q-119 0 -177 87l43 31q21 -33 56.5 -52.5t77.5 -19.5q48 0 81.5 22.5t33.5 68.5q0 34 -28 54t-67.5 30
t-79.5 21.5t-68 40.5t-28 77q0 64 46 97t113 33q109 0 157 -79zM359 708l-126 -144h-47l101 144h72z" />
    <glyph glyph-name="Scircumflex" unicode="&#x15c;" horiz-adv-x="566" 
d="M491 643l-41 -37q-60 72 -156 72q-64 0 -114 -37.5t-50 -105.5q0 -42 20.5 -71t53.5 -45t72.5 -29t79 -28t72.5 -35.5t53.5 -57.5t20.5 -88q0 -96 -67 -148t-159 -52q-134 0 -214 102l40 35q74 -87 174 -87q67 0 117.5 39.5t50.5 107.5q0 48 -27.5 81t-68.5 48t-89.5 33
t-89.5 36.5t-68.5 59t-27.5 99.5q0 92 67 142t157 50q130 0 194 -84zM327 908l107 -144h-53l-86 115l-86 -115h-53l107 144h64z" />
    <glyph glyph-name="scircumflex" unicode="&#x15d;" horiz-adv-x="435" 
d="M379 399l-42 -30q-38 64 -117 64q-42 0 -73.5 -20.5t-31.5 -60.5q0 -37 28 -56.5t89 -32.5q79 -18 117.5 -48.5t38.5 -85.5q0 -70 -49.5 -105.5t-119.5 -35.5q-119 0 -177 87l43 31q21 -33 56.5 -52.5t77.5 -19.5q48 0 81.5 22.5t33.5 68.5q0 34 -28 54t-67.5 30
t-79.5 21.5t-68 40.5t-28 77q0 64 46 97t113 33q109 0 157 -79zM257 708l107 -144h-53l-86 115l-86 -115h-53l107 144h64z" />
    <glyph glyph-name="Scedilla" unicode="&#x15e;" horiz-adv-x="566" 
d="M491 643l-41 -37q-60 72 -156 72q-64 0 -114 -37.5t-50 -105.5q0 -42 20.5 -71t53.5 -45t72.5 -29t79 -28t72.5 -35.5t53.5 -57.5t20.5 -88q0 -91 -60 -141.5t-147 -57.5l-38 -60q15 5 40 5q33 0 58.5 -18.5t25.5 -52.5q0 -31 -19 -51.5t-43.5 -27t-53.5 -6.5
q-50 0 -93 20l13 31q33 -16 76 -16q26 0 49 12t23 37q0 43 -60 43q-30 0 -51 -10l-15 13l52 81q-124 6 -197 101l40 35q74 -87 174 -87q67 0 117.5 39.5t50.5 107.5q0 48 -27.5 81t-68.5 48t-89.5 33t-89.5 36.5t-68.5 59t-27.5 99.5q0 92 67 142t157 50q130 0 194 -84z" />
    <glyph glyph-name="scedilla" unicode="&#x15f;" horiz-adv-x="435" 
d="M379 399l-42 -30q-38 64 -117 64q-42 0 -73.5 -20.5t-31.5 -60.5q0 -37 28 -56.5t89 -32.5q79 -18 117.5 -48.5t38.5 -85.5q0 -64 -41.5 -98.5t-105.5 -41.5l-43 -67q15 5 40 5q33 0 58.5 -18.5t25.5 -52.5q0 -31 -19 -51.5t-43.5 -27t-53.5 -6.5q-50 0 -93 20l13 31
q33 -16 76 -16q26 0 49 12t23 37q0 43 -60 43q-30 0 -51 -10l-15 13l56 88q-109 5 -162 86l43 31q21 -33 56.5 -52.5t77.5 -19.5q48 0 81.5 22.5t33.5 68.5q0 34 -28 54t-67.5 30t-79.5 21.5t-68 40.5t-28 77q0 64 46 97t113 33q109 0 157 -79z" />
    <glyph glyph-name="Scaron" unicode="&#x160;" horiz-adv-x="566" 
d="M491 643l-41 -37q-60 72 -156 72q-64 0 -114 -37.5t-50 -105.5q0 -42 20.5 -71t53.5 -45t72.5 -29t79 -28t72.5 -35.5t53.5 -57.5t20.5 -88q0 -96 -67 -148t-159 -52q-134 0 -214 102l40 35q74 -87 174 -87q67 0 117.5 39.5t50.5 107.5q0 48 -27.5 81t-68.5 48t-89.5 33
t-89.5 36.5t-68.5 59t-27.5 99.5q0 92 67 142t157 50q130 0 194 -84zM428 908l-107 -144h-64l-107 144h53l86 -115l86 115h53z" />
    <glyph glyph-name="scaron" unicode="&#x161;" horiz-adv-x="435" 
d="M379 399l-42 -30q-38 64 -117 64q-42 0 -73.5 -20.5t-31.5 -60.5q0 -37 28 -56.5t89 -32.5q79 -18 117.5 -48.5t38.5 -85.5q0 -70 -49.5 -105.5t-119.5 -35.5q-119 0 -177 87l43 31q21 -33 56.5 -52.5t77.5 -19.5q48 0 81.5 22.5t33.5 68.5q0 34 -28 54t-67.5 30
t-79.5 21.5t-68 40.5t-28 77q0 64 46 97t113 33q109 0 157 -79zM364 708l-107 -144h-64l-107 144h53l86 -115l86 115h53z" />
    <glyph glyph-name="Tcommaaccent" unicode="&#x162;" horiz-adv-x="561" 
d="M309 657v-657h-57v657h-238v51h533v-51h-238zM326 -45l-71 -185h-45l59 185h57z" />
    <glyph glyph-name="tcommaaccent" unicode="&#x163;" horiz-adv-x="313" 
d="M294 466v-46h-133v-295q0 -47 19 -66.5t55 -19.5q30 0 57 13l3 -47q-37 -13 -74 -13q-48 0 -81 28.5t-33 91.5v308h-98v46h97v133h55v-133h133zM240 -45l-71 -185h-45l59 185h57z" />
    <glyph glyph-name="Tcaron" unicode="&#x164;" horiz-adv-x="561" 
d="M309 657v-657h-57v657h-238v51h533v-51h-238zM419 908l-107 -144h-64l-107 144h53l86 -115l86 115h53z" />
    <glyph glyph-name="tcaron" unicode="&#x165;" horiz-adv-x="323" 
d="M294 466v-46h-133v-295q0 -47 19 -66.5t55 -19.5q30 0 57 13l3 -47q-37 -13 -74 -13q-48 0 -81 28.5t-33 91.5v308h-98v46h97v133h55v-133h133zM342 731l-71 -185h-45l59 185h57z" />
    <glyph glyph-name="Tbar" unicode="&#x166;" horiz-adv-x="561" 
d="M69 544h183v113h-238v51h533v-51h-238v-113h176v-41h-176v-503h-57v503h-183v41z" />
    <glyph glyph-name="tbar" unicode="&#x167;" horiz-adv-x="313" 
d="M17 303h90v117h-98v46h97v133h55v-133h133v-46h-133v-117h122v-40h-122v-138q0 -47 19 -66.5t55 -19.5q30 0 57 13l3 -47q-37 -13 -74 -13q-48 0 -81 28.5t-33 91.5v151h-90v40z" />
    <glyph glyph-name="Utilde" unicode="&#x168;" horiz-adv-x="717" 
d="M358 -19q-74 0 -128.5 25.5t-83 68.5t-41.5 90t-13 100v443h57v-436q0 -36 5.5 -68.5t20.5 -64.5t38 -55t60 -37.5t85 -14.5q58 0 101 21t65.5 56.5t33 76t10.5 86.5v436h57v-443q0 -53 -13 -100t-42 -90t-83.5 -68.5t-128.5 -25.5zM245 781h-35q15 94 82 94
q23 0 71.5 -23.5t63.5 -23.5q33 0 46 49h35q-15 -93 -81 -93q-23 0 -71 23.5t-64 23.5q-34 0 -47 -50z" />
    <glyph glyph-name="utilde" unicode="&#x169;" horiz-adv-x="578" 
d="M488 0h-53q-4 33 -4 92h-2q-20 -48 -66 -76.5t-100 -28.5q-88 0 -131.5 53.5t-43.5 140.5v285h55v-264q0 -169 132 -169q64 0 109 51.5t45 144.5v237h54v-359q0 -55 5 -107zM175 581h-35q15 94 82 94q23 0 71.5 -23.5t63.5 -23.5q33 0 46 49h35q-15 -93 -81 -93
q-23 0 -71 23.5t-64 23.5q-34 0 -47 -50z" />
    <glyph glyph-name="Umacron" unicode="&#x16a;" horiz-adv-x="717" 
d="M358 -19q-74 0 -128.5 25.5t-83 68.5t-41.5 90t-13 100v443h57v-436q0 -36 5.5 -68.5t20.5 -64.5t38 -55t60 -37.5t85 -14.5q58 0 101 21t65.5 56.5t33 76t10.5 86.5v436h57v-443q0 -53 -13 -100t-42 -90t-83.5 -68.5t-128.5 -25.5zM488 850v-44h-258v44h258z" />
    <glyph glyph-name="umacron" unicode="&#x16b;" horiz-adv-x="578" 
d="M488 0h-53q-4 33 -4 92h-2q-20 -48 -66 -76.5t-100 -28.5q-88 0 -131.5 53.5t-43.5 140.5v285h55v-264q0 -169 132 -169q64 0 109 51.5t45 144.5v237h54v-359q0 -55 5 -107zM416 650v-44h-258v44h258z" />
    <glyph glyph-name="Ubreve" unicode="&#x16c;" horiz-adv-x="717" 
d="M358 -19q-74 0 -128.5 25.5t-83 68.5t-41.5 90t-13 100v443h57v-436q0 -36 5.5 -68.5t20.5 -64.5t38 -55t60 -37.5t85 -14.5q58 0 101 21t65.5 56.5t33 76t10.5 86.5v436h57v-443q0 -53 -13 -100t-42 -90t-83.5 -68.5t-128.5 -25.5zM463 905h36q-5 -62 -43 -96t-98 -34
q-59 0 -97 34.5t-43 95.5h37q8 -42 36 -64t67 -22q89 0 105 86z" />
    <glyph glyph-name="ubreve" unicode="&#x16d;" horiz-adv-x="578" 
d="M488 0h-53q-4 33 -4 92h-2q-20 -48 -66 -76.5t-100 -28.5q-88 0 -131.5 53.5t-43.5 140.5v285h55v-264q0 -169 132 -169q64 0 109 51.5t45 144.5v237h54v-359q0 -55 5 -107zM393 705h36q-5 -62 -43 -96t-98 -34q-59 0 -97 34.5t-43 95.5h37q8 -42 36 -64t67 -22
q89 0 105 86z" />
    <glyph glyph-name="Uring" unicode="&#x16e;" horiz-adv-x="717" 
d="M358 -19q-74 0 -128.5 25.5t-83 68.5t-41.5 90t-13 100v443h57v-436q0 -36 5.5 -68.5t20.5 -64.5t38 -55t60 -37.5t85 -14.5q58 0 101 21t65.5 56.5t33 76t10.5 86.5v436h57v-443q0 -53 -13 -100t-42 -90t-83.5 -68.5t-128.5 -25.5zM456 850q0 -40 -28.5 -67.5
t-67.5 -27.5t-67.5 27.5t-28.5 67.5q0 39 28.5 67t67.5 28t67.5 -28t28.5 -67zM425 850q0 27 -19 46t-46 19t-46 -19t-19 -46t19 -46t46 -19t46 19t19 46z" />
    <glyph glyph-name="uring" unicode="&#x16f;" horiz-adv-x="578" 
d="M488 0h-53q-4 33 -4 92h-2q-20 -48 -66 -76.5t-100 -28.5q-88 0 -131.5 53.5t-43.5 140.5v285h55v-264q0 -169 132 -169q64 0 109 51.5t45 144.5v237h54v-359q0 -55 5 -107zM383 650q0 -40 -28.5 -67.5t-67.5 -27.5t-67.5 27.5t-28.5 67.5q0 39 28.5 67t67.5 28t67.5 -28
t28.5 -67zM352 650q0 27 -19 46t-46 19t-46 -19t-19 -46t19 -46t46 -19t46 19t19 46z" />
    <glyph glyph-name="Uhungarumlaut" unicode="&#x170;" horiz-adv-x="717" 
d="M358 -19q-74 0 -128.5 25.5t-83 68.5t-41.5 90t-13 100v443h57v-436q0 -36 5.5 -68.5t20.5 -64.5t38 -55t60 -37.5t85 -14.5q58 0 101 21t65.5 56.5t33 76t10.5 86.5v436h57v-443q0 -53 -13 -100t-42 -90t-83.5 -68.5t-128.5 -25.5zM251 764l101 144h72l-126 -144h-47z
M405 764l101 144h72l-126 -144h-47z" />
    <glyph glyph-name="uhungarumlaut" unicode="&#x171;" horiz-adv-x="578" 
d="M488 0h-53q-4 33 -4 92h-2q-20 -48 -66 -76.5t-100 -28.5q-88 0 -131.5 53.5t-43.5 140.5v285h55v-264q0 -169 132 -169q64 0 109 51.5t45 144.5v237h54v-359q0 -55 5 -107zM181 564l101 144h72l-126 -144h-47zM335 564l101 144h72l-126 -144h-47z" />
    <glyph glyph-name="Uogonek" unicode="&#x172;" horiz-adv-x="717" 
d="M367 -18h-12q-60 0 -106.5 17.5t-75.5 45t-48 65.5t-26 76t-7 79v443h57v-436q0 -36 5.5 -68.5t20.5 -64.5t38 -55t60 -37.5t85 -14.5q58 0 101 21t65.5 56.5t33 76t10.5 86.5v436h57v-443q0 -47 -10.5 -90t-33 -83.5t-65.5 -68.5t-101 -37q-37 -38 -52.5 -62t-15.5 -51
q0 -24 15 -38.5t39 -14.5q33 0 57 24l16 -32q-35 -35 -88 -35q-36 0 -62 23.5t-26 60.5q0 54 69 121z" />
    <glyph glyph-name="uogonek" unicode="&#x173;" horiz-adv-x="578" 
d="M434 -223q-36 0 -62 23.5t-26 60.5q0 62 90 139h-1q-4 33 -4 92h-2q-20 -48 -66 -76.5t-100 -28.5q-88 0 -131.5 53.5t-43.5 140.5v285h55v-264q0 -169 132 -169q64 0 109 51.5t45 144.5v237h54v-359q0 -55 5 -107h-6q-6 -1 -7 -1q-43 -43 -61.5 -70t-18.5 -56
q0 -24 15 -38.5t39 -14.5q33 0 56 24l17 -32q-35 -35 -88 -35z" />
    <glyph glyph-name="Wcircumflex" unicode="&#x174;" horiz-adv-x="967" 
d="M78 708l184 -633h2l184 633h71l185 -633h3l182 633h60l-210 -708h-69l-186 632h-2l-185 -632h-69l-210 708h60zM515 908l107 -144h-53l-86 115l-86 -115h-53l107 144h64z" />
    <glyph glyph-name="wcircumflex" unicode="&#x175;" horiz-adv-x="732" 
d="M28 466h58l117 -398h2l133 398h55l135 -398h2l116 398h57l-144 -466h-61l-132 396h-2l-131 -396h-61zM396 708l107 -144h-53l-86 115l-86 -115h-53l107 144h64z" />
    <glyph glyph-name="Ycircumflex" unicode="&#x176;" horiz-adv-x="583" 
d="M320 306v-306h-57v306l-259 402h71l218 -353l219 353h66zM325 908l107 -144h-53l-86 115l-86 -115h-53l107 144h64z" />
    <glyph glyph-name="ycircumflex" unicode="&#x177;" horiz-adv-x="470" 
d="M84 -241q-25 0 -55 7l7 49q22 -8 46 -8q34 0 54.5 21.5t36.5 63.5l40 105l-195 469h61l162 -411l2 2l150 409h59l-232 -596q-22 -55 -53 -83t-83 -28zM273 708l107 -144h-53l-86 115l-86 -115h-53l107 144h64z" />
    <glyph glyph-name="Ydieresis" unicode="&#x178;" horiz-adv-x="583" 
d="M320 306v-306h-57v306l-259 402h71l218 -353l219 353h66zM160 851q0 18 12.5 30.5t30.5 12.5t30 -12.5t12 -30.5t-12 -31t-30 -13t-30.5 13t-12.5 31zM341 851q0 18 12 30.5t30 12.5t30.5 -12.5t12.5 -30.5t-12.5 -31t-30.5 -13t-30 13t-12 31z" />
    <glyph glyph-name="Zacute" unicode="&#x179;" horiz-adv-x="579" 
d="M536 708v-51l-428 -606h436v-51h-506v50l429 607h-418v51h487zM425 908l-126 -144h-47l101 144h72z" />
    <glyph glyph-name="zacute" unicode="&#x17a;" horiz-adv-x="441" 
d="M393 466v-41l-286 -378h297v-47h-368v40l287 380h-272v46h342zM359 708l-126 -144h-47l101 144h72z" />
    <glyph glyph-name="Zdotaccent" unicode="&#x17b;" horiz-adv-x="579" 
d="M536 708v-51l-428 -606h436v-51h-506v50l429 607h-418v51h487zM332 851q0 -17 -12.5 -29t-28.5 -12t-28.5 12t-12.5 29t12.5 29t28.5 12t28.5 -12t12.5 -29z" />
    <glyph glyph-name="zdotaccent" unicode="&#x17c;" horiz-adv-x="441" 
d="M393 466v-41l-286 -378h297v-47h-368v40l287 380h-272v46h342zM264 651q0 -17 -12.5 -29t-28.5 -12t-28.5 12t-12.5 29t12.5 29t28.5 12t28.5 -12t12.5 -29z" />
    <glyph glyph-name="Zcaron" unicode="&#x17d;" horiz-adv-x="579" 
d="M536 708v-51l-428 -606h436v-51h-506v50l429 607h-418v51h487zM430 908l-107 -144h-64l-107 144h53l86 -115l86 115h53z" />
    <glyph glyph-name="zcaron" unicode="&#x17e;" horiz-adv-x="441" 
d="M393 466v-41l-286 -378h297v-47h-368v40l287 380h-272v46h342zM363 708l-107 -144h-64l-107 144h53l86 -115l86 115h53z" />
    <glyph glyph-name="florin" unicode="&#x192;" horiz-adv-x="574" 
d="M429 416v-44h-120l-69 -369q-26 -143 -144 -143q-44 0 -72 16l22 44q22 -12 51 -12q44 0 62.5 29t28.5 83l65 352h-109v44h118l28 152q25 152 145 152q51 0 86 -26l-27 -39q-26 17 -56 17q-75 0 -95 -115l-25 -141h111z" />
    <glyph glyph-name="Scommaaccent" unicode="&#x218;" horiz-adv-x="566" 
d="M491 643l-41 -37q-60 72 -156 72q-64 0 -114 -37.5t-50 -105.5q0 -42 20.5 -71t53.5 -45t72.5 -29t79 -28t72.5 -35.5t53.5 -57.5t20.5 -88q0 -96 -67 -148t-159 -52q-134 0 -214 102l40 35q74 -87 174 -87q67 0 117.5 39.5t50.5 107.5q0 48 -27.5 81t-68.5 48t-89.5 33
t-89.5 36.5t-68.5 59t-27.5 99.5q0 92 67 142t157 50q130 0 194 -84zM330 -46l-71 -185h-45l59 185h57z" />
    <glyph glyph-name="scommaaccent" unicode="&#x219;" horiz-adv-x="435" 
d="M379 399l-42 -30q-38 64 -117 64q-42 0 -73.5 -20.5t-31.5 -60.5q0 -37 28 -56.5t89 -32.5q79 -18 117.5 -48.5t38.5 -85.5q0 -70 -49.5 -105.5t-119.5 -35.5q-119 0 -177 87l43 31q21 -33 56.5 -52.5t77.5 -19.5q48 0 81.5 22.5t33.5 68.5q0 34 -28 54t-67.5 30
t-79.5 21.5t-68 40.5t-28 77q0 64 46 97t113 33q109 0 157 -79zM261 -46l-71 -185h-45l59 185h57z" />
    <glyph glyph-name="uni021A" unicode="&#x21a;" horiz-adv-x="561" 
d="M309 657v-657h-57v657h-238v51h533v-51h-238zM326 -45l-71 -185h-45l59 185h57z" />
    <glyph glyph-name="uni021B" unicode="&#x21b;" horiz-adv-x="313" 
d="M294 466v-46h-133v-295q0 -47 19 -66.5t55 -19.5q30 0 57 13l3 -47q-37 -13 -74 -13q-48 0 -81 28.5t-33 91.5v308h-98v46h97v133h55v-133h133zM240 -45l-71 -185h-45l59 185h57z" />
    <glyph glyph-name="dotlessj" unicode="&#x237;" horiz-adv-x="244" 
d="M-24 -234l8 45q22 -5 38 -5q44 0 58.5 27.5t14.5 79.5v553h54v-560q0 -68 -28 -107t-98 -39q-29 0 -47 6z" />
    <glyph glyph-name="circumflex" unicode="&#x2c6;" horiz-adv-x="240" 
d="M152 708l107 -144h-53l-86 115l-86 -115h-53l107 144h64z" />
    <glyph glyph-name="caron" unicode="&#x2c7;" horiz-adv-x="240" 
d="M259 708l-107 -144h-64l-107 144h53l86 -115l86 115h53z" />
    <glyph glyph-name="uni02C9" unicode="&#x2c9;" horiz-adv-x="240" 
d="M249 850v-44h-258v44h258z" />
    <glyph glyph-name="breve" unicode="&#x2d8;" horiz-adv-x="240" 
d="M224 705h36q-5 -62 -43 -96t-98 -34q-59 0 -97 34.5t-43 95.5h37q8 -42 36 -64t67 -22q89 0 105 86z" />
    <glyph glyph-name="dotaccent" unicode="&#x2d9;" horiz-adv-x="240" 
d="M161 651q0 -17 -12.5 -29t-28.5 -12t-28.5 12t-12.5 29t12.5 29t28.5 12t28.5 -12t12.5 -29z" />
    <glyph glyph-name="ring" unicode="&#x2da;" horiz-adv-x="240" 
d="M216 650q0 -40 -28.5 -67.5t-67.5 -27.5t-67.5 27.5t-28.5 67.5q0 39 28.5 67t67.5 28t67.5 -28t28.5 -67zM185 650q0 27 -19 46t-46 19t-46 -19t-19 -46t19 -46t46 -19t46 19t19 46z" />
    <glyph glyph-name="ogonek" unicode="&#x2db;" horiz-adv-x="240" 
d="M192 -156l17 -32q-35 -35 -88 -35q-36 0 -62 23.5t-26 60.5q0 62 90 139h40q-44 -45 -62.5 -72t-18.5 -55q0 -24 15 -38.5t39 -14.5q35 0 56 24z" />
    <glyph glyph-name="tilde" unicode="&#x2dc;" horiz-adv-x="240" 
d="M6 581h-35q15 94 82 94q23 0 71.5 -23.5t63.5 -23.5q33 0 46 49h35q-15 -93 -81 -93q-23 0 -71 23.5t-64 23.5q-34 0 -47 -50z" />
    <glyph glyph-name="hungarumlaut" unicode="&#x2dd;" horiz-adv-x="240" 
d="M-30 564l101 144h72l-126 -144h-47zM124 564l101 144h72l-126 -144h-47z" />
    <glyph glyph-name="uni0394" unicode="&#x394;" horiz-adv-x="666" 
d="M646 0h-624l279 712h61zM570 49l-239 610l-237 -610h476z" />
    <glyph glyph-name="uni03A9" unicode="&#x3a9;" horiz-adv-x="742" 
d="M678 0h-238v175q89 15 137 81.5t48 159.5q0 110 -74.5 183t-185.5 73q-109 0 -184 -73t-75 -183q0 -93 48 -160t137 -81v-175h-238v47h195v94q-91 25 -143 101.5t-52 174.5q0 130 91.5 217t221.5 87q129 0 220.5 -86.5t91.5 -216.5q0 -99 -51.5 -175t-143.5 -102v-94h195
v-47z" />
    <glyph glyph-name="uni03BC" unicode="&#x3bc;" horiz-adv-x="556" 
d="M79 -228v694h52v-264q0 -83 30.5 -125t102.5 -42q66 0 110 52t44 142v237h53v-359q0 -64 4 -107h-57v89h-2q-22 -45 -67.5 -73.5t-96.5 -28.5q-77 0 -121 46v-261h-52z" />
    <glyph glyph-name="pi" unicode="&#x3c0;" horiz-adv-x="561" 
d="M523 47v-38q-33 -15 -60 -15q-21 0 -35 6.5t-21 15t-11 25.5t-4.5 29.5t-0.5 35.5v312h-234v-418h-51v418h-71v48h483v-48h-76v-320q0 -31 7.5 -45t34.5 -14q18 0 39 8z" />
    <glyph glyph-name="Wgrave" unicode="&#x1e80;" horiz-adv-x="967" 
d="M78 708l184 -633h2l184 633h71l185 -633h3l182 633h60l-210 -708h-69l-186 632h-2l-185 -632h-69l-210 708h60zM465 764l-126 144h72l101 -144h-47z" />
    <glyph glyph-name="wgrave" unicode="&#x1e81;" horiz-adv-x="732" 
d="M28 466h58l117 -398h2l133 398h55l135 -398h2l116 398h57l-144 -466h-61l-132 396h-2l-131 -396h-61zM339 564l-126 144h72l101 -144h-47z" />
    <glyph glyph-name="Wacute" unicode="&#x1e82;" horiz-adv-x="967" 
d="M78 708l184 -633h2l184 633h71l185 -633h3l182 633h60l-210 -708h-69l-186 632h-2l-185 -632h-69l-210 708h60zM629 908l-126 -144h-47l101 144h72z" />
    <glyph glyph-name="wacute" unicode="&#x1e83;" horiz-adv-x="732" 
d="M28 466h58l117 -398h2l133 398h55l135 -398h2l116 398h57l-144 -466h-61l-132 396h-2l-131 -396h-61zM519 708l-126 -144h-47l101 144h72z" />
    <glyph glyph-name="Wdieresis" unicode="&#x1e84;" horiz-adv-x="967" 
d="M78 708l184 -633h2l184 633h71l185 -633h3l182 633h60l-210 -708h-69l-186 632h-2l-185 -632h-69l-210 708h60zM350 851q0 18 12.5 30.5t30.5 12.5t30 -12.5t12 -30.5t-12 -31t-30 -13t-30.5 13t-12.5 31zM531 851q0 18 12 30.5t30 12.5t30.5 -12.5t12.5 -30.5t-12.5 -31
t-30.5 -13t-30 13t-12 31z" />
    <glyph glyph-name="wdieresis" unicode="&#x1e85;" horiz-adv-x="732" 
d="M28 466h58l117 -398h2l133 398h55l135 -398h2l116 398h57l-144 -466h-61l-132 396h-2l-131 -396h-61zM232 651q0 18 12.5 30.5t30.5 12.5t30 -12.5t12 -30.5t-12 -31t-30 -13t-30.5 13t-12.5 31zM413 651q0 18 12 30.5t30 12.5t30.5 -12.5t12.5 -30.5t-12.5 -31
t-30.5 -13t-30 13t-12 31z" />
    <glyph glyph-name="Ygrave" unicode="&#x1ef2;" horiz-adv-x="583" 
d="M320 306v-306h-57v306l-259 402h71l218 -353l219 353h66zM281 764l-126 144h72l101 -144h-47z" />
    <glyph glyph-name="ygrave" unicode="&#x1ef3;" horiz-adv-x="470" 
d="M84 -241q-25 0 -55 7l7 49q22 -8 46 -8q34 0 54.5 21.5t36.5 63.5l40 105l-195 469h61l162 -411l2 2l150 409h59l-232 -596q-22 -55 -53 -83t-83 -28zM227 564l-126 144h72l101 -144h-47z" />
    <glyph glyph-name="endash" unicode="&#x2013;" horiz-adv-x="400" 
d="M370 269v-46h-340v46h340z" />
    <glyph glyph-name="emdash" unicode="&#x2014;" horiz-adv-x="600" 
d="M570 269v-46h-540v46h540z" />
    <glyph glyph-name="quoteleft" unicode="&#x2018;" horiz-adv-x="221" 
d="M50 475l76 233h45l-64 -233h-57z" />
    <glyph glyph-name="quoteright" unicode="&#x2019;" horiz-adv-x="221" 
d="M171 708l-76 -233h-45l64 233h57z" />
    <glyph glyph-name="quotesinglbase" unicode="&#x201a;" horiz-adv-x="221" 
d="M171 94l-76 -233h-45l64 233h57z" />
    <glyph glyph-name="quotedblleft" unicode="&#x201c;" horiz-adv-x="376" 
d="M50 475l77 233h45l-65 -233h-57zM205 475l76 233h45l-64 -233h-57z" />
    <glyph glyph-name="quotedblright" unicode="&#x201d;" horiz-adv-x="376" 
d="M204 475l65 233h57l-77 -233h-45zM50 475l64 233h57l-76 -233h-45z" />
    <glyph glyph-name="quotedblbase" unicode="&#x201e;" horiz-adv-x="376" 
d="M204 -139l65 233h57l-77 -233h-45zM50 -139l64 233h57l-76 -233h-45z" />
    <glyph glyph-name="dagger" unicode="&#x2020;" horiz-adv-x="545" 
d="M299 708v-205h201v-48h-201v-581h-53v581h-201v48h201v205h53z" />
    <glyph glyph-name="daggerdbl" unicode="&#x2021;" horiz-adv-x="545" 
d="M299 708v-196h195v-49h-195v-344h195v-49h-195v-196h-53v196h-195v49h195v344h-195v49h195v196h53z" />
    <glyph glyph-name="bullet" unicode="&#x2022;" horiz-adv-x="500" 
d="M73 354q0 74 51.5 125.5t125.5 51.5t125.5 -51.5t51.5 -125.5t-51.5 -125.5t-125.5 -51.5t-125.5 51.5t-51.5 125.5z" />
    <glyph glyph-name="ellipsis" unicode="&#x2026;" horiz-adv-x="1000" 
d="M211 40q0 -19 -12.5 -32.5t-32.5 -13.5t-32 13.5t-12 32.5q0 18 12.5 31.5t31.5 13.5q20 0 32.5 -13.5t12.5 -31.5zM545 40q0 -19 -12.5 -32.5t-32.5 -13.5t-32.5 13.5t-12.5 32.5q0 18 12.5 31.5t32.5 13.5t32.5 -13.5t12.5 -31.5zM878 40q0 -19 -12.5 -32.5
t-31.5 -13.5q-20 0 -32.5 13.5t-12.5 32.5q0 18 12.5 31.5t32.5 13.5q19 0 31.5 -13.5t12.5 -31.5z" />
    <glyph glyph-name="perthousand" unicode="&#x2030;" horiz-adv-x="1000" 
d="M473 -10q-62 0 -106 44.5t-44 107.5q0 62 44 107t106 45q63 0 107 -44.5t44 -107.5t-44 -107.5t-107 -44.5zM473 34q45 0 76 31.5t31 76.5t-31 76.5t-76 31.5q-44 0 -74.5 -31.5t-30.5 -76.5t30.5 -76.5t74.5 -31.5zM821 -10q-62 0 -106.5 44.5t-44.5 107.5
q0 62 44.5 107t106.5 45q63 0 107 -44.5t44 -107.5t-44 -107.5t-107 -44.5zM821 34q44 0 75.5 31.5t31.5 76.5t-31.5 76.5t-75.5 31.5t-75 -31.5t-31 -76.5t31 -76.5t75 -31.5zM587 716l-447 -746l-41 22l448 746zM181 416q-62 0 -106.5 44.5t-44.5 107.5q0 62 44.5 107
t106.5 45q63 0 107 -44.5t44 -107.5t-44 -107.5t-107 -44.5zM181 460q44 0 75.5 31.5t31.5 76.5t-31.5 76.5t-75.5 31.5t-75 -31.5t-31 -76.5t31 -76.5t75 -31.5z" />
    <glyph glyph-name="guilsinglleft" unicode="&#x2039;" horiz-adv-x="315" 
d="M124 239l115 -179l-38 -26l-135 205l134 205l38 -26z" />
    <glyph glyph-name="guilsinglright" unicode="&#x203a;" horiz-adv-x="315" 
d="M191 239l-115 179l38 27l135 -206l-134 -205l-38 26z" />
    <glyph glyph-name="fraction" unicode="&#x2044;" horiz-adv-x="100" 
d="M287 716l-447 -746l-42 22l448 746z" />
    <glyph glyph-name="zero.superior" unicode="&#x2070;" 
d="M321 663q0 -42 -6.5 -79t-21.5 -69.5t-43.5 -51.5t-67.5 -19q-40 0 -68.5 19t-43.5 52t-21.5 69t-6.5 79q0 58 11 104t44 80.5t85 34.5q39 0 67.5 -19t43.5 -51.5t21.5 -69.5t6.5 -79zM271 663q0 30 -4 58t-13 56t-27.5 45t-44.5 17q-35 0 -56.5 -31t-27.5 -67t-6 -78
q0 -43 6 -79t27.5 -66.5t56.5 -30.5q26 0 44.5 17t27.5 45t13 56t4 58z" />
    <glyph glyph-name="four.superior" unicode="&#x2074;" 
d="M267 452h-44v101h-190v43l177 278h57v-278h62v-43h-62v-101zM223 596v214h-3l-137 -214h140z" />
    <glyph glyph-name="five.superior" unicode="&#x2075;" 
d="M313 586q0 -65 -39.5 -103.5t-100.5 -38.5q-90 0 -129 79l44 18q31 -54 85 -54q39 0 65 25.5t26 70.5q0 43 -26 69.5t-71 26.5q-40 0 -91 -28l4 223h216v-44h-169l-3 -119q19 9 54 9q62 0 98.5 -37t36.5 -97z" />
    <glyph glyph-name="six.superior" unicode="&#x2076;" 
d="M320 579q0 -59 -39 -97t-99 -38q-59 0 -98 38t-39 97q0 53 38 112l112 183h57l-110 -173l1 -1q21 12 46 12q56 0 93.5 -37.5t37.5 -95.5zM271 579q0 39 -24 65t-63 26t-65 -26t-26 -65q0 -40 25 -66t65 -26q38 0 63 26t25 66z" />
    <glyph glyph-name="seven.superior" unicode="&#x2077;" 
d="M143 452h-54l169 378h-196v44h249v-39z" />
    <glyph glyph-name="eight.superior" unicode="&#x2078;" 
d="M317 568q0 -55 -39.5 -89.5t-95.5 -34.5t-96 34.5t-40 89.5q0 77 71 108v1q-55 28 -55 93q0 49 34.5 80.5t85.5 31.5t85.5 -31.5t34.5 -80.5q0 -63 -56 -93v-1q33 -14 52 -43t19 -65zM182 839q-31 0 -51.5 -19.5t-20.5 -51.5q0 -30 20.5 -50.5t51.5 -20.5t51.5 20.5
t20.5 50.5q0 32 -20.5 51.5t-51.5 19.5zM182 654q-38 0 -63 -24t-25 -60t24.5 -59.5t63.5 -23.5t63 23.5t24 59.5t-24.5 60t-62.5 24z" />
    <glyph glyph-name="nine.superior" unicode="&#x2079;" 
d="M319 748q-1 -55 -38 -114l-112 -182h-57l111 174l-1 1q-19 -12 -47 -12q-56 0 -93.5 37.5t-37.5 95.5t39.5 96t98.5 38t98 -38t39 -96zM271 748q0 38 -25.5 64.5t-63.5 26.5q-39 0 -64 -26t-25 -65q0 -40 24.5 -65.5t63.5 -25.5t64.5 26t25.5 65z" />
    <glyph glyph-name="zero.inferior" unicode="&#x2080;" 
d="M321 73q0 -42 -6.5 -79t-21.5 -69.5t-43.5 -51.5t-67.5 -19q-40 0 -68.5 19t-43.5 52t-21.5 69t-6.5 79q0 58 11 104t44 80.5t85 34.5q39 0 67.5 -19t43.5 -51.5t21.5 -69.5t6.5 -79zM271 73q0 30 -4 58t-13 56t-27.5 45t-44.5 17q-35 0 -56.5 -31t-27.5 -67t-6 -78
q0 -43 6 -79t27.5 -66.5t56.5 -30.5q26 0 44.5 17t27.5 45t13 56t4 58z" />
    <glyph glyph-name="one.inferior" unicode="&#x2081;" 
d="M221 283v-421h-50v361l-73 -59l-30 34l111 85h42z" />
    <glyph glyph-name="two.inferior" unicode="&#x2082;" 
d="M313 -94v-44h-268v46l163 169q51 51 52 100q0 33 -21 52t-54 19q-66 0 -83 -71l-47 8q10 49 45.5 78t84.5 29q56 0 91 -30t35 -83q0 -39 -18 -68t-57 -69l-132 -136h209z" />
    <glyph glyph-name="three.inferior" unicode="&#x2083;" 
d="M174 -146q-98 0 -135 88l45 16q12 -29 36 -45t54 -16q38 0 62.5 22t24.5 61q0 41 -30 61t-73 20h-24v41h24q42 0 66.5 20t24.5 58q0 31 -22 50.5t-54 19.5q-52 0 -78 -48l-39 21q41 69 119 69q55 0 88 -29.5t33 -82.5q0 -69 -64 -94l-3 -2q80 -24 80 -105q0 -59 -39 -92
t-96 -33z" />
    <glyph glyph-name="four.inferior" unicode="&#x2084;" 
d="M267 -138h-44v101h-190v43l177 278h57v-278h62v-43h-62v-101zM223 6v214h-3l-137 -214h140z" />
    <glyph glyph-name="five.inferior" unicode="&#x2085;" 
d="M313 -4q0 -65 -39.5 -103.5t-100.5 -38.5q-90 0 -129 79l44 18q31 -54 85 -54q39 0 65 25.5t26 70.5q0 43 -26 69.5t-71 26.5q-40 0 -91 -28l4 223h216v-44h-169l-3 -119q19 9 54 9q62 0 98.5 -37t36.5 -97z" />
    <glyph glyph-name="six.inferior" unicode="&#x2086;" 
d="M320 -11q0 -59 -39 -97t-99 -38q-59 0 -98 38t-39 97q0 53 38 112l112 183h57l-110 -173l1 -1q21 12 46 12q56 0 93.5 -37.5t37.5 -95.5zM271 -11q0 39 -24 65t-63 26t-65 -26t-26 -65q0 -40 25 -66t65 -26q38 0 63 26t25 66z" />
    <glyph glyph-name="seven.inferior" unicode="&#x2087;" 
d="M143 -138h-54l169 378h-196v44h249v-39z" />
    <glyph glyph-name="eight.inferior" unicode="&#x2088;" 
d="M317 -22q0 -55 -39.5 -89.5t-95.5 -34.5t-96 34.5t-40 89.5q0 77 71 108v1q-55 28 -55 93q0 49 34.5 80.5t85.5 31.5t85.5 -31.5t34.5 -80.5q0 -63 -56 -93v-1q33 -14 52 -43t19 -65zM182 249q-31 0 -51.5 -19.5t-20.5 -51.5q0 -30 20.5 -50.5t51.5 -20.5t51.5 20.5
t20.5 50.5q0 32 -20.5 51.5t-51.5 19.5zM182 64q-38 0 -63 -24t-25 -60t24.5 -59.5t63.5 -23.5t63 23.5t24 59.5t-24.5 60t-62.5 24z" />
    <glyph glyph-name="nine.inferior" unicode="&#x2089;" 
d="M319 158q-1 -55 -38 -114l-112 -182h-57l111 174l-1 1q-20 -12 -47 -12q-56 0 -93.5 37.5t-37.5 95.5t39.5 96t98.5 38t98 -38t39 -96zM271 158q0 38 -25.5 64.5t-63.5 26.5q-39 0 -64 -26t-25 -65q0 -40 24.5 -65.5t63.5 -25.5t64.5 26t25.5 65z" />
    <glyph glyph-name="Euro" unicode="&#x20ac;" horiz-adv-x="574" 
d="M530 694l-20 -48q-53 30 -130 30q-88 0 -148.5 -56.5t-82.5 -157.5h311l-15 -45h-303q-5 -33 -5 -68q0 -38 4 -59h266l-15 -45h-246q16 -97 80.5 -155t152.5 -58q83 0 140 41l24 -45q-65 -47 -172 -47q-114 0 -189.5 76t-94.5 188h-72l16 45h51q-3 45 -3 58q0 46 4 69
h-67l16 45h57q27 126 106 195.5t188 69.5q86 0 147 -33z" />
    <glyph glyph-name="afii61289" unicode="&#x2113;" horiz-adv-x="500" 
d="M387 66l20 -28q-55 -52 -122 -52q-52 0 -85.5 31.5t-33.5 92.5v129l-59 -65h-2l-21 29l82 84v263q0 81 33.5 126t85.5 45q45 0 73 -33t28 -91q0 -141 -167 -320v-158q0 -50 23 -70.5t55 -20.5q47 0 88 38h2zM341 593q0 40 -16 64.5t-40 24.5q-27 0 -46.5 -31.5
t-19.5 -92.5v-233q122 142 122 268z" />
    <glyph glyph-name="trademark" unicode="&#x2122;" horiz-adv-x="1000" 
d="M397 708v-44h-133v-368h-49v368h-135v44h317zM917 708v-412h-49v359h-2l-148 -359h-31l-147 359h-2v-359h-49v412h77l138 -334l138 334h75z" />
    <glyph glyph-name="Omega" unicode="&#x2126;" horiz-adv-x="742" 
d="M678 0h-238v175q89 15 137 81.5t48 159.5q0 110 -74.5 183t-185.5 73q-109 0 -184 -73t-75 -183q0 -93 48 -160t137 -81v-175h-238v47h195v94q-91 25 -143 101.5t-52 174.5q0 130 91.5 217t221.5 87q129 0 220.5 -86.5t91.5 -216.5q0 -99 -51.5 -175t-143.5 -102v-94h195
v-47z" />
    <glyph glyph-name="estimated" unicode="&#x212e;" horiz-adv-x="605" 
d="M561 259h-404v-181q59 -59 145 -59q63 0 109 28.5t84 91.5l35 -21q-46 -73 -98 -104t-130 -31q-115 0 -186.5 79t-71.5 197q0 119 71 197.5t187 78.5q115 0 187 -77t72 -199zM157 295h291v145q-63 60 -147 60t-144 -60v-145z" />
    <glyph glyph-name="partialdiff" unicode="&#x2202;" horiz-adv-x="490" 
d="M226 -13q-85 0 -138.5 65t-53.5 157q0 93 51.5 152.5t136.5 59.5q51 0 96 -25t76 -68q0 11 0.5 31t0.5 30q0 75 -18 138t-61 107t-106 44q-53 0 -111 -45l-29 35q62 54 137 54q53 0 94.5 -21t68 -55.5t44 -82t24.5 -96.5t7 -103q0 -78 -11 -142t-35 -119t-68 -85.5
t-105 -30.5zM227 30q43 0 75.5 24.5t50 65t26 79t10.5 78.5q-67 99 -162 99q-66 0 -104 -49.5t-38 -118.5q0 -68 38.5 -123t103.5 -55z" />
    <glyph glyph-name="Delta" unicode="&#x2206;" horiz-adv-x="666" 
d="M646 0h-624l279 712h61zM570 49l-239 610l-237 -610h476z" />
    <glyph glyph-name="product" unicode="&#x220f;" horiz-adv-x="709" 
d="M632 -214h-53v951h-449v-951h-53v1000h555v-1000z" />
    <glyph glyph-name="summation" unicode="&#x2211;" horiz-adv-x="601" 
d="M569 -214h-538v45l332 458l-318 451v46h512v-49h-445l316 -448l-333 -454h474v-49z" />
    <glyph glyph-name="minus" unicode="&#x2212;" horiz-adv-x="666" 
d="M581 328v-48h-496v48h496z" />
    <glyph glyph-name="uni2215" unicode="&#x2215;" horiz-adv-x="100" 
d="M287 716l-447 -746l-42 22l448 746z" />
    <glyph glyph-name="uni2219" unicode="&#x2219;" horiz-adv-x="254" 
d="M172 296q0 -19 -12.5 -32t-32.5 -13t-32.5 13t-12.5 32t12.5 32.5t32.5 13.5t32.5 -13.5t12.5 -32.5z" />
    <glyph glyph-name="radical" unicode="&#x221a;" horiz-adv-x="488" 
d="M492 786l-209 -1000h-56l-165 348l-51 -24l-19 41l94 44l162 -344l194 935h50z" />
    <glyph glyph-name="infinity" unicode="&#x221e;" horiz-adv-x="735" 
d="M184 107q-60 0 -96.5 39.5t-36.5 102.5q0 61 36.5 102t95.5 41q34 0 72 -20.5t59.5 -39.5t56.5 -54l9 9q34 34 53.5 51.5t54.5 36t67 18.5q60 0 97.5 -40t37.5 -102t-37 -103t-97 -41q-34 0 -71 19.5t-58 38t-56 53.5q-4 -3 -23 -21t-25.5 -23.5t-24 -19.5t-27.5 -19.5
t-26 -13.5t-30.5 -11t-30.5 -3zM185 153q60 0 155 95q-33 32 -53 49t-50 33.5t-55 16.5q-40 0 -62.5 -28.5t-22.5 -69.5q0 -42 23.5 -69t64.5 -27zM559 153q40 0 62.5 27t22.5 68q0 43 -23.5 71.5t-64.5 28.5q-25 0 -54 -16.5t-48.5 -34t-52.5 -50.5q47 -46 83.5 -70
t74.5 -24z" />
    <glyph glyph-name="integral" unicode="&#x222b;" horiz-adv-x="541" 
d="M162 -210q-56 0 -56 42q0 12 8.5 20t20.5 8q16 0 28.5 -18t19.5 -18q39 0 39 164l1 167q0 20 0.5 209t0.5 190q0 5 0.5 26t1 30t2 29.5t4 31t6.5 28t9.5 27.5t14 22t18.5 18.5t24 11t31 4.5q24 0 43 -11t19 -33q0 -29 -32 -29q-16 0 -28.5 18.5t-20.5 18.5
q-41 0 -40 -174v-11v-507q0 -42 -1 -69t-4.5 -61t-11 -55t-20 -41t-32 -29t-45.5 -9z" />
    <glyph glyph-name="approxequal" unicode="&#x2248;" horiz-adv-x="666" 
d="M99 267h-37q7 56 36.5 93t85.5 37q46 0 145 -36t134 -36q71 0 86 81h35q-4 -53 -35 -90.5t-87 -37.5q-44 0 -143 35.5t-133 35.5q-38 0 -60.5 -24t-26.5 -58zM99 91h-37q7 55 36.5 93t84.5 38q45 0 144 -36t136 -36q70 0 85 81h36q-7 -55 -37 -92.5t-86 -37.5
q-43 0 -142 36t-133 36q-38 0 -60.5 -24t-26.5 -58z" />
    <glyph glyph-name="notequal" unicode="&#x2260;" horiz-adv-x="666" 
d="M579 147h-284l-79 -153l-42 22l68 131h-155v47h180l70 137h-250v48h276l76 147l42 -22l-65 -125h163v-48h-188l-71 -137h259v-47z" />
    <glyph glyph-name="lessequal" unicode="&#x2264;" horiz-adv-x="666" 
d="M579 96l-492 199v52l492 200v-52l-430 -174l430 -174v-51zM579 4h-492v48h492v-48z" />
    <glyph glyph-name="greaterequal" unicode="&#x2265;" horiz-adv-x="666" 
d="M579 295l-492 -199v51l431 174l-431 174v52l492 -200v-52zM579 4h-492v48h492v-48z" />
    <glyph glyph-name="lozenge" unicode="&#x25ca;" horiz-adv-x="593" 
d="M490 356l-169 -391h-51l-167 391l167 391h51zM437 356l-141 341l-141 -341l141 -341z" />
    <glyph glyph-name="f_i" unicode="&#xf001;" horiz-adv-x="529" 
d="M282 466v-46h-114v-420h-55v420h-97v46h97v139q0 80 38.5 121.5t108.5 41.5q32 0 53 -7l-9 -45q-20 5 -45 5q-91 0 -91 -122v-133h114zM436 466v-466h-55v466h55zM449 651q0 -17 -12.5 -29t-28.5 -12t-28 12t-12 29t12 29t28 12t28.5 -12t12.5 -29z" />
    <glyph glyph-name="f_l" unicode="&#xf002;" horiz-adv-x="529" 
d="M282 466v-46h-114v-420h-55v420h-97v46h97v139q0 80 38.5 121.5t108.5 41.5q32 0 53 -7l-9 -45q-20 5 -45 5q-91 0 -91 -122v-133h114zM434 756v-756h-54v756h54z" />
    <glyph glyph-name="uniF8FF" unicode="&#xf8ff;" horiz-adv-x="512" 
d="M278 117h-56v67h56v-67zM271 234h-46l-2 17q0 54 11 78.5t48 61.5q32 32 41 47.5t9 35.5q0 36 -22.5 60.5t-53.5 24.5q-71 0 -82 -95l-50 8q6 69 42 103t93 34q55 0 89.5 -36t34.5 -95q0 -34 -13 -60t-50 -60q-37 -32 -43 -49.5t-6 -74.5zM50 50h412v617h-412v-617z
M0 718h512v-718h-512v718z" />
    <glyph glyph-name="f_f" unicode="&#xfb00;" horiz-adv-x="559" 
d="M550 466v-46h-115v-420h-54v420h-213v-420h-55v420h-97v46h97v139q0 80 38.5 121.5t108.5 41.5q32 0 53 -7l-9 -47q-26 7 -45 7q-91 0 -91 -122v-133h213v139q0 80 38.5 121.5t108.5 41.5q31 0 53 -7l-10 -47q-23 7 -45 7q-91 0 -91 -122v-133h115z" />
    <glyph glyph-name="f_f_i" unicode="&#xfb03;" horiz-adv-x="797" 
d="M550 466v-46h-115v-420h-54v420h-213v-420h-55v420h-97v46h97v139q0 80 38.5 121.5t108.5 41.5q32 0 53 -7l-9 -47q-26 7 -45 7q-91 0 -91 -122v-133h213v139q0 80 38.5 121.5t108.5 41.5q31 0 53 -7l-10 -47q-23 7 -45 7q-91 0 -91 -122v-133h115zM703 466v-466h-55v466
h55zM716 651q0 -17 -12.5 -29t-28.5 -12t-28 12t-12 29t12 29t28 12t28.5 -12t12.5 -29z" />
    <glyph glyph-name="f_f_l" unicode="&#xfb04;" horiz-adv-x="797" 
d="M550 466v-46h-115v-420h-54v420h-213v-420h-55v420h-97v46h97v139q0 80 38.5 121.5t108.5 41.5q32 0 53 -7l-9 -47q-26 7 -45 7q-91 0 -91 -122v-133h213v139q0 80 38.5 121.5t108.5 41.5q31 0 53 -7l-10 -47q-23 7 -45 7q-91 0 -91 -122v-133h115zM702 756v-756h-54v756
h54z" />
    <glyph glyph-name="grave.cap" horiz-adv-x="240" 
d="M125 764l-126 144h72l101 -144h-47z" />
    <glyph glyph-name="acute.cap" horiz-adv-x="240" 
d="M241 908l-126 -144h-47l101 144h72z" />
    <glyph glyph-name="circumflex.cap" horiz-adv-x="240" 
d="M152 908l107 -144h-53l-86 115l-86 -115h-53l107 144h64z" />
    <glyph glyph-name="caron.cap" horiz-adv-x="240" 
d="M259 908l-107 -144h-64l-107 144h53l86 -115l86 115h53z" />
    <glyph glyph-name="caron.alt" horiz-adv-x="240" 
d="M207 708l-70 -185h-45l58 185h57z" />
    <glyph glyph-name="tilde.cap" horiz-adv-x="240" 
d="M6 781h-35q15 94 82 94q23 0 71.5 -23.5t63.5 -23.5q33 0 46 49h35q-15 -93 -81 -93q-23 0 -71 23.5t-64 23.5q-34 0 -47 -50z" />
    <glyph glyph-name="dieresis.cap" horiz-adv-x="240" 
d="M-13 851q0 18 12.5 30.5t30.5 12.5t30 -12.5t12 -30.5t-12 -31t-30 -13t-30.5 13t-12.5 31zM168 851q0 18 12 30.5t30 12.5t30.5 -12.5t12.5 -30.5t-12.5 -31t-30.5 -13t-30 13t-12 31z" />
    <glyph glyph-name="macron.cap" horiz-adv-x="240" 
d="M249 850v-44h-258v44h258z" />
    <glyph glyph-name="breve.cap" horiz-adv-x="240" 
d="M224 905h36q-5 -62 -43 -96t-98 -34q-59 0 -97 34.5t-43 95.5h37q8 -42 36 -64t67 -22q89 0 105 86z" />
    <glyph glyph-name="ring.cap" horiz-adv-x="240" 
d="M216 850q0 -40 -28.5 -67.5t-67.5 -27.5t-67.5 27.5t-28.5 67.5q0 39 28.5 67t67.5 28t67.5 -28t28.5 -67zM185 850q0 27 -19 46t-46 19t-46 -19t-19 -46t19 -46t46 -19t46 19t19 46z" />
    <glyph glyph-name="hungarumlaut.cap" horiz-adv-x="240" 
d="M-30 764l101 144h72l-126 -144h-47zM124 764l101 144h72l-126 -144h-47z" />
    <glyph glyph-name="dotaccent.cap" horiz-adv-x="240" 
d="M161 851q0 -17 -12.5 -29t-28.5 -12t-28.5 12t-12.5 29t12.5 29t28.5 12t28.5 -12t12.5 -29z" />
    <glyph glyph-name="commaaccent" horiz-adv-x="240" 
d="M172 -45l-71 -185h-45l59 185h57z" />
    <glyph glyph-name="commaaccent.alt" horiz-adv-x="240" 
d="M92 564l71 185h45l-59 -185h-57z" />
    <glyph glyph-name="zero.denominator" 
d="M321 211q0 -42 -6.5 -79t-21.5 -69.5t-43.5 -51.5t-67.5 -19q-40 0 -68.5 19t-43.5 52t-21.5 69t-6.5 79q0 58 11 104t44 80.5t85 34.5q39 0 67.5 -19t43.5 -51.5t21.5 -69.5t6.5 -79zM271 211q0 30 -4 58t-13 56t-27.5 45t-44.5 17q-35 0 -56.5 -31t-27.5 -67t-6 -78
q0 -43 6 -79t27.5 -66.5t56.5 -30.5q26 0 44.5 17t27.5 45t13 56t4 58z" />
    <glyph glyph-name="one.denominator" 
d="M221 421v-421h-50v361l-73 -59l-30 34l111 85h42z" />
    <glyph glyph-name="two.denominator" 
d="M313 44v-44h-268v46l163 169q51 51 52 100q0 33 -21 52t-54 19q-66 0 -83 -71l-47 8q10 49 45.5 78t84.5 29q56 0 91 -30t35 -83q0 -39 -18 -68t-57 -69l-132 -136h209z" />
    <glyph glyph-name="three.denominator" 
d="M174 -8q-98 0 -135 88l45 16q12 -29 36 -45t54 -16q38 0 62.5 22t24.5 61q0 41 -30 61t-73 20h-24v41h24q42 0 66.5 20t24.5 58q0 31 -22 50.5t-54 19.5q-52 0 -78 -48l-39 21q41 69 119 69q55 0 88 -29.5t33 -82.5q0 -69 -64 -94l-3 -2q80 -24 80 -105q0 -59 -39 -92
t-96 -33z" />
    <glyph glyph-name="four.denominator" 
d="M267 0h-44v101h-190v43l177 278h57v-278h62v-43h-62v-101zM223 144v214h-3l-137 -214h140z" />
    <glyph glyph-name="five.denominator" 
d="M313 134q0 -65 -39.5 -103.5t-100.5 -38.5q-90 0 -129 79l44 18q31 -54 85 -54q39 0 65 25.5t26 70.5q0 43 -26 69.5t-71 26.5q-40 0 -91 -28l4 223h216v-44h-169l-3 -119q19 9 54 9q62 0 98.5 -37t36.5 -97z" />
    <glyph glyph-name="six.denominator" 
d="M320 127q0 -59 -39 -97t-99 -38q-59 0 -98 38t-39 97q0 53 38 112l112 183h57l-110 -173l1 -1q21 12 46 12q56 0 93.5 -37.5t37.5 -95.5zM271 127q0 39 -24 65t-63 26t-65 -26t-26 -65q0 -40 25 -66t65 -26q38 0 63 26t25 66z" />
    <glyph glyph-name="seven.denominator" 
d="M143 0h-54l169 378h-196v44h249v-39z" />
    <glyph glyph-name="eight.denominator" 
d="M317 116q0 -55 -39.5 -89.5t-95.5 -34.5t-96 34.5t-40 89.5q0 77 71 108v1q-55 28 -55 93q0 49 34.5 80.5t85.5 31.5t85.5 -31.5t34.5 -80.5q0 -63 -56 -93v-1q33 -14 52 -43t19 -65zM182 387q-31 0 -51.5 -19.5t-20.5 -51.5q0 -30 20.5 -50.5t51.5 -20.5t51.5 20.5
t20.5 50.5q0 32 -20.5 51.5t-51.5 19.5zM182 202q-38 0 -63 -24t-25 -60t24.5 -59.5t63.5 -23.5t63 23.5t24 59.5t-24.5 60t-62.5 24z" />
    <glyph glyph-name="nine.denominator" 
d="M319 296q-1 -55 -38 -114l-112 -182h-57l111 174l-1 1q-20 -12 -47 -12q-56 0 -93.5 37.5t-37.5 95.5t39.5 96t98.5 38t98 -38t39 -96zM271 296q0 38 -25.5 64.5t-63.5 26.5q-39 0 -64 -26t-25 -65q0 -40 24.5 -65.5t63.5 -25.5t64.5 26t25.5 65z" />
    <glyph glyph-name="zero.numerator" 
d="M321 497q0 -42 -6.5 -79t-21.5 -69.5t-43.5 -51.5t-67.5 -19q-40 0 -68.5 19t-43.5 52t-21.5 69t-6.5 79q0 58 11 104t44 80.5t85 34.5q39 0 67.5 -19t43.5 -51.5t21.5 -69.5t6.5 -79zM271 497q0 30 -4 58t-13 56t-27.5 45t-44.5 17q-35 0 -56.5 -31t-27.5 -67t-6 -78
q0 -43 6 -79t27.5 -66.5t56.5 -30.5q26 0 44.5 17t27.5 45t13 56t4 58z" />
    <glyph glyph-name="one.numerator" 
d="M172 287v361l-73 -59l-31 34l112 85h41v-421h-49z" />
    <glyph glyph-name="two.numerator" 
d="M313 331v-44h-268v46l163 169q51 51 52 100q0 33 -21 52t-54 19q-66 0 -83 -71l-47 8q10 49 45.5 78t84.5 29q56 0 91 -30t35 -83q0 -39 -18 -68t-57 -69l-132 -136h209z" />
    <glyph glyph-name="three.numerator" 
d="M174 278q-98 0 -135 88l45 16q12 -29 36 -45t54 -16q38 0 62.5 22t24.5 61q0 41 -30 61t-73 20h-24v41h24q42 0 66.5 20t24.5 58q0 31 -22 50.5t-54 19.5q-52 0 -78 -48l-39 21q41 69 119 69q55 0 88 -29.5t33 -82.5q0 -69 -64 -94l-3 -2q80 -24 80 -105q0 -59 -39 -92
t-96 -33z" />
    <glyph glyph-name="four.numerator" 
d="M267 286h-44v101h-190v43l177 278h57v-278h62v-43h-62v-101zM223 430v214h-3l-137 -214h140z" />
    <glyph glyph-name="five.numerator" 
d="M313 420q0 -65 -39.5 -103.5t-100.5 -38.5q-90 0 -129 79l44 18q31 -54 85 -54q39 0 65 25.5t26 70.5q0 43 -26 69.5t-71 26.5q-40 0 -91 -28l4 223h216v-44h-169l-3 -119q19 9 54 9q62 0 98.5 -37t36.5 -97z" />
    <glyph glyph-name="six.numerator" 
d="M320 413q0 -59 -39 -97t-99 -38q-59 0 -98 38t-39 97q0 53 38 112l112 183h57l-110 -173l1 -1q21 12 46 12q56 0 93.5 -37.5t37.5 -95.5zM271 413q0 39 -24 65t-63 26t-65 -26t-26 -65q0 -40 25 -66t65 -26q38 0 63 26t25 66z" />
    <glyph glyph-name="seven.numerator" 
d="M143 286h-54l169 378h-196v44h249v-39z" />
    <glyph glyph-name="eight.numerator" 
d="M317 402q0 -55 -39.5 -89.5t-95.5 -34.5t-96 34.5t-40 89.5q0 77 71 108v1q-55 28 -55 93q0 49 34.5 80.5t85.5 31.5t85.5 -31.5t34.5 -80.5q0 -63 -56 -93v-1q33 -14 52 -43t19 -65zM182 673q-31 0 -51.5 -19.5t-20.5 -51.5q0 -30 20.5 -50.5t51.5 -20.5t51.5 20.5
t20.5 50.5q0 32 -20.5 51.5t-51.5 19.5zM182 488q-38 0 -63 -24t-25 -60t24.5 -59.5t63.5 -23.5t63 23.5t24 59.5t-24.5 60t-62.5 24z" />
    <glyph glyph-name="nine.numerator" 
d="M319 582q-1 -55 -38 -114l-112 -182h-57l111 174l-1 1q-19 -12 -47 -12q-56 0 -93.5 37.5t-37.5 95.5t39.5 96t98.5 38t98 -38t39 -96zM271 582q0 38 -25.5 64.5t-63.5 26.5q-39 0 -64 -26t-25 -65q0 -40 24.5 -65.5t63.5 -25.5t64.5 26t25.5 65z" />
    <glyph glyph-name="exclam.sc" horiz-adv-x="275" 
d="M165 528v-377h-55v377h55zM182 39q0 -19 -12 -32t-32 -13t-32 13t-12 32t12 32t32 13t32 -13t12 -32z" />
    <glyph glyph-name="dollar.sc" horiz-adv-x="478" 
d="M216 44v209q-66 19 -102.5 51t-36.5 91q0 60 39 94.5t100 38.5v56h39v-56q83 -4 133 -57l-37 -36q-38 49 -96 49v-190q75 -23 111 -59t36 -96q0 -59 -42 -98t-105 -41v-58h-39v58q-90 4 -150 78l36 31q21 -29 52.5 -46.5t61.5 -18.5zM255 242v-198q42 3 67.5 27.5
t25.5 67.5q0 70 -93 103zM216 306v179q-38 -2 -62.5 -24.5t-24.5 -62.5q0 -38 22 -58.5t65 -33.5z" />
    <glyph glyph-name="percent.sc" horiz-adv-x="669" 
d="M310 411q0 -55 -37.5 -92.5t-92.5 -37.5q-54 0 -91.5 37.5t-37.5 92.5q0 54 37.5 91.5t91.5 37.5q55 0 92.5 -37.5t37.5 -91.5zM264 411q0 35 -24.5 59.5t-59.5 24.5q-34 0 -58.5 -24.5t-24.5 -59.5q0 -36 24.5 -60t58.5 -24q36 0 60 24t24 60zM619 117
q0 -55 -37.5 -92.5t-92.5 -37.5q-54 0 -91.5 37.5t-37.5 92.5q0 54 37.5 91.5t91.5 37.5q55 0 92.5 -37.5t37.5 -91.5zM573 117q0 36 -24.5 60t-59.5 24q-34 0 -58.5 -24t-24.5 -60t24.5 -60t58.5 -24q36 0 60 24t24 60zM522 534l-338 -564l-38 22l338 564z" />
    <glyph glyph-name="ampersand.sc" horiz-adv-x="569" 
d="M517 281l-94 -164l114 -117h-77l-68 72q-67 -85 -167 -85q-68 0 -115 41t-47 109q0 96 117 157q-58 65 -58 126q0 54 36.5 87t93.5 33q58 0 92.5 -30.5t34.5 -83.5q0 -81 -119 -142l125 -130l71 127h61zM324 425q0 32 -20.5 51t-51.5 19t-53.5 -21.5t-22.5 -55.5
q0 -46 51 -100q97 47 97 107zM356 109l-143 150q-92 -45 -92 -123q0 -45 30 -73.5t76 -28.5q81 0 129 75z" />
    <glyph glyph-name="parenleft.sc" horiz-adv-x="236" 
d="M84 264q0 -80 26.5 -163.5t71.5 -143.5l-42 -26q-49 67 -78.5 154.5t-29.5 178.5t29 178.5t79 154.5l42 -25q-45 -61 -71.5 -144t-26.5 -164z" />
    <glyph glyph-name="parenright.sc" horiz-adv-x="236" 
d="M203 264q0 -91 -29 -178.5t-78 -154.5l-43 25q45 61 72 144.5t27 163.5t-27.5 163.5t-71.5 143.5l43 26q49 -68 78 -155t29 -178z" />
    <glyph glyph-name="bracketleft.sc" horiz-adv-x="236" 
d="M177 -65h-128v658h128v-42h-77v-573h77v-43z" />
    <glyph glyph-name="backslash.sc" horiz-adv-x="289" 
d="M282 2l-47 -16l-227 541l46 16z" />
    <glyph glyph-name="bracketright.sc" horiz-adv-x="236" 
d="M187 -65h-128v43h76v573h-76v42h128v-658z" />
    <glyph glyph-name="braceleft.sc" horiz-adv-x="236" 
d="M195 -65h-50q-84 0 -84 97v125q0 45 -14 64t-44 19v48q30 0 44 19t14 64v125q0 97 84 97h50v-42h-41q-41 0 -41 -59v-121q0 -85 -62 -106v-2q62 -21 62 -107v-120q0 -58 41 -58h41v-43z" />
    <glyph glyph-name="slash.sc" horiz-adv-x="289" 
d="M55 -14l-47 16l227 541l47 -16z" />
    <glyph glyph-name="braceright.sc" horiz-adv-x="236" 
d="M90 -65h-49v43h41q41 0 41 58v121q0 85 62 106v2q-62 21 -62 107v120q0 59 -41 59h-41v42h49q84 0 84 -97v-125q0 -45 14.5 -64t44.5 -19v-48q-30 0 -44.5 -19t-14.5 -64v-125q0 -97 -84 -97z" />
    <glyph glyph-name="zero.sc" horiz-adv-x="478" 
d="M239 540q64 0 105 -43t56 -102t15 -132q0 -53 -9 -99.5t-28 -87.5t-55 -65t-84 -24q-49 0 -85 24t-55 65t-27.5 87t-8.5 100t8.5 100t27.5 87.5t55 65.5t85 24zM239 492q-34 0 -58 -22t-36 -58.5t-17 -73t-5 -75.5q0 -40 5 -76t17 -71.5t36 -57t58 -21.5q33 0 57 21.5
t36 57t17.5 72t5.5 75.5t-5.5 75.5t-17.5 73t-36 58.5t-57 22z" />
    <glyph glyph-name="one.sc" horiz-adv-x="478" 
d="M300 528v-528h-56v457l-93 -80l-33 39l132 112h50z" />
    <glyph glyph-name="two.sc" horiz-adv-x="478" 
d="M408 50v-50h-331v55l202 210q66 67 67 130q0 44 -27 69.5t-70 25.5q-81 0 -104 -90l-55 12q14 60 55.5 94t103.5 34q69 0 111.5 -37.5t42.5 -106.5q0 -78 -89 -169l-170 -177h264z" />
    <glyph glyph-name="three.sc" horiz-adv-x="478" 
d="M226 -13q-123 0 -169 112l52 20q34 -81 117 -81q49 0 81 29.5t32 78.5q0 54 -36.5 79.5t-93.5 25.5h-30v50h30q51 0 83.5 24t32.5 72q0 41 -29.5 67.5t-71.5 26.5q-66 0 -99 -62l-46 26q51 85 147 85q67 0 110.5 -37t43.5 -104q0 -40 -22.5 -72t-63.5 -46l-8 -4
q51 -11 80 -46.5t29 -83.5q0 -72 -47 -116t-122 -44z" />
    <glyph glyph-name="four.sc" horiz-adv-x="478" 
d="M340 528v-352h78v-49h-78v-127h-53v127h-236v50l224 351h65zM287 176v281h-2l-175 -281h177z" />
    <glyph glyph-name="five.sc" horiz-adv-x="478" 
d="M380 528v-50h-221l-5 -157q32 12 68 12q81 0 128.5 -45t47.5 -123q0 -79 -50 -128.5t-128 -49.5q-56 0 -98.5 26.5t-61.5 71.5l51 23q28 -70 107 -70q54 0 88.5 34t34.5 90t-35 90t-93 34t-113 -35l6 277h274z" />
    <glyph glyph-name="six.sc" horiz-adv-x="478" 
d="M240 -13q-76 0 -124 47t-48 122q0 66 49 143l143 229h64l-148 -229h1q31 20 72 20q70 0 116 -44.5t46 -117.5q0 -75 -47.5 -122.5t-123.5 -47.5zM240 38q51 0 83.5 33.5t32.5 84.5q0 50 -31.5 83.5t-82.5 33.5q-53 0 -86 -33t-33 -84t33 -84.5t84 -33.5z" />
    <glyph glyph-name="seven.sc" horiz-adv-x="478" 
d="M400 528v-47l-213 -481h-63l216 477h-255v51h315z" />
    <glyph glyph-name="eight.sc" horiz-adv-x="478" 
d="M388 398q0 -38 -21 -70t-57 -46v-2q47 -17 72 -53.5t25 -85.5q0 -70 -47.5 -112t-120.5 -42q-74 0 -121.5 41.5t-47.5 112.5q0 49 25.5 85.5t71.5 53.5v2q-36 14 -57 46t-21 70q0 63 43 102.5t107 39.5q63 0 106 -39.5t43 -102.5zM126 147q0 -48 31 -78.5t82 -30.5
t82 30.5t31 78.5q0 47 -32 77t-81 30q-48 0 -80.5 -30.5t-32.5 -76.5zM144 396q0 -40 27 -65.5t68 -25.5q40 0 67.5 25t27.5 66q0 42 -26.5 68t-68.5 26t-68.5 -26t-26.5 -68z" />
    <glyph glyph-name="nine.sc" horiz-adv-x="478" 
d="M154 0l148 229h-4q-29 -19 -68 -19q-69 0 -115.5 44.5t-46.5 116.5q0 74 47.5 121.5t123.5 47.5q75 0 123.5 -46.5t48.5 -121.5q0 -67 -50 -143l-143 -229h-64zM237 256q53 0 85.5 32.5t32.5 83.5t-32.5 84t-83.5 33t-83 -33t-32 -84q0 -50 31 -83t82 -33z" />
    <glyph glyph-name="question.sc" horiz-adv-x="353" 
d="M146 157v37q0 56 50 106q0 2 11 12t12 11q25 25 34.5 43t9.5 48q0 37 -22.5 61.5t-60.5 24.5q-72 0 -89 -85l-53 9q11 60 48 92.5t97 32.5q64 0 100 -38t36 -94q0 -43 -15 -71.5t-50 -57.5q-33 -29 -43.5 -51t-10.5 -55v-25h-54zM177 -6q-18 0 -30.5 13t-12.5 31t12.5 31
t30.5 13q20 0 32 -12.5t12 -31.5q0 -18 -12 -31t-32 -13z" />
    <glyph glyph-name="a.sc" horiz-adv-x="528" 
d="M128 137l-58 -137h-59l228 528h52l225 -528h-62l-56 137h-270zM264 464l-116 -279h229z" />
    <glyph glyph-name="b.sc" horiz-adv-x="508" 
d="M94 0v528h168q68 0 116 -31.5t48 -100.5q0 -89 -88 -118v-2q49 -9 81 -42t32 -88q0 -72 -54 -109t-137 -37h-166zM149 478v-179h107q50 0 82 22.5t32 69.5q0 87 -125 87h-96zM149 250v-200h105q60 0 100 23.5t40 75.5q0 101 -132 101h-113z" />
    <glyph glyph-name="c.sc" horiz-adv-x="558" 
d="M486 109l41 -30q-72 -92 -196 -92q-119 0 -196.5 78t-77.5 199q0 122 78.5 199t197.5 77q55 0 104.5 -20.5t79.5 -57.5l-42 -34q-22 28 -60.5 45t-81.5 17q-96 0 -156 -65t-60 -161t59 -161t156 -65q100 0 154 71z" />
    <glyph glyph-name="d.sc" horiz-adv-x="607" 
d="M94 0v528h171q74 0 136.5 -26.5t105 -88t42.5 -149.5q0 -86 -42.5 -147.5t-105 -89t-136.5 -27.5h-171zM149 478v-428h104q107 0 172 57t65 157t-65 157t-172 57h-104z" />
    <glyph glyph-name="e.sc" horiz-adv-x="492" 
d="M149 249v-199h283v-50h-338v528h327v-50h-272v-180h256v-49h-256z" />
    <glyph glyph-name="f.sc" horiz-adv-x="463" 
d="M149 245v-245h-55v528h319v-50h-264v-184h247v-49h-247z" />
    <glyph glyph-name="g.sc" horiz-adv-x="615" 
d="M523 473l-38 -40q-54 57 -150 57q-97 0 -157.5 -65t-60.5 -160q0 -97 60 -162t160 -65q83 0 139 32v162h-123v49h179v-246q-86 -48 -196 -48q-122 0 -200.5 78.5t-78.5 199.5t78.5 198t199.5 77q119 0 188 -67z" />
    <glyph glyph-name="h.sc" horiz-adv-x="606" 
d="M94 0v528h55v-231h307v231h56v-528h-56v249h-307v-249h-55z" />
    <glyph glyph-name="i.sc" horiz-adv-x="243" 
d="M149 528v-528h-55v528h55z" />
    <glyph glyph-name="j.sc" horiz-adv-x="392" 
d="M21 92l52 16q20 -69 87 -69q91 0 91 121v368h56v-372q0 -69 -33.5 -119t-110.5 -50q-56 0 -92.5 29t-49.5 76z" />
    <glyph glyph-name="k.sc" horiz-adv-x="502" 
d="M149 528v-236h2l246 236h78l-261 -242l276 -286h-81l-258 277h-2v-277h-55v528h55z" />
    <glyph glyph-name="l.sc" horiz-adv-x="412" 
d="M149 528v-478h244v-50h-299v528h55z" />
    <glyph glyph-name="m.sc" horiz-adv-x="720" 
d="M94 0v528h88l179 -436l178 436h87v-528h-55v461h-3l-191 -461h-35l-191 461h-2v-461h-55z" />
    <glyph glyph-name="n.sc" horiz-adv-x="612" 
d="M166 528l295 -448h2v448h56v-528h-71l-297 454h-2v-454h-55v528h72z" />
    <glyph glyph-name="o.sc" horiz-adv-x="668" 
d="M611 265q0 -120 -79 -199t-199 -79q-119 0 -197.5 79t-78.5 199q0 121 78 198t198 77q121 0 199.5 -77t78.5 -198zM551 265q0 96 -60 161.5t-158 65.5q-97 0 -156.5 -65.5t-59.5 -161.5t59.5 -161.5t156.5 -65.5q98 0 158 65.5t60 161.5z" />
    <glyph glyph-name="p.sc" horiz-adv-x="477" 
d="M94 0v528h160q81 0 130 -39t49 -114q0 -73 -50.5 -113t-130.5 -40h-103v-222h-55zM149 478v-209h100q57 0 92 27t35 79t-35 77.5t-93 25.5h-99z" />
    <glyph glyph-name="q.sc" horiz-adv-x="668" 
d="M634 50v-50h-305q-119 0 -195.5 74t-76.5 195q0 118 77.5 194.5t194.5 76.5t194 -77t77 -194q0 -74 -34.5 -131.5t-92.5 -85.5v-2h161zM117 269q0 -94 59 -156.5t153 -62.5q95 0 153.5 63.5t58.5 155.5q0 93 -59 157.5t-153 64.5q-93 0 -152.5 -64.5t-59.5 -157.5z" />
    <glyph glyph-name="r.sc" horiz-adv-x="491" 
d="M149 243v-243h-55v528h159q80 0 131 -34t51 -108q0 -58 -38 -94t-97 -42l150 -250h-67l-142 243h-92zM149 478v-186h97q132 0 132 94q0 92 -130 92h-99z" />
    <glyph glyph-name="s.sc" horiz-adv-x="440" 
d="M378 479l-40 -38q-38 51 -109 51q-45 0 -79.5 -24.5t-34.5 -71.5q0 -39 28 -62.5t67.5 -36t79 -26.5t67.5 -46t28 -83q0 -74 -51 -114.5t-124 -40.5q-106 0 -167 75l44 37q44 -63 124 -63q47 0 82.5 26.5t35.5 74.5q0 39 -28 63t-67.5 36t-79.5 26.5t-68 47t-28 84.5
q0 70 51.5 108t122.5 38q95 0 146 -61z" />
    <glyph glyph-name="t.sc" horiz-adv-x="428" 
d="M241 478v-478h-56v478h-172v50h402v-50h-174z" />
    <glyph glyph-name="u.sc" horiz-adv-x="574" 
d="M287 -13q-101 0 -151 61t-50 150v330h55v-326q0 -70 35 -116.5t111 -46.5t111 46.5t35 116.5v326h56v-330q0 -89 -50.5 -150t-151.5 -61z" />
    <glyph glyph-name="v.sc" horiz-adv-x="488" 
d="M73 528l170 -458h2l170 458h61l-204 -528h-57l-203 528h61z" />
    <glyph glyph-name="w.sc" horiz-adv-x="759" 
d="M85 528l128 -451h2l132 451h65l132 -451h2l128 451h60l-156 -528h-63l-135 452l-137 -452h-62l-155 528h59z" />
    <glyph glyph-name="x.sc" horiz-adv-x="474" 
d="M99 528l138 -211l137 211h65l-168 -251l189 -277h-69l-154 235l-154 -235h-69l188 277l-171 251h68z" />
    <glyph glyph-name="y.sc" horiz-adv-x="450" 
d="M252 229v-229h-55v229l-193 299h67l154 -253l155 253h66z" />
    <glyph glyph-name="z.sc" horiz-adv-x="484" 
d="M429 528v-50l-312 -428h317v-50h-384v50l311 428h-303v50h371z" />
    <glyph glyph-name="agrave.sc" horiz-adv-x="528" 
d="M128 137l-58 -137h-59l228 528h52l225 -528h-62l-56 137h-270zM264 464l-116 -279h229zM240 585l-126 144h72l101 -144h-47z" />
    <glyph glyph-name="aacute.sc" horiz-adv-x="528" 
d="M128 137l-58 -137h-59l228 528h52l225 -528h-62l-56 137h-270zM264 464l-116 -279h229zM417 729l-126 -144h-47l101 144h72z" />
    <glyph glyph-name="acircumflex.sc" horiz-adv-x="528" 
d="M128 137l-58 -137h-59l228 528h52l225 -528h-62l-56 137h-270zM264 464l-116 -279h229zM296 729l107 -144h-53l-86 115l-86 -115h-53l107 144h64z" />
    <glyph glyph-name="atilde.sc" horiz-adv-x="528" 
d="M128 137l-58 -137h-59l228 528h52l225 -528h-62l-56 137h-270zM264 464l-116 -279h229zM151 605h-35q15 94 82 94q22 0 71 -23t64 -23q33 0 46 49h35q-15 -93 -81 -93q-24 0 -72 23.5t-63 23.5q-34 0 -47 -51z" />
    <glyph glyph-name="adieresis.sc" horiz-adv-x="528" 
d="M128 137l-58 -137h-59l228 528h52l225 -528h-62l-56 137h-270zM264 464l-116 -279h229zM132 672q0 18 12.5 30.5t30.5 12.5t30 -12.5t12 -30.5t-12 -31t-30 -13t-30.5 13t-12.5 31zM313 672q0 18 12 30.5t30 12.5t30.5 -12.5t12.5 -30.5t-12.5 -31t-30.5 -13t-30 13
t-12 31z" />
    <glyph glyph-name="amacron.sc" horiz-adv-x="528" 
d="M128 137l-58 -137h-59l228 528h52l225 -528h-62l-56 137h-270zM264 464l-116 -279h229zM394 671v-44h-258v44h258z" />
    <glyph glyph-name="abreve.sc" horiz-adv-x="528" 
d="M128 137l-58 -137h-59l228 528h52l225 -528h-62l-56 137h-270zM264 464l-116 -279h229zM369 726h36q-5 -62 -43 -96t-98 -34q-59 0 -97 34.5t-43 95.5h37q8 -42 36 -64t67 -22q89 0 105 86z" />
    <glyph glyph-name="aring.sc" horiz-adv-x="528" 
d="M128 137l-58 -137h-59l228 528h52l225 -528h-62l-56 137h-270zM264 464l-116 -279h229zM361 671q0 -40 -28.5 -67.5t-67.5 -27.5t-67.5 27.5t-28.5 67.5q0 39 28.5 67t67.5 28t67.5 -28t28.5 -67zM330 671q0 27 -19 46t-46 19t-46 -19t-19 -46t19 -46t46 -19t46 19t19 46
z" />
    <glyph glyph-name="aogonek.sc" horiz-adv-x="528" 
d="M11 0l228 528h52l225 -528l-12 -1l-11 -1q-43 -42 -61.5 -69t-18.5 -56q0 -24 15 -38.5t39 -14.5q33 0 57 24l16 -32q-35 -35 -88 -35q-36 0 -62 23.5t-26 60.5q0 62 90 139l-56 137h-270l-58 -137h-59zM148 185h229l-113 279z" />
    <glyph glyph-name="ae.sc" horiz-adv-x="767" 
d="M424 249v-199h283v-50h-338v147h-222l-95 -147h-64l343 528h365v-50h-272v-180h256v-49h-256zM359 478l-181 -283h191v283h-10z" />
    <glyph glyph-name="cacute.sc" horiz-adv-x="558" 
d="M486 109l41 -30q-72 -92 -196 -92q-119 0 -196.5 78t-77.5 199q0 122 78.5 199t197.5 77q55 0 104.5 -20.5t79.5 -57.5l-42 -34q-22 28 -60.5 45t-81.5 17q-96 0 -156 -65t-60 -161t59 -161t156 -65q100 0 154 71zM445 729l-126 -144h-47l101 144h72z" />
    <glyph glyph-name="ccircumflex.sc" horiz-adv-x="558" 
d="M486 109l41 -30q-72 -92 -196 -92q-119 0 -196.5 78t-77.5 199q0 122 78.5 199t197.5 77q55 0 104.5 -20.5t79.5 -57.5l-42 -34q-22 28 -60.5 45t-81.5 17q-96 0 -156 -65t-60 -161t59 -161t156 -65q100 0 154 71zM365 729l107 -144h-53l-86 115l-86 -115h-53l107 144h64
z" />
    <glyph glyph-name="ccaron.sc" horiz-adv-x="558" 
d="M486 109l41 -30q-72 -92 -196 -92q-119 0 -196.5 78t-77.5 199q0 122 78.5 199t197.5 77q55 0 104.5 -20.5t79.5 -57.5l-42 -34q-22 28 -60.5 45t-81.5 17q-96 0 -156 -65t-60 -161t59 -161t156 -65q100 0 154 71zM470 729l-107 -144h-64l-107 144h53l86 -115l86 115h53z
" />
    <glyph glyph-name="cdotaccent.sc" horiz-adv-x="558" 
d="M486 109l41 -30q-72 -92 -196 -92q-119 0 -196.5 78t-77.5 199q0 122 78.5 199t197.5 77q55 0 104.5 -20.5t79.5 -57.5l-42 -34q-22 28 -60.5 45t-81.5 17q-96 0 -156 -65t-60 -161t59 -161t156 -65q100 0 154 71zM375 672q0 -17 -12.5 -29t-28.5 -12t-28.5 12t-12.5 29
t12.5 29t28.5 12t28.5 -12t12.5 -29z" />
    <glyph glyph-name="ccedilla.sc" horiz-adv-x="558" 
d="M486 109l41 -30q-71 -88 -192 -92l-41 -65q15 5 40 5q33 0 58.5 -18.5t25.5 -52.5q0 -31 -19 -51.5t-43.5 -27t-53.5 -6.5q-50 0 -93 20l13 31q33 -16 76 -16q26 0 49 12t23 37q0 43 -60 43q-30 0 -51 -10l-15 13l56 88q-108 10 -175.5 86t-67.5 189q0 122 78.5 199
t197.5 77q55 0 104.5 -20.5t79.5 -57.5l-42 -34q-22 28 -60.5 45t-81.5 17q-96 0 -156 -65t-60 -161t59 -161t156 -65q100 0 154 71z" />
    <glyph glyph-name="dcaron.sc" horiz-adv-x="607" 
d="M94 0v528h171q74 0 136.5 -26.5t105 -88t42.5 -149.5q0 -86 -42.5 -147.5t-105 -89t-136.5 -27.5h-171zM149 478v-428h104q107 0 172 57t65 157t-65 157t-172 57h-104zM429 729l-107 -144h-64l-107 144h53l86 -115l86 115h53z" />
    <glyph glyph-name="dcroat.sc" horiz-adv-x="607" 
d="M18 255v42h76v231h171q74 0 136.5 -26.5t105 -88t42.5 -149.5q0 -86 -42.5 -147.5t-105 -89t-136.5 -27.5h-171v255h-76zM149 478v-181h154v-42h-154v-205h104q107 0 172 57t65 157t-65 157t-172 57h-104z" />
    <glyph glyph-name="eth.sc" horiz-adv-x="607" 
d="M18 255v42h76v231h171q74 0 136.5 -26.5t105 -88t42.5 -149.5q0 -86 -42.5 -147.5t-105 -89t-136.5 -27.5h-171v255h-76zM149 478v-181h154v-42h-154v-205h104q107 0 172 57t65 157t-65 157t-172 57h-104z" />
    <glyph glyph-name="egrave.sc" horiz-adv-x="492" 
d="M149 249v-199h283v-50h-338v528h327v-50h-272v-180h256v-49h-256zM250 585l-126 144h72l101 -144h-47z" />
    <glyph glyph-name="eacute.sc" horiz-adv-x="492" 
d="M149 249v-199h283v-50h-338v528h327v-50h-272v-180h256v-49h-256zM393 729l-126 -144h-47l101 144h72z" />
    <glyph glyph-name="ecircumflex.sc" horiz-adv-x="492" 
d="M149 249v-199h283v-50h-338v528h327v-50h-272v-180h256v-49h-256zM288 729l107 -144h-53l-86 115l-86 -115h-53l107 144h64z" />
    <glyph glyph-name="ecaron.sc" horiz-adv-x="492" 
d="M149 249v-199h283v-50h-338v528h327v-50h-272v-180h256v-49h-256zM398 729l-107 -144h-64l-107 144h53l86 -115l86 115h53z" />
    <glyph glyph-name="edieresis.sc" horiz-adv-x="492" 
d="M149 249v-199h283v-50h-338v528h327v-50h-272v-180h256v-49h-256zM126 672q0 18 12.5 30.5t30.5 12.5t30 -12.5t12 -30.5t-12 -31t-30 -13t-30.5 13t-12.5 31zM307 672q0 18 12 30.5t30 12.5t30.5 -12.5t12.5 -30.5t-12.5 -31t-30.5 -13t-30 13t-12 31z" />
    <glyph glyph-name="emacron.sc" horiz-adv-x="492" 
d="M149 249v-199h283v-50h-338v528h327v-50h-272v-180h256v-49h-256zM389 671v-44h-258v44h258z" />
    <glyph glyph-name="ebreve.sc" horiz-adv-x="492" 
d="M149 249v-199h283v-50h-338v528h327v-50h-272v-180h256v-49h-256zM361 726h36q-5 -62 -43 -96t-98 -34q-59 0 -97 34.5t-43 95.5h37q8 -42 36 -64t67 -22q89 0 105 86z" />
    <glyph glyph-name="edotaccent.sc" horiz-adv-x="492" 
d="M149 249v-199h283v-50h-338v528h327v-50h-272v-180h256v-49h-256zM303 672q0 -17 -12.5 -29t-28.5 -12t-28.5 12t-12.5 29t12.5 29t28.5 12t28.5 -12t12.5 -29z" />
    <glyph glyph-name="eogonek.sc" horiz-adv-x="492" 
d="M443 -156l16 -32q-35 -35 -87 -35q-37 0 -63 23.5t-26 60.5q0 62 90 139h-279v528h327v-50h-272v-180h256v-49h-256v-199h283v-50h-18q-45 -45 -63.5 -71.5t-18.5 -55.5q0 -24 15 -38.5t39 -14.5q33 0 57 24z" />
    <glyph glyph-name="gcircumflex.sc" horiz-adv-x="615" 
d="M523 473l-38 -40q-54 57 -150 57q-97 0 -157.5 -65t-60.5 -160q0 -97 60 -162t160 -65q83 0 139 32v162h-123v49h179v-246q-86 -48 -196 -48q-122 0 -200.5 78.5t-78.5 199.5t78.5 198t199.5 77q119 0 188 -67zM368 729l107 -144h-53l-86 115l-86 -115h-53l107 144h64z
" />
    <glyph glyph-name="gbreve.sc" horiz-adv-x="615" 
d="M523 473l-38 -40q-54 57 -150 57q-97 0 -157.5 -65t-60.5 -160q0 -97 60 -162t160 -65q83 0 139 32v162h-123v49h179v-246q-86 -48 -196 -48q-122 0 -200.5 78.5t-78.5 199.5t78.5 198t199.5 77q119 0 188 -67zM441 726h36q-5 -62 -43 -96t-98 -34q-59 0 -97 34.5
t-43 95.5h37q8 -42 36 -64t67 -22q89 0 105 86z" />
    <glyph glyph-name="gdotaccent.sc" horiz-adv-x="615" 
d="M523 473l-38 -40q-54 57 -150 57q-97 0 -157.5 -65t-60.5 -160q0 -97 60 -162t160 -65q83 0 139 32v162h-123v49h179v-246q-86 -48 -196 -48q-122 0 -200.5 78.5t-78.5 199.5t78.5 198t199.5 77q119 0 188 -67zM375 672q0 -17 -12.5 -29t-28.5 -12t-28.5 12t-12.5 29
t12.5 29t28.5 12t28.5 -12t12.5 -29z" />
    <glyph glyph-name="gcommaaccent.sc" horiz-adv-x="615" 
d="M523 473l-38 -40q-54 57 -150 57q-97 0 -157.5 -65t-60.5 -160q0 -97 60 -162t160 -65q83 0 139 32v162h-123v49h179v-246q-86 -48 -196 -48q-122 0 -200.5 78.5t-78.5 199.5t78.5 198t199.5 77q119 0 188 -67zM371 -45l-71 -185h-45l59 185h57z" />
    <glyph glyph-name="kgreenlandic.sc" horiz-adv-x="502" 
d="M149 528v-236h2l246 236h78l-261 -242l276 -286h-81l-258 277h-2v-277h-55v528h55z" />
    <glyph glyph-name="hcircumflex.sc" horiz-adv-x="606" 
d="M94 0v528h55v-231h307v231h56v-528h-56v249h-307v-249h-55zM334 729l107 -144h-53l-86 115l-86 -115h-53l107 144h64z" />
    <glyph glyph-name="hbar.sc" horiz-adv-x="606" 
d="M94 0v528h55v-115h307v115h56v-528h-56v249h-307v-249h-55zM149 297h307v83h-307v-83z" />
    <glyph glyph-name="igrave.sc" horiz-adv-x="243" 
d="M149 528v-528h-55v528h55zM103 585l-126 144h72l101 -144h-47z" />
    <glyph glyph-name="iacute.sc" horiz-adv-x="243" 
d="M149 528v-528h-55v528h55zM268 729l-126 -144h-47l101 144h72z" />
    <glyph glyph-name="ibreve.sc" horiz-adv-x="243" 
d="M149 528v-528h-55v528h55zM226 726h36q-5 -62 -43 -96t-98 -34q-59 0 -97 34.5t-43 95.5h37q8 -42 36 -64t67 -22q89 0 105 86z" />
    <glyph glyph-name="icircumflex.sc" horiz-adv-x="243" 
d="M149 528v-528h-55v528h55zM152 729l107 -144h-53l-86 115l-86 -115h-53l107 144h64z" />
    <glyph glyph-name="itilde.sc" horiz-adv-x="243" 
d="M149 528v-528h-55v528h55zM7 605h-35q15 94 82 94q22 0 71 -23t64 -23q33 0 46 49h35q-15 -93 -81 -93q-24 0 -72 23.5t-63 23.5q-34 0 -47 -51z" />
    <glyph glyph-name="idieresis.sc" horiz-adv-x="243" 
d="M149 528v-528h-55v528h55zM-13 672q0 18 12.5 30.5t30.5 12.5t30 -12.5t12 -30.5t-12 -31t-30 -13t-30.5 13t-12.5 31zM168 672q0 18 12 30.5t30 12.5t30.5 -12.5t12.5 -30.5t-12.5 -31t-30.5 -13t-30 13t-12 31z" />
    <glyph glyph-name="imacron.sc" horiz-adv-x="243" 
d="M149 528v-528h-55v528h55zM251 671v-44h-258v44h258z" />
    <glyph glyph-name="idotaccent.sc" horiz-adv-x="243" 
d="M149 528v-528h-55v528h55zM164 651q0 -17 -12.5 -29t-28.5 -12t-28.5 12t-12.5 29t12.5 29t28.5 12t28.5 -12t12.5 -29z" />
    <glyph glyph-name="iogonek.sc" horiz-adv-x="243" 
d="M107 -223q-36 0 -62 23.5t-26 60.5q0 61 89 138h-7q-6 0 -7 1v528h55v-528q-45 -46 -63 -71.5t-18 -55.5q0 -24 15 -38.5t39 -14.5q33 0 57 24l16 -32q-35 -35 -88 -35z" />
    <glyph glyph-name="jcircumflex.sc" horiz-adv-x="392" 
d="M21 92l52 16q20 -69 87 -69q91 0 91 121v368h56v-372q0 -69 -33.5 -119t-110.5 -50q-56 0 -92.5 29t-49.5 76zM309 729l107 -144h-53l-86 115l-86 -115h-53l107 144h64z" />
    <glyph glyph-name="kcommaaccent.sc" horiz-adv-x="502" 
d="M149 528v-236h2l246 236h78l-261 -242l276 -286h-81l-258 277h-2v-277h-55v528h55zM306 -44l-71 -185h-45l59 185h57z" />
    <glyph glyph-name="lacute.sc" horiz-adv-x="412" 
d="M149 528v-478h244v-50h-299v528h55zM272 729l-126 -144h-47l101 144h72z" />
    <glyph glyph-name="lcaron.sc" horiz-adv-x="412" 
d="M149 528v-478h244v-50h-299v528h55zM337 528l-71 -185h-45l59 185h57z" />
    <glyph glyph-name="lcommaaccent.sc" horiz-adv-x="412" 
d="M149 528v-478h244v-50h-299v528h55zM288 -47l-71 -185h-45l59 185h57z" />
    <glyph glyph-name="lslash.sc" horiz-adv-x="412" 
d="M149 528v-181l123 103v-56l-123 -104v-240h244v-50h-299v244l-77 -64v57l77 64v227h55z" />
    <glyph glyph-name="ldot.sc" horiz-adv-x="412" 
d="M149 528v-478h244v-50h-299v528h55zM316 312q0 -17 -12.5 -29t-28.5 -12t-28.5 12t-12.5 29t12.5 29t28.5 12t28.5 -12t12.5 -29z" />
    <glyph glyph-name="nacute.sc" horiz-adv-x="612" 
d="M166 528l295 -448h2v448h56v-528h-71l-297 454h-2v-454h-55v528h72zM428 729l-126 -144h-47l101 144h72z" />
    <glyph glyph-name="ncaron.sc" horiz-adv-x="612" 
d="M166 528l295 -448h2v448h56v-528h-71l-297 454h-2v-454h-55v528h72zM446 729l-107 -144h-64l-107 144h53l86 -115l86 115h53z" />
    <glyph glyph-name="ntilde.sc" horiz-adv-x="612" 
d="M166 528l295 -448h2v448h56v-528h-71l-297 454h-2v-454h-55v528h72zM192 605h-35q15 94 82 94q22 0 71 -23t64 -23q33 0 46 49h35q-15 -93 -81 -93q-24 0 -72 23.5t-63 23.5q-34 0 -47 -51z" />
    <glyph glyph-name="ncommaaccent.sc" horiz-adv-x="612" 
d="M166 528l295 -448h2v448h56v-528h-71l-297 454h-2v-454h-55v528h72zM346 -45l-71 -185h-45l59 185h57z" />
    <glyph glyph-name="ograve.sc" horiz-adv-x="668" 
d="M611 265q0 -120 -79 -199t-199 -79q-119 0 -197.5 79t-78.5 199q0 121 78 198t198 77q121 0 199.5 -77t78.5 -198zM551 265q0 96 -60 161.5t-158 65.5q-97 0 -156.5 -65.5t-59.5 -161.5t59.5 -161.5t156.5 -65.5q98 0 158 65.5t60 161.5zM327 585l-126 144h72l101 -144
h-47z" />
    <glyph glyph-name="oacute.sc" horiz-adv-x="668" 
d="M611 265q0 -120 -79 -199t-199 -79q-119 0 -197.5 79t-78.5 199q0 121 78 198t198 77q121 0 199.5 -77t78.5 -198zM551 265q0 96 -60 161.5t-158 65.5q-97 0 -156.5 -65.5t-59.5 -161.5t59.5 -161.5t156.5 -65.5q98 0 158 65.5t60 161.5zM465 729l-126 -144h-47l101 144
h72z" />
    <glyph glyph-name="ocircumflex.sc" horiz-adv-x="668" 
d="M611 265q0 -120 -79 -199t-199 -79q-119 0 -197.5 79t-78.5 199q0 121 78 198t198 77q121 0 199.5 -77t78.5 -198zM551 265q0 96 -60 161.5t-158 65.5q-97 0 -156.5 -65.5t-59.5 -161.5t59.5 -161.5t156.5 -65.5q98 0 158 65.5t60 161.5zM365 729l107 -144h-53l-86 115
l-86 -115h-53l107 144h64z" />
    <glyph glyph-name="otilde.sc" horiz-adv-x="668" 
d="M611 265q0 -120 -79 -199t-199 -79q-119 0 -197.5 79t-78.5 199q0 121 78 198t198 77q121 0 199.5 -77t78.5 -198zM551 265q0 96 -60 161.5t-158 65.5q-97 0 -156.5 -65.5t-59.5 -161.5t59.5 -161.5t156.5 -65.5q98 0 158 65.5t60 161.5zM220 605h-35q15 94 82 94
q22 0 71 -23t64 -23q33 0 46 49h35q-15 -93 -81 -93q-24 0 -72 23.5t-63 23.5q-34 0 -47 -51z" />
    <glyph glyph-name="odieresis.sc" horiz-adv-x="668" 
d="M611 265q0 -120 -79 -199t-199 -79q-119 0 -197.5 79t-78.5 199q0 121 78 198t198 77q121 0 199.5 -77t78.5 -198zM551 265q0 96 -60 161.5t-158 65.5q-97 0 -156.5 -65.5t-59.5 -161.5t59.5 -161.5t156.5 -65.5q98 0 158 65.5t60 161.5zM200 672q0 18 12.5 30.5
t30.5 12.5t30 -12.5t12 -30.5t-12 -31t-30 -13t-30.5 13t-12.5 31zM381 672q0 18 12 30.5t30 12.5t30.5 -12.5t12.5 -30.5t-12.5 -31t-30.5 -13t-30 13t-12 31z" />
    <glyph glyph-name="omacron.sc" horiz-adv-x="668" 
d="M611 265q0 -120 -79 -199t-199 -79q-119 0 -197.5 79t-78.5 199q0 121 78 198t198 77q121 0 199.5 -77t78.5 -198zM551 265q0 96 -60 161.5t-158 65.5q-97 0 -156.5 -65.5t-59.5 -161.5t59.5 -161.5t156.5 -65.5q98 0 158 65.5t60 161.5zM463 671v-44h-258v44h258z" />
    <glyph glyph-name="obreve.sc" horiz-adv-x="668" 
d="M611 265q0 -120 -79 -199t-199 -79q-119 0 -197.5 79t-78.5 199q0 121 78 198t198 77q121 0 199.5 -77t78.5 -198zM551 265q0 96 -60 161.5t-158 65.5q-97 0 -156.5 -65.5t-59.5 -161.5t59.5 -161.5t156.5 -65.5q98 0 158 65.5t60 161.5zM438 726h36q-5 -62 -43 -96
t-98 -34q-59 0 -97 34.5t-43 95.5h37q8 -42 36 -64t67 -22q89 0 105 86z" />
    <glyph glyph-name="ohungarumlaut.sc" horiz-adv-x="668" 
d="M611 265q0 -120 -79 -199t-199 -79q-119 0 -197.5 79t-78.5 199q0 121 78 198t198 77q121 0 199.5 -77t78.5 -198zM551 265q0 96 -60 161.5t-158 65.5q-97 0 -156.5 -65.5t-59.5 -161.5t59.5 -161.5t156.5 -65.5q98 0 158 65.5t60 161.5zM228 585l101 144h72l-126 -144
h-47zM382 585l101 144h72l-126 -144h-47z" />
    <glyph glyph-name="oslash.sc" horiz-adv-x="668" 
d="M73 -22l-26 26l74 76q-64 77 -64 185q0 121 78 198t198 77q109 0 180 -59l67 69l26 -26l-66 -68q71 -77 71 -191q0 -122 -78.5 -200t-199.5 -78q-112 0 -187 66zM333 37q98 0 158 66t60 162q0 87 -51 150l-315 -322q59 -56 148 -56zM161 121l313 320q-59 51 -141 51
q-97 0 -156.5 -65.5t-59.5 -161.5q0 -85 44 -144z" />
    <glyph glyph-name="oe.sc" horiz-adv-x="778" 
d="M434 249v-199h284v-50h-381q-116 0 -195 73.5t-79 190.5t79.5 190.5t194.5 73.5h370v-50h-273v-180h256v-49h-256zM337 50h42v428h-42q-93 0 -154 -61t-61 -153q0 -93 61 -153.5t154 -60.5z" />
    <glyph glyph-name="racute.sc" horiz-adv-x="491" 
d="M149 243v-243h-55v528h159q80 0 131 -34t51 -108q0 -58 -38 -94t-97 -42l150 -250h-67l-142 243h-92zM149 478v-186h97q132 0 132 94q0 92 -130 92h-99zM365 729l-126 -144h-47l101 144h72z" />
    <glyph glyph-name="rcaron.sc" horiz-adv-x="491" 
d="M149 243v-243h-55v528h159q80 0 131 -34t51 -108q0 -58 -38 -94t-97 -42l150 -250h-67l-142 243h-92zM149 478v-186h97q132 0 132 94q0 92 -130 92h-99zM387 729l-107 -144h-64l-107 144h53l86 -115l86 115h53z" />
    <glyph glyph-name="rcommaaccent.sc" horiz-adv-x="491" 
d="M149 243v-243h-55v528h159q80 0 131 -34t51 -108q0 -58 -38 -94t-97 -42l150 -250h-67l-142 243h-92zM149 478v-186h97q132 0 132 94q0 92 -130 92h-99zM296 -45l-71 -185h-45l59 185h57z" />
    <glyph glyph-name="sacute.sc" horiz-adv-x="440" 
d="M378 479l-40 -38q-38 51 -109 51q-45 0 -79.5 -24.5t-34.5 -71.5q0 -39 28 -62.5t67.5 -36t79 -26.5t67.5 -46t28 -83q0 -74 -51 -114.5t-124 -40.5q-106 0 -167 75l44 37q44 -63 124 -63q47 0 82.5 26.5t35.5 74.5q0 39 -28 63t-67.5 36t-79.5 26.5t-68 47t-28 84.5
q0 70 51.5 108t122.5 38q95 0 146 -61zM343 729l-126 -144h-47l101 144h72z" />
    <glyph glyph-name="scircumflex.sc" horiz-adv-x="440" 
d="M378 479l-40 -38q-38 51 -109 51q-45 0 -79.5 -24.5t-34.5 -71.5q0 -39 28 -62.5t67.5 -36t79 -26.5t67.5 -46t28 -83q0 -74 -51 -114.5t-124 -40.5q-106 0 -167 75l44 37q44 -63 124 -63q47 0 82.5 26.5t35.5 74.5q0 39 -28 63t-67.5 36t-79.5 26.5t-68 47t-28 84.5
q0 70 51.5 108t122.5 38q95 0 146 -61zM263 729l107 -144h-53l-86 115l-86 -115h-53l107 144h64z" />
    <glyph glyph-name="scaron.sc" horiz-adv-x="440" 
d="M378 479l-40 -38q-38 51 -109 51q-45 0 -79.5 -24.5t-34.5 -71.5q0 -39 28 -62.5t67.5 -36t79 -26.5t67.5 -46t28 -83q0 -74 -51 -114.5t-124 -40.5q-106 0 -167 75l44 37q44 -63 124 -63q47 0 82.5 26.5t35.5 74.5q0 39 -28 63t-67.5 36t-79.5 26.5t-68 47t-28 84.5
q0 70 51.5 108t122.5 38q95 0 146 -61zM369 729l-107 -144h-64l-107 144h53l86 -115l86 115h53z" />
    <glyph glyph-name="scedilla.sc" horiz-adv-x="440" 
d="M378 479l-40 -38q-38 51 -109 51q-45 0 -79.5 -24.5t-34.5 -71.5q0 -39 28 -62.5t67.5 -36t79 -26.5t67.5 -46t28 -83q0 -70 -44 -109t-112 -45l-42 -66q15 5 40 5q33 0 58.5 -18.5t25.5 -52.5q0 -31 -19 -51.5t-43.5 -27t-53.5 -6.5q-50 0 -93 20l13 31q33 -16 76 -16
q26 0 49 12t23 37q0 43 -60 43q-30 0 -51 -10l-15 13l56 87q-96 6 -150 74l44 37q44 -63 124 -63q47 0 82.5 26.5t35.5 74.5q0 39 -28 63t-67.5 36t-79.5 26.5t-68 47t-28 84.5q0 70 51.5 108t122.5 38q95 0 146 -61z" />
    <glyph glyph-name="scommaaccent.sc" horiz-adv-x="440" 
d="M378 479l-40 -38q-38 51 -109 51q-45 0 -79.5 -24.5t-34.5 -71.5q0 -39 28 -62.5t67.5 -36t79 -26.5t67.5 -46t28 -83q0 -74 -51 -114.5t-124 -40.5q-106 0 -167 75l44 37q44 -63 124 -63q47 0 82.5 26.5t35.5 74.5q0 39 -28 63t-67.5 36t-79.5 26.5t-68 47t-28 84.5
q0 70 51.5 108t122.5 38q95 0 146 -61zM252 -47l-71 -185h-45l59 185h57z" />
    <glyph glyph-name="tcaron.sc" horiz-adv-x="428" 
d="M241 478v-478h-56v478h-172v50h402v-50h-174zM352 729l-107 -144h-64l-107 144h53l86 -115l86 115h53z" />
    <glyph glyph-name="tcommaaccent.sc" horiz-adv-x="428" 
d="M241 478v-478h-56v478h-172v50h402v-50h-174zM255 -45l-71 -185h-45l59 185h57z" />
    <glyph glyph-name="tbar.sc" horiz-adv-x="428" 
d="M66 323v37h119v118h-172v50h402v-50h-174v-118h121v-37h-121v-323h-56v323h-119z" />
    <glyph glyph-name="thorn.sc" horiz-adv-x="480" 
d="M94 0v528h56v-104h104q181 0 181 -140q0 -71 -48 -108t-136 -37h-101v-139h-56zM150 375v-187h95q134 0 134 96q0 47 -32.5 69t-100.5 22h-96z" />
    <glyph glyph-name="ugrave.sc" horiz-adv-x="574" 
d="M287 -13q-101 0 -151 61t-50 150v330h55v-326q0 -70 35 -116.5t111 -46.5t111 46.5t35 116.5v326h56v-330q0 -89 -50.5 -150t-151.5 -61zM275 585l-126 144h72l101 -144h-47z" />
    <glyph glyph-name="uacute.sc" horiz-adv-x="574" 
d="M287 -13q-101 0 -151 61t-50 150v330h55v-326q0 -70 35 -116.5t111 -46.5t111 46.5t35 116.5v326h56v-330q0 -89 -50.5 -150t-151.5 -61zM426 729l-126 -144h-47l101 144h72z" />
    <glyph glyph-name="ucircumflex.sc" horiz-adv-x="574" 
d="M287 -13q-101 0 -151 61t-50 150v330h55v-326q0 -70 35 -116.5t111 -46.5t111 46.5t35 116.5v326h56v-330q0 -89 -50.5 -150t-151.5 -61zM320 729l107 -144h-53l-86 115l-86 -115h-53l107 144h64z" />
    <glyph glyph-name="utilde.sc" horiz-adv-x="574" 
d="M287 -13q-101 0 -151 61t-50 150v330h55v-326q0 -70 35 -116.5t111 -46.5t111 46.5t35 116.5v326h56v-330q0 -89 -50.5 -150t-151.5 -61zM175 605h-35q15 94 82 94q22 0 71 -23t64 -23q33 0 46 49h35q-15 -93 -81 -93q-24 0 -72 23.5t-63 23.5q-34 0 -47 -51z" />
    <glyph glyph-name="udieresis.sc" horiz-adv-x="574" 
d="M287 -13q-101 0 -151 61t-50 150v330h55v-326q0 -70 35 -116.5t111 -46.5t111 46.5t35 116.5v326h56v-330q0 -89 -50.5 -150t-151.5 -61zM156 672q0 18 12.5 30.5t30.5 12.5t30 -12.5t12 -30.5t-12 -31t-30 -13t-30.5 13t-12.5 31zM337 672q0 18 12 30.5t30 12.5
t30.5 -12.5t12.5 -30.5t-12.5 -31t-30.5 -13t-30 13t-12 31z" />
    <glyph glyph-name="umacron.sc" horiz-adv-x="574" 
d="M287 -13q-101 0 -151 61t-50 150v330h55v-326q0 -70 35 -116.5t111 -46.5t111 46.5t35 116.5v326h56v-330q0 -89 -50.5 -150t-151.5 -61zM418 671v-44h-258v44h258z" />
    <glyph glyph-name="ubreve.sc" horiz-adv-x="574" 
d="M287 -13q-101 0 -151 61t-50 150v330h55v-326q0 -70 35 -116.5t111 -46.5t111 46.5t35 116.5v326h56v-330q0 -89 -50.5 -150t-151.5 -61zM393 726h36q-5 -62 -43 -96t-98 -34q-59 0 -97 34.5t-43 95.5h37q8 -42 36 -64t67 -22q89 0 105 86z" />
    <glyph glyph-name="uring.sc" horiz-adv-x="574" 
d="M287 -13q-101 0 -151 61t-50 150v330h55v-326q0 -70 35 -116.5t111 -46.5t111 46.5t35 116.5v326h56v-330q0 -89 -50.5 -150t-151.5 -61zM383 671q0 -40 -28.5 -67.5t-67.5 -27.5t-67.5 27.5t-28.5 67.5q0 39 28.5 67t67.5 28t67.5 -28t28.5 -67zM352 671q0 27 -19 46
t-46 19t-46 -19t-19 -46t19 -46t46 -19t46 19t19 46z" />
    <glyph glyph-name="uhungarumlaut.sc" horiz-adv-x="574" 
d="M287 -13q-101 0 -151 61t-50 150v330h55v-326q0 -70 35 -116.5t111 -46.5t111 46.5t35 116.5v326h56v-330q0 -89 -50.5 -150t-151.5 -61zM178 585l101 144h72l-126 -144h-47zM332 585l101 144h72l-126 -144h-47z" />
    <glyph glyph-name="uogonek.sc" horiz-adv-x="574" 
d="M365 -156l16 -32q-35 -35 -88 -35q-36 0 -62 23.5t-26 60.5q0 59 75 126q-98 2 -146 62.5t-48 148.5v330h55v-326q0 -70 35 -116.5t111 -46.5t111 46.5t35 116.5v326h56v-330q0 -80 -41 -138t-122 -69q-39 -40 -55.5 -65.5t-16.5 -52.5q0 -24 15 -38.5t39 -14.5
q33 0 57 24z" />
    <glyph glyph-name="wacute.sc" horiz-adv-x="759" 
d="M85 528l128 -451h2l132 451h65l132 -451h2l128 451h60l-156 -528h-63l-135 452l-137 -452h-62l-155 528h59zM528 729l-126 -144h-47l101 144h72z" />
    <glyph glyph-name="wcircumflex.sc" horiz-adv-x="759" 
d="M85 528l128 -451h2l132 451h65l132 -451h2l128 451h60l-156 -528h-63l-135 452l-137 -452h-62l-155 528h59zM412 729l107 -144h-53l-86 115l-86 -115h-53l107 144h64z" />
    <glyph glyph-name="wdieresis.sc" horiz-adv-x="759" 
d="M85 528l128 -451h2l132 451h65l132 -451h2l128 451h60l-156 -528h-63l-135 452l-137 -452h-62l-155 528h59zM246 672q0 18 12.5 30.5t30.5 12.5t30 -12.5t12 -30.5t-12 -31t-30 -13t-30.5 13t-12.5 31zM427 672q0 18 12 30.5t30 12.5t30.5 -12.5t12.5 -30.5t-12.5 -31
t-30.5 -13t-30 13t-12 31z" />
    <glyph glyph-name="wgrave.sc" horiz-adv-x="759" 
d="M85 528l128 -451h2l132 451h65l132 -451h2l128 451h60l-156 -528h-63l-135 452l-137 -452h-62l-155 528h59zM357 585l-126 144h72l101 -144h-47z" />
    <glyph glyph-name="yacute.sc" horiz-adv-x="450" 
d="M252 229v-229h-55v229l-193 299h67l154 -253l155 253h66zM351 729l-126 -144h-47l101 144h72z" />
    <glyph glyph-name="ycircumflex.sc" horiz-adv-x="450" 
d="M252 229v-229h-55v229l-193 299h67l154 -253l155 253h66zM257 729l107 -144h-53l-86 115l-86 -115h-53l107 144h64z" />
    <glyph glyph-name="ydieresis.sc" horiz-adv-x="450" 
d="M252 229v-229h-55v229l-193 299h67l154 -253l155 253h66zM93 672q0 18 12.5 30.5t30.5 12.5t30 -12.5t12 -30.5t-12 -31t-30 -13t-30.5 13t-12.5 31zM274 672q0 18 12 30.5t30 12.5t30.5 -12.5t12.5 -30.5t-12.5 -31t-30.5 -13t-30 13t-12 31z" />
    <glyph glyph-name="ygrave.sc" horiz-adv-x="450" 
d="M252 229v-229h-55v229l-193 299h67l154 -253l155 253h66zM224 585l-126 144h72l101 -144h-47z" />
    <glyph glyph-name="zacute.sc" horiz-adv-x="484" 
d="M429 528v-50l-312 -428h317v-50h-384v50l311 428h-303v50h371zM350 729l-126 -144h-47l101 144h72z" />
    <glyph glyph-name="zcaron.sc" horiz-adv-x="484" 
d="M429 528v-50l-312 -428h317v-50h-384v50l311 428h-303v50h371zM386 729l-107 -144h-64l-107 144h53l86 -115l86 115h53z" />
    <glyph glyph-name="zdotaccent.sc" horiz-adv-x="484" 
d="M429 528v-50l-312 -428h317v-50h-384v50l311 428h-303v50h371zM283 672q0 -17 -12.5 -29t-28.5 -12t-28.5 12t-12.5 29t12.5 29t28.5 12t28.5 -12t12.5 -29z" />
    <glyph glyph-name="ij.sc" horiz-adv-x="630" 
d="M149 528v-528h-55v528h55zM259 92l52 16q20 -69 87 -69q91 0 91 121v368h56v-372q0 -69 -33.5 -119t-110.5 -50q-56 0 -92.5 29t-49.5 76z" />
    <glyph glyph-name="germandbls.sc" horiz-adv-x="893" 
d="M385 479l-40 -38q-39 51 -109 51q-46 0 -80.5 -25t-34.5 -71q0 -39 28 -62t67.5 -35.5t79.5 -26.5t68 -46.5t28 -83.5q0 -74 -51 -114.5t-124 -40.5q-50 0 -95 19.5t-72 55.5l44 37q20 -29 53 -46t70 -17q48 0 83 26.5t35 74.5q0 39 -28 62.5t-67.5 36t-79 27t-67.5 47
t-28 84.5q0 70 51.5 108t122.5 38q95 0 146 -61zM831 479l-40 -38q-38 51 -109 51q-46 0 -80.5 -25t-34.5 -71q0 -39 28 -62t67.5 -35.5t79.5 -26.5t68 -46.5t28 -83.5q0 -74 -51 -114.5t-124 -40.5q-49 0 -94 19.5t-73 55.5l44 37q20 -29 53 -46t71 -17q47 0 82.5 26.5
t35.5 74.5q0 39 -28 62.5t-68 36t-79.5 27t-67.5 47t-28 84.5q0 70 51.5 108t122.5 38q95 0 146 -61z" />
    <glyph glyph-name="eng.sc" horiz-adv-x="612" 
d="M94 0v528h72l295 -433h2v433h56v-622q0 -146 -127 -146q-29 0 -47 6l8 45q22 -5 38 -5q44 0 58.5 27.5t14.5 79.5v78l-313 463h-2v-454h-55z" />
    <glyph glyph-name="grave.sc" horiz-adv-x="240" 
d="M125 585l-126 144h72l101 -144h-47z" />
    <glyph glyph-name="acute.sc" horiz-adv-x="240" 
d="M241 729l-126 -144h-47l101 144h72z" />
    <glyph glyph-name="circumflex.sc" horiz-adv-x="240" 
d="M152 729l107 -144h-53l-86 115l-86 -115h-53l107 144h64z" />
    <glyph glyph-name="caron.sc" horiz-adv-x="240" 
d="M259 729l-107 -144h-64l-107 144h53l86 -115l86 115h53z" />
    <glyph glyph-name="tilde.sc" horiz-adv-x="240" 
d="M6 605h-35q15 94 82 94q22 0 71 -23t64 -23q33 0 46 49h35q-15 -93 -81 -93q-24 0 -72 23.5t-63 23.5q-34 0 -47 -51z" />
    <glyph glyph-name="dieresis.sc" horiz-adv-x="240" 
d="M-13 672q0 18 12.5 30.5t30.5 12.5t30 -12.5t12 -30.5t-12 -31t-30 -13t-30.5 13t-12.5 31zM168 672q0 18 12 30.5t30 12.5t30.5 -12.5t12.5 -30.5t-12.5 -31t-30.5 -13t-30 13t-12 31z" />
    <glyph glyph-name="macron.sc" horiz-adv-x="240" 
d="M249 671v-44h-258v44h258z" />
    <glyph glyph-name="breve.sc" horiz-adv-x="240" 
d="M224 726h36q-5 -62 -43 -96t-98 -34q-59 0 -97 34.5t-43 95.5h37q8 -42 36 -64t67 -22q89 0 105 86z" />
    <glyph glyph-name="ring.sc" horiz-adv-x="240" 
d="M216 671q0 -40 -28.5 -67.5t-67.5 -27.5t-67.5 27.5t-28.5 67.5q0 39 28.5 67t67.5 28t67.5 -28t28.5 -67zM185 671q0 27 -19 46t-46 19t-46 -19t-19 -46t19 -46t46 -19t46 19t19 46z" />
    <glyph glyph-name="hungarumlaut.sc" horiz-adv-x="240" 
d="M-30 585l101 144h72l-126 -144h-47zM124 585l101 144h72l-126 -144h-47z" />
    <glyph glyph-name="dotaccent.sc" horiz-adv-x="240" 
d="M161 672q0 -17 -12.5 -29t-28.5 -12t-28.5 12t-12.5 29t12.5 29t28.5 12t28.5 -12t12.5 -29z" />
    <glyph glyph-name="exclamdown.sc" horiz-adv-x="275" 
d="M165 0h-55v376h55v-376zM182 489q0 -19 -12 -32t-32 -13t-32 13t-12 32t12 32t32 13t32 -13t12 -32z" />
    <glyph glyph-name="questiondown.sc" horiz-adv-x="353" 
d="M172 -13q-65 0 -101 37.5t-36 95.5q0 42 15.5 70.5t50.5 57.5q32 26 43 49t11 57v26h54v-38q0 -34 -15 -59.5t-59 -69.5q-25 -25 -34.5 -43t-9.5 -47q0 -37 23 -62t61 -25q72 0 89 86l53 -10q-11 -60 -48.5 -92.5t-96.5 -32.5zM177 454q-18 0 -30.5 13t-12.5 31
q0 19 11.5 31.5t31.5 12.5t31.5 -12.5t11.5 -31.5q0 -18 -12 -31t-31 -13z" />
    <glyph glyph-name="Euro.sc" horiz-adv-x="478" 
d="M420 511l-19 -46q-43 25 -98 25q-58 0 -101.5 -38.5t-58.5 -109.5h223l-14 -42h-214q-4 -23 -4 -45q0 -17 3 -35h194l-14 -43h-173q11 -60 52 -100.5t98 -40.5q61 0 109 34l22 -43q-58 -40 -132 -40q-86 0 -140.5 55t-67.5 135h-59l16 43h37q-2 14 -2 31q0 13 3 49h-53
l15 42h44q18 94 77 146t141 52q64 0 116 -29z" />
    <glyph glyph-name="cent.sc" horiz-adv-x="478" 
d="M304 -72h-44v61q-95 10 -151.5 77t-56.5 167q0 98 57.5 165.5t150.5 77.5v64h44v-62q101 -5 155 -73l-36 -33q-44 54 -119 59v-395q74 4 124 56l34 -31q-62 -70 -158 -74v-59zM108 233q0 -76 41.5 -129.5t110.5 -65.5v390q-70 -12 -111 -66t-41 -129z" />
    <glyph glyph-name="sterling.sc" horiz-adv-x="478" 
d="M324 295v-46h-120v-199h185v-50h-313v50h72v199h-66v46h66v74q0 79 41.5 125t115.5 46q63 0 107 -39l-36 -39q-31 31 -73 31q-48 0 -73.5 -33t-25.5 -96v-69h120z" />
    <glyph glyph-name="florin.sc" horiz-adv-x="478" 
d="M355 317v-42h-93l-39 -235q-12 -64 -40 -95t-79 -31q-43 0 -71 21l21 42q19 -16 50 -16q51 0 66 85l37 229h-83v42h87l20 113q9 53 38 81t74 28q47 0 80 -26l-29 -38q-21 18 -48 18q-51 0 -62 -69l-18 -107h89z" />
    <glyph glyph-name="yen.sc" horiz-adv-x="478" 
d="M91 166h123v74h-123v42h112l-171 246h63l146 -220l145 220h60l-169 -246h113v-42h-123v-74h123v-42h-123v-124h-53v124h-123v42z" />
    <glyph glyph-name="perthousand.sc" horiz-adv-x="970" 
d="M310 411q0 -55 -37.5 -92.5t-92.5 -37.5q-54 0 -91.5 37.5t-37.5 92.5q0 54 37.5 91.5t91.5 37.5q55 0 92.5 -37.5t37.5 -91.5zM264 411q0 35 -24.5 59.5t-59.5 24.5q-34 0 -58.5 -24.5t-24.5 -59.5q0 -36 24.5 -60t58.5 -24q36 0 60 24t24 60zM619 117
q0 -55 -37.5 -92.5t-92.5 -37.5q-54 0 -91.5 37.5t-37.5 92.5q0 54 37.5 91.5t91.5 37.5q55 0 92.5 -37.5t37.5 -91.5zM573 117q0 36 -24.5 60t-59.5 24q-34 0 -58.5 -24t-24.5 -60t24.5 -60t58.5 -24q36 0 60 24t24 60zM925 117q0 -55 -37.5 -92.5t-92.5 -37.5t-92.5 37.5
t-37.5 92.5q0 54 37.5 91.5t92.5 37.5t92.5 -37.5t37.5 -91.5zM879 117q0 35 -25 59.5t-59 24.5t-59 -24.5t-25 -59.5q0 -36 25 -60t59 -24t59 24t25 60zM522 534l-338 -564l-38 22l338 564z" />
    <glyph glyph-name="zero.onum" horiz-adv-x="684" 
d="M621 265q0 -122 -79 -200t-201 -78q-121 0 -199.5 78t-78.5 200q0 123 78.5 200t199.5 77q123 0 201.5 -77t78.5 -200zM560 265q0 98 -59.5 162t-159.5 64q-98 0 -157.5 -64t-59.5 -162q0 -97 59.5 -162t157.5 -65q100 0 159.5 64.5t59.5 162.5z" />
    <glyph glyph-name="one.onum" horiz-adv-x="375" 
d="M237 0h-56v456l-102 -86l-33 40l141 118h50v-528z" />
    <glyph glyph-name="two.onum" horiz-adv-x="514" 
d="M449 0h-393v53l99 70q130 93 178 141.5t48 110.5q0 54 -36 85.5t-96 31.5q-102 0 -146 -95l-44 27q28 57 77.5 87.5t113.5 30.5q86 0 137 -43.5t51 -122.5q0 -38 -14 -71.5t-47.5 -67t-67 -59.5t-92.5 -68l-81 -57v-3h313v-50z" />
    <glyph glyph-name="three.onum" horiz-adv-x="525" 
d="M182 -170q-63 0 -103 9l9 52q38 -11 93 -11q97 0 157 46t60 138q0 76 -49.5 117.5t-132.5 41.5q-50 0 -105 -15l-16 43q191 147 272 224v4h-294v49h363v-58q-114 -104 -246 -204v-4q32 5 51 5q89 0 151.5 -54.5t62.5 -144.5q0 -115 -77 -176.5t-196 -61.5z" />
    <glyph glyph-name="four.onum" horiz-adv-x="563" 
d="M535 9h-118v-179h-55v179h-316v52l285 481h61l-288 -483h258v266h55v-266h118v-50z" />
    <glyph glyph-name="five.onum" horiz-adv-x="519" 
d="M443 528v-52h-275l-26 -218q39 12 86 12q92 0 156.5 -54t64.5 -150q0 -115 -74.5 -175.5t-191.5 -60.5q-67 0 -111 10l9 48q42 -9 97 -9q100 0 157 47.5t57 137.5q0 79 -53 119t-128 40q-69 0 -127 -23l37 328h322z" />
    <glyph glyph-name="six.onum" horiz-adv-x="578" 
d="M515 209q0 -99 -64 -162t-163 -63q-100 0 -163 63t-63 167q0 123 86.5 251.5t224.5 246.5l45 -32q-84 -70 -156 -153.5t-105 -157.5l3 -2q53 61 143 61q92 0 152 -62.5t60 -156.5zM291 381q-73 0 -122 -49.5t-49 -124.5t47 -124t121 -49t121.5 49t47.5 124
q0 76 -45.5 125t-120.5 49z" />
    <glyph glyph-name="seven.onum" horiz-adv-x="514" 
d="M464 528v-53q-175 -354 -298 -658l-58 15q52 124 144 321.5t155 322.5h-355v52h412z" />
    <glyph glyph-name="eight.onum" horiz-adv-x="571" 
d="M508 190q0 -94 -63.5 -149.5t-158.5 -55.5q-96 0 -159.5 55.5t-63.5 149.5q0 67 38.5 117.5t103.5 68.5v2q-55 20 -85.5 64t-30.5 99q0 81 56 131.5t141 50.5q83 0 139.5 -51t56.5 -131q0 -55 -30.5 -99t-85.5 -64v-2q68 -18 105 -68.5t37 -117.5zM286 675
q-60 0 -100 -38.5t-40 -97.5q0 -57 40 -97.5t100 -40.5q59 0 99.5 40.5t40.5 97.5q0 59 -40.5 97.5t-99.5 38.5zM449 193q0 69 -47 114.5t-116 45.5q-70 0 -117 -45.5t-47 -114.5q0 -70 45 -114.5t119 -44.5q72 0 117.5 45t45.5 114z" />
    <glyph glyph-name="nine.onum" horiz-adv-x="578" 
d="M516 313q0 -124 -89 -255.5t-222 -241.5l-45 32q81 65 153 148t107 158l-2 2q-55 -58 -144 -58q-91 0 -151 62t-60 157q0 99 64 162t163 63t162.5 -63t63.5 -166zM289 493q-74 0 -121 -49t-47 -125q0 -75 45.5 -124.5t119.5 -49.5q73 0 122.5 49.5t49.5 125.5
q0 74 -47.5 123.5t-121.5 49.5z" />
    <glyph glyph-name="ordfeminine.sc" horiz-adv-x="357" 
d="M104 500l-29 -69h-48l129 290h48l126 -290h-48l-29 69h-149zM179 678l-63 -147h125z" />
    <glyph glyph-name="fi.sc" horiz-adv-x="711" 
d="M149 245v-245h-55v528h319v-50h-264v-184h247v-49h-247zM617 528v-528h-55v528h55z" />
    <glyph glyph-name="fl.sc" horiz-adv-x="880" 
d="M149 245v-245h-55v528h319v-50h-264v-184h247v-49h-247zM617 528v-478h244v-50h-299v528h55z" />
    </font>
</defs>
</svg>
